<?xml version="1.0" standalone="no"?>
<!DOCTYPE svg PUBLIC "-//W3C//DTD SVG 1.1//EN" "http://www.w3.org/Graphics/SVG/1.1/DTD/svg11.dtd" >
<svg xmlns="http://www.w3.org/2000/svg" xmlns:xlink="http://www.w3.org/1999/xlink" version="1.1">
<metadata>
Created by FontForge 20190801 at Wed May  8 15:20:54 2013
 By www-data
Copyright (c) 2012 by Andriy Konstantynov. All rights reserved.
</metadata>
<defs>
<font id="CynthoProMedium" horiz-adv-x="613" >
  <font-face 
    font-family="CynthoProMedium"
    font-weight="400"
    font-stretch="normal"
    units-per-em="1000"
    panose-1="2 11 0 3 3 2 0 2 0 4"
    ascent="760"
    descent="-240"
    x-height="500"
    cap-height="700"
    bbox="-88 -293 1282 975"
    underline-thickness="50"
    underline-position="-100"
    unicode-range="U+0020-2212"
  />
<missing-glyph horiz-adv-x="240" 
 />
    <glyph glyph-name=".notdef" horiz-adv-x="240" 
 />
    <glyph glyph-name=".null" horiz-adv-x="0" 
 />
    <glyph glyph-name="nonmarkingreturn" horiz-adv-x="333" 
 />
    <glyph glyph-name="space" unicode=" " horiz-adv-x="257" 
 />
    <glyph glyph-name="exclam" unicode="!" horiz-adv-x="246" 
d="M170 217h-94v483h94v-483zM76 0v122h94v-122h-94z" />
    <glyph glyph-name="quotedbl" unicode="&#x22;" horiz-adv-x="455" 
d="M157 422h-67l-14 278h94zM365 422h-67l-13 278h94z" />
    <glyph glyph-name="numbersign" unicode="#" horiz-adv-x="803" 
d="M108 466v76h119l29 158h100l-28 -158h214l29 158h100l-28 -158h109v-76h-122l-41 -232h107v-77h-120l-28 -157h-100l27 157h-214l-28 -157h-100l27 157h-108v77h121l42 232h-107zM315 466l-41 -232h214l42 232h-215z" />
    <glyph glyph-name="dollar" unicode="$" horiz-adv-x="572" 
d="M304 -100h-40v94q-126 1 -219 101l51 53q65 -70 168 -71v235q-33 12 -49.5 18.5t-46 20t-44.5 27t-32.5 33t-25 45t-7.5 55.5q0 84 57.5 137t147.5 58v94h40v-95q113 -8 197 -100l-50 -54q-61 67 -147 71v-232q102 -38 134 -59q76 -48 76 -129q0 -85 -59.5 -141
t-150.5 -64v-97zM414 195q0 36 -28.5 58.5t-81.5 42.5v-214q49 8 79.5 38.5t30.5 74.5zM159 516q0 -38 27 -62.5t78 -45.5v212q-49 -5 -77 -33.5t-28 -70.5z" />
    <glyph glyph-name="percent" unicode="%" horiz-adv-x="926" 
d="M306 0h-101l418 725h101zM49 562q0 74 46.5 120t120.5 46t120 -46t46 -120q0 -73 -46 -119t-120 -46t-120.5 46t-46.5 119zM128 562q0 -41 24.5 -67.5t63.5 -26.5q38 0 63 26.5t25 67.5q0 42 -25 68.5t-63 26.5q-39 0 -63.5 -26.5t-24.5 -68.5zM544 162q0 74 46.5 120
t120.5 46t120.5 -46t46.5 -120q0 -73 -46.5 -119t-120.5 -46t-120.5 46t-46.5 119zM623 162q0 -41 25 -67.5t63 -26.5q39 0 64 26.5t25 67.5q0 42 -25 68.5t-64 26.5q-38 0 -63 -26.5t-25 -68.5z" />
    <glyph glyph-name="ampersand" unicode="&#x26;" horiz-adv-x="703" 
d="M322 706q76 0 124 -42.5t48 -112.5q0 -31 -11 -58t-26 -45.5t-42.5 -38t-47 -30t-53.5 -27.5q64 -87 176 -181q53 73 53 179h80q0 -139 -67 -232q24 -19 48 -35.5t36 -24.5l12 -7l-59 -61q-40 25 -96 68q-84 -64 -213 -64q-99 0 -162.5 56.5t-63.5 145.5q0 68 35 112
t96 77q-45 82 -45 154q0 75 50 121t128 46zM152 196q0 -55 37.5 -90.5t94.5 -35.5q85 0 147 42q-123 104 -194 199q-85 -50 -85 -115zM238 539q0 -51 31 -115q32 15 51 25.5t40 26.5t30.5 34.5t9.5 40.5q0 35 -21.5 57t-56.5 22q-37 0 -60.5 -25.5t-23.5 -65.5z" />
    <glyph glyph-name="quotesingle" unicode="'" horiz-adv-x="246" 
d="M157 422h-67l-14 278h94z" />
    <glyph glyph-name="parenleft" unicode="(" horiz-adv-x="304" 
d="M69 312q0 134 32.5 256t89.5 201l51 -53q-37 -62 -58.5 -172t-21.5 -232q0 -121 21.5 -231t58.5 -172l-51 -53q-57 79 -89.5 201t-32.5 255z" />
    <glyph glyph-name="parenright" unicode=")" horiz-adv-x="304" 
d="M235 313q0 -134 -32.5 -256t-90.5 -201l-50 53q37 62 58 171.5t21 232.5q0 121 -21.5 231t-58.5 172l51 53q58 -79 90.5 -201t32.5 -255z" />
    <glyph glyph-name="asterisk" unicode="*" horiz-adv-x="513" 
d="M88 645l139 -80v160h60v-160l138 80l30 -53l-139 -81l139 -79l-30 -53l-138 79v-159h-60v159l-139 -79l-30 53l138 79l-138 81z" />
    <glyph glyph-name="plus" unicode="+" horiz-adv-x="578" 
d="M328 584v-186h183v-76h-183v-185h-80v185h-182v76h182v186h80z" />
    <glyph glyph-name="comma" unicode="," horiz-adv-x="246" 
d="M47 -177l-40 41q34 34 51.5 104t17.5 154h94q0 -88 -35.5 -167t-87.5 -132z" />
    <glyph glyph-name="hyphen" unicode="-" horiz-adv-x="396" 
d="M320 252h-244v76h244v-76z" />
    <glyph glyph-name="period" unicode="." horiz-adv-x="246" 
d="M76 0v122h94v-122h-94z" />
    <glyph glyph-name="slash" unicode="/" horiz-adv-x="373" 
d="M83 -100h-93l300 825h94z" />
    <glyph glyph-name="zero" unicode="0" horiz-adv-x="644" 
d="M49 350q0 160 73.5 258t197.5 98t198 -98t74 -258t-74 -258t-198 -98t-197.5 98t-73.5 258zM146 349q0 -122 48 -199t126 -77q79 0 127 77t48 199q0 124 -48 201t-127 77q-78 0 -126 -77.5t-48 -200.5z" />
    <glyph glyph-name="one" unicode="1" horiz-adv-x="487" 
d="M46 555l242 145h97v-700h-97v594l-200 -113z" />
    <glyph glyph-name="two" unicode="2" horiz-adv-x="572" 
d="M62 0v80q14 9 37.5 26t83 67t105 97.5t83 110t37.5 113.5q0 59 -36 96t-99 37q-98 0 -167 -72l-51 53q93 98 226 98q97 0 160.5 -55.5t63.5 -146.5q0 -60 -33 -125.5t-80.5 -116.5t-95 -93.5t-80.5 -65.5l-33 -23h334v-80h-455z" />
    <glyph glyph-name="three" unicode="3" horiz-adv-x="575" 
d="M286 -6q-144 0 -238 97l54 56q60 -74 178 -74q66 0 108 36.5t42 93.5q0 58 -42.5 94t-109.5 36h-45v77h46q58 0 93.5 30t35.5 78t-35 78.5t-92 30.5q-111 0 -169 -75l-54 56q87 98 229 98q97 0 157.5 -49t60.5 -127q0 -55 -33 -96.5t-91 -61.5q67 -21 106.5 -69
t39.5 -112q0 -88 -67 -142.5t-174 -54.5z" />
    <glyph glyph-name="four" unicode="4" horiz-adv-x="691" 
d="M443 0v124h-384v50l371 526h110v-500h83v-76h-83v-124h-97zM179 200h264v361z" />
    <glyph glyph-name="five" unicode="5" horiz-adv-x="570" 
d="M82 344v356h384v-80h-287v-196h101q103 0 167.5 -62t64.5 -160q0 -94 -66 -151t-167 -57q-142 0 -240 98l51 53q70 -72 178 -72q69 0 108 36.5t39 95.5q0 64 -39.5 101.5t-103.5 37.5h-190z" />
    <glyph glyph-name="six" unicode="6" horiz-adv-x="598" 
d="M313 627q-69 0 -114.5 -65.5t-52.5 -174.5q61 53 148 53q114 0 185 -62t71 -159q0 -100 -66 -162.5t-172 -62.5q-120 0 -191.5 98t-71.5 258t71.5 258t191.5 98q119 0 195 -73l-51 -53q-53 47 -143 47zM310 73q64 0 103.5 40.5t39.5 105.5q0 61 -45 101.5t-117 40.5
q-46 0 -84.5 -19t-60.5 -53q8 -100 53 -158t111 -58z" />
    <glyph glyph-name="seven" unicode="7" horiz-adv-x="641" 
d="M63 620v80h508v-51l-325 -649h-98l309 620h-394z" />
    <glyph glyph-name="eight" unicode="8" horiz-adv-x="594" 
d="M71 530q0 78 63 127t163 49q101 0 164 -49t63 -127q0 -55 -33.5 -96t-91.5 -62q68 -21 107 -69t39 -112q0 -88 -69 -142.5t-179 -54.5t-179 54.5t-69 142.5q0 64 39 112t106 69q-57 20 -90 62t-33 96zM146 204q0 -57 42 -94t108 -37q67 0 109.5 37t42.5 94
q0 58 -42.5 95.5t-109.5 37.5q-66 0 -108 -37t-42 -96zM168 515q0 -48 36 -78.5t93 -30.5q58 0 94 30.5t36 78.5q0 50 -36 81t-94 31q-57 0 -93 -31.5t-36 -80.5z" />
    <glyph glyph-name="nine" unicode="9" horiz-adv-x="594" 
d="M270 73q74 0 123 64t57 171q-61 -58 -150 -58q-112 0 -182 63.5t-70 164.5t66 164.5t172 63.5q119 0 190 -98t71 -258t-75.5 -258t-202.5 -98q-126 0 -204 73l51 53q55 -47 154 -47zM288 627q-64 0 -103.5 -41.5t-39.5 -107.5q0 -65 44 -106.5t114 -41.5q47 0 86.5 21
t59.5 58q-9 103 -52.5 160.5t-108.5 57.5z" />
    <glyph glyph-name="colon" unicode=":" horiz-adv-x="246" 
d="M76 0v122h94v-122h-94zM76 378v122h94v-122h-94z" />
    <glyph glyph-name="semicolon" unicode=";" horiz-adv-x="246" 
d="M47 -177l-40 41q34 34 51.5 104t17.5 154h94q0 -88 -35.5 -167t-87.5 -132zM76 378v122h94v-122h-94z" />
    <glyph glyph-name="less" unicode="&#x3c;" horiz-adv-x="647" 
d="M54 320v64l538 237v-95l-401 -174l401 -174v-96z" />
    <glyph glyph-name="equal" unicode="=" horiz-adv-x="652" 
d="M576 192h-500v76h500v-76zM576 438h-500v76h500v-76z" />
    <glyph glyph-name="greater" unicode="&#x3e;" horiz-adv-x="647" 
d="M593 382v-64l-538 -237v94l401 174l-401 175v96z" />
    <glyph glyph-name="question" unicode="?" horiz-adv-x="523" 
d="M208 0v122h94v-122h-94zM302 218h-94q0 62 18 104t43 62.5t50.5 37.5t43.5 41.5t18 60.5q0 45 -35.5 75.5t-94.5 30.5q-93 0 -161 -75l-49 50q93 101 220 101q94 0 153.5 -49.5t59.5 -129.5q0 -51 -17.5 -86t-42.5 -54l-52 -38q-25 -19 -42.5 -51t-17.5 -80z" />
    <glyph glyph-name="at" unicode="@" horiz-adv-x="1073" 
d="M843 -57l47 -50q-138 -124 -354 -124q-214 0 -347 133.5t-133 347.5t133 347.5t347 133.5q213 0 347 -124t134 -322q0 -76 -19.5 -134t-51.5 -90.5t-68.5 -48.5t-75.5 -16q-57 0 -98 31t-41 80q-24 -53 -70.5 -82t-106.5 -29q-86 0 -140.5 67.5t-54.5 176.5
q0 118 76.5 192t198.5 74q108 0 181 -36v-300q0 -45 21 -71.5t50 -26.5q42 0 73.5 54.5t31.5 158.5q0 163 -107.5 266.5t-279.5 103.5q-169 0 -277.5 -113.5t-108.5 -291.5t108.5 -291.5t277.5 -113.5q200 0 307 98zM653 197v217q-48 16 -105 16q-72 0 -117.5 -53
t-45.5 -137q0 -75 38 -121.5t98 -46.5q57 0 94 36.5t38 88.5z" />
    <glyph glyph-name="A" unicode="A" horiz-adv-x="845" 
d="M372 700h102l323 -700h-98l-85 181h-382l-85 -181h-99zM423 594l-155 -330h310z" />
    <glyph glyph-name="B" unicode="B" horiz-adv-x="629" 
d="M76 0v700h274q80 0 130.5 -48.5t50.5 -125.5q0 -52 -23 -93t-62 -62q56 -17 90.5 -65.5t34.5 -115.5q0 -84 -54.5 -137t-142.5 -53h-298zM177 83h164q56 0 90.5 33.5t34.5 86.5t-34.5 86.5t-90.5 33.5h-164v-240zM320 617h-143v-210h143q50 0 80 29.5t30 75.5t-30 75.5
t-80 29.5z" />
    <glyph glyph-name="C" unicode="C" horiz-adv-x="722" 
d="M608 156l59 -61q-99 -101 -262 -101q-158 0 -257 99t-99 257t99.5 257t257.5 99t261 -101l-59 -61q-70 79 -197 79q-117 0 -189.5 -76t-72.5 -197t72.5 -197t189.5 -76q129 0 197 79z" />
    <glyph glyph-name="D" unicode="D" horiz-adv-x="746" 
d="M76 0v700h271q155 0 252.5 -97.5t97.5 -252.5t-97.5 -252.5t-252.5 -97.5h-271zM597 350q0 117 -70 192t-180 75h-170v-534h170q110 0 180 75t70 192z" />
    <glyph glyph-name="E" unicode="E" horiz-adv-x="631" 
d="M76 0v700h484v-83h-383v-219h354v-83h-354v-232h391v-83h-492z" />
    <glyph glyph-name="F" unicode="F" horiz-adv-x="623" 
d="M76 0v700h484v-83h-383v-232h353v-83h-353v-302h-101z" />
    <glyph glyph-name="G" unicode="G" horiz-adv-x="743" 
d="M384 302v83h283v-290q-99 -101 -262 -101q-158 0 -257 99t-99 257t99.5 257t257.5 99t261 -101l-59 -61q-70 79 -197 79q-117 0 -189.5 -76t-72.5 -198q0 -120 72.5 -196t189.5 -76q93 0 156 45v180h-183z" />
    <glyph glyph-name="H" unicode="H" horiz-adv-x="753" 
d="M576 0v315h-399v-315h-101v700h101v-302h399v302h100v-700h-100z" />
    <glyph glyph-name="I" unicode="I" horiz-adv-x="253" 
d="M177 0h-101v700h101v-700z" />
    <glyph glyph-name="J" unicode="J" horiz-adv-x="577" 
d="M401 250v450h100v-450q0 -114 -72.5 -185t-188.5 -71q-117 0 -190 73l57 60q45 -50 127 -50q74 0 120.5 48.5t46.5 124.5z" />
    <glyph glyph-name="K" unicode="K" horiz-adv-x="688" 
d="M177 0h-101v700h101v-323l321 323h125l-295 -300l319 -400h-114l-271 331l-85 -93v-238z" />
    <glyph glyph-name="L" unicode="L" horiz-adv-x="643" 
d="M76 0v700h101v-617h403v-83h-504z" />
    <glyph glyph-name="M" unicode="M" horiz-adv-x="946" 
d="M76 0v700h133l264 -559l264 559h133v-700h-101v550l-258 -550h-75l-259 550v-550h-101z" />
    <glyph glyph-name="N" unicode="N" horiz-adv-x="764" 
d="M588 0l-411 542v-542h-101v700h101l411 -542v542h100v-700h-100z" />
    <glyph glyph-name="O" unicode="O" horiz-adv-x="809" 
d="M49 350q0 158 98.5 257t256.5 99t257 -99t99 -257t-99 -257t-257 -99t-256.5 99t-98.5 257zM149 350q0 -120 71.5 -196.5t183.5 -76.5q113 0 184.5 76.5t71.5 196.5t-71.5 196.5t-184.5 76.5q-112 0 -183.5 -76.5t-71.5 -196.5z" />
    <glyph glyph-name="P" unicode="P" horiz-adv-x="606" 
d="M76 0v700h259q98 0 160 -62t62 -161q0 -98 -62 -160t-160 -62h-158v-255h-101zM325 617h-148v-279h148q58 0 95 39t37 100q0 62 -37 101t-95 39z" />
    <glyph glyph-name="Q" unicode="Q" horiz-adv-x="843" 
d="M698 -12l-74 73q-92 -67 -220 -67q-158 0 -256.5 99t-98.5 257t98.5 257t256.5 99t257 -99t99 -257q0 -137 -76 -230l73 -71zM444 243l58 60l112 -110q46 67 46 157q0 120 -71.5 196.5t-184.5 76.5q-112 0 -183.5 -76.5t-71.5 -196.5t71.5 -196.5t183.5 -76.5
q93 0 157 50z" />
    <glyph glyph-name="R" unicode="R" horiz-adv-x="629" 
d="M478 0l-216 292h-85v-292h-101v700h279q91 0 147.5 -56.5t56.5 -147.5q0 -86 -51.5 -142t-135.5 -62l217 -292h-111zM177 375h167q50 0 82.5 34t32.5 87t-32.5 87t-82.5 34h-167v-242z" />
    <glyph glyph-name="S" unicode="S" horiz-adv-x="572" 
d="M514 202q0 -93 -70 -150.5t-174 -57.5q-130 0 -225 101l51 53q66 -71 172 -71q63 0 104.5 33t41.5 85q0 39 -36.5 65.5t-88.5 44t-104.5 39t-89 63.5t-36.5 104q0 88 62 141.5t157 53.5q130 0 223 -101l-50 -54q-66 72 -164 72q-60 0 -94 -29.5t-34 -77.5q0 -36 26.5 -63
t65.5 -42t85.5 -33t85.5 -37t65.5 -54.5t26.5 -84.5z" />
    <glyph glyph-name="T" unicode="T" horiz-adv-x="753" 
d="M56 617v83h641v-83h-270v-617h-101v617h-270z" />
    <glyph glyph-name="U" unicode="U" horiz-adv-x="772" 
d="M595 307v393h100v-393q0 -146 -84 -229.5t-226 -83.5q-141 0 -225 83.5t-84 229.5v393h101v-393q0 -103 57.5 -166.5t150.5 -63.5q95 0 152.5 63.5t57.5 166.5z" />
    <glyph glyph-name="V" unicode="V" horiz-adv-x="845" 
d="M422 106l269 594h106l-324 -700h-102l-323 700h105z" />
    <glyph glyph-name="W" unicode="W" horiz-adv-x="1191" 
d="M399 0h-108l-244 700h97l199 -569l197 569h108l197 -569l199 569h97l-244 -700h-108l-195 567z" />
    <glyph glyph-name="X" unicode="X" horiz-adv-x="767" 
d="M157 0h-112l279 357l-266 343h113l211 -272l214 272h113l-267 -343l281 -357h-114l-227 286z" />
    <glyph glyph-name="Y" unicode="Y" horiz-adv-x="748" 
d="M324 0v257l-276 443h104l222 -350l222 350h104l-276 -443v-257h-100z" />
    <glyph glyph-name="Z" unicode="Z" horiz-adv-x="749" 
d="M78 617v83h601v-51l-469 -566h475v-83h-615v51l468 566h-460z" />
    <glyph glyph-name="bracketleft" unicode="[" horiz-adv-x="336" 
d="M96 -125v875h169v-76h-75v-723h75v-76h-169z" />
    <glyph glyph-name="backslash" unicode="\" horiz-adv-x="373" 
d="M384 -100h-94l-300 825h93z" />
    <glyph glyph-name="bracketright" unicode="]" horiz-adv-x="336" 
d="M240 750v-875h-169v76h75v723h-75v76h169z" />
    <glyph glyph-name="asciicircum" unicode="^" horiz-adv-x="506" 
d="M51 570l207 156l206 -156l-47 -48l-159 119l-160 -119z" />
    <glyph glyph-name="underscore" unicode="_" horiz-adv-x="578" 
d="M576 -106h-575v77h575v-77z" />
    <glyph glyph-name="grave" unicode="`" horiz-adv-x="322" 
d="M63 691l56 59l147 -146l-37 -38z" />
    <glyph glyph-name="a" unicode="a" horiz-adv-x="556" 
d="M118 388l-46 48q78 70 193 70q97 0 157.5 -51t60.5 -133v-322h-94v100q-25 -48 -69.5 -76t-102.5 -28q-74 0 -121 40t-47 104q0 73 65.5 118t169.5 45q51 0 105 -8v24q0 50 -33 80.5t-86 30.5q-95 0 -152 -42zM389 232q-42 13 -96 13q-67 0 -109 -27t-42 -70
q0 -35 30 -56.5t77 -21.5q61 0 100.5 47t39.5 115z" />
    <glyph glyph-name="b" unicode="b" horiz-adv-x="598" 
d="M76 29v696h94v-325q25 48 72 76t108 28q88 0 143.5 -70.5t55.5 -183.5q0 -114 -79 -185t-206 -71q-110 0 -188 35zM312 428q-60 0 -100 -35.5t-42 -86.5v-220q47 -16 114 -16q76 0 123.5 50t47.5 129q0 81 -39.5 130t-103.5 49z" />
    <glyph glyph-name="c" unicode="c" horiz-adv-x="533" 
d="M442 119l51 -52q-71 -73 -188 -73q-114 0 -185 71t-71 185t71.5 185t185.5 71t187 -73l-51 -52q-47 49 -130 49q-76 0 -123 -50t-47 -130t47 -130t123 -50q84 0 130 49z" />
    <glyph glyph-name="d" unicode="d" horiz-adv-x="603" 
d="M433 471v254h93v-725h-93v118q-25 -57 -73 -89.5t-110 -32.5q-89 0 -145 67.5t-56 176.5q0 117 69 190.5t179 73.5q79 0 136 -33zM289 72q61 0 101.5 46.5t42.5 112.5v169q-53 28 -126 28t-119 -52.5t-46 -135.5q0 -75 41 -121.5t106 -46.5z" />
    <glyph glyph-name="e" unicode="e" horiz-adv-x="576" 
d="M527 222h-385q6 -69 54 -111t121 -42q86 0 134 50l52 -53q-74 -72 -192 -72q-116 0 -189.5 71t-73.5 185q0 113 67 184.5t173 71.5t172.5 -71t66.5 -185v-28zM143 287h290q-2 63 -42.5 103t-100.5 40q-58 0 -98.5 -39.5t-48.5 -103.5z" />
    <glyph glyph-name="f" unicode="f" horiz-adv-x="469" 
d="M442 676l-48 -50q-34 29 -81 29q-44 0 -72 -28t-28 -72v-55h180v-76h-180v-424h-93v424h-75v76h75v44q0 84 51 135.5t134 51.5q87 0 137 -55z" />
    <glyph glyph-name="g" unicode="g" horiz-adv-x="598" 
d="M71 -158l48 50q55 -47 147 -47q72 0 117 43.5t45 111.5v100q-25 -48 -72.5 -76t-107.5 -28q-89 0 -144 67.5t-55 176.5q0 118 79 192t205 74q112 0 188 -36v-470q0 -103 -71 -167t-184 -64q-120 0 -195 73zM428 197v217q-51 16 -111 16q-77 0 -126 -53t-49 -137
q0 -75 40.5 -121.5t104.5 -46.5q60 0 99.5 36.5t41.5 88.5z" />
    <glyph glyph-name="h" unicode="h" 
d="M443 0v297q0 60 -35 96.5t-91 36.5q-62 0 -103.5 -49.5t-43.5 -118.5v-262h-94v725h94v-342q27 56 76 89.5t110 33.5q80 0 130 -53.5t50 -139.5v-313h-93z" />
    <glyph glyph-name="i" unicode="i" horiz-adv-x="246" 
d="M170 0h-94v500h94v-500zM76 600v100h94v-100h-94z" />
    <glyph glyph-name="j" unicode="j" horiz-adv-x="286" 
d="M-88 -181l49 51q25 -25 70 -25q37 0 61 27t24 70v558h94v-554q0 -79 -47.5 -128t-124.5 -49q-76 0 -126 50zM116 600v100h94v-100h-94z" />
    <glyph glyph-name="k" unicode="k" horiz-adv-x="570" 
d="M170 0h-94v725h94v-451l217 226h112l-206 -218l239 -282h-107l-191 219l-64 -68v-151z" />
    <glyph glyph-name="l" unicode="l" horiz-adv-x="340" 
d="M259 84l49 -50q-37 -40 -98 -40q-59 0 -96.5 38.5t-37.5 99.5v593h94v-600q0 -24 14 -39.5t36 -15.5q23 0 39 14z" />
    <glyph glyph-name="m" unicode="m" horiz-adv-x="879" 
d="M393 0v316q0 51 -27 82.5t-71 31.5q-55 0 -90 -42t-35 -108v-280h-94v500h94v-88q25 44 67 69t95 25q45 0 80.5 -25t54.5 -69q57 94 172 94q73 0 118.5 -52.5t45.5 -137.5v-316h-94v316q0 51 -27 82.5t-70 31.5q-55 0 -90.5 -42t-35.5 -108v-280h-93z" />
    <glyph glyph-name="n" unicode="n" 
d="M443 0v297q0 60 -35 96.5t-91 36.5q-62 0 -103.5 -49.5t-43.5 -118.5v-262h-94v500h94v-117q27 56 76 89.5t110 33.5q80 0 130 -53.5t50 -139.5v-313h-93z" />
    <glyph glyph-name="o" unicode="o" 
d="M49 250q0 114 71.5 185t185.5 71q115 0 186.5 -71t71.5 -185t-71.5 -185t-186.5 -71q-114 0 -185.5 71t-71.5 185zM142 250q0 -79 46 -129.5t118 -50.5q73 0 118.5 50t45.5 130t-45.5 130t-118.5 50q-72 0 -118 -50.5t-46 -129.5z" />
    <glyph glyph-name="p" unicode="p" horiz-adv-x="603" 
d="M76 -225v725h93v-119q25 57 72.5 90t109.5 33q89 0 145.5 -71t56.5 -183q0 -113 -69 -183.5t-179 -70.5q-78 0 -136 32v-253h-93zM169 265v-165q58 -29 127 -29q73 0 118 50t45 129q0 80 -41 129t-106 49q-62 0 -102.5 -48t-40.5 -115z" />
    <glyph glyph-name="q" unicode="q" horiz-adv-x="598" 
d="M428 -225v325q-25 -48 -72.5 -76t-107.5 -28q-89 0 -144 67.5t-55 176.5q0 118 79 192t205 74q112 0 188 -36v-695h-93zM428 197v215q-50 18 -112 18q-77 0 -125.5 -53t-48.5 -137q0 -76 40 -122t105 -46q60 0 99.5 36.5t41.5 88.5z" />
    <glyph glyph-name="r" unicode="r" horiz-adv-x="416" 
d="M356 506v-82q-79 0 -131.5 -51.5t-54.5 -124.5v-248h-94v500h94v-136q25 65 74 103.5t112 38.5z" />
    <glyph glyph-name="s" unicode="s" horiz-adv-x="456" 
d="M406 146q0 -67 -55 -109.5t-132 -42.5q-102 0 -173 73l48 50q47 -47 125 -47q39 0 66.5 21t27.5 52q0 25 -26.5 42.5t-64 29.5t-75 27.5t-64 45.5t-26.5 74q0 64 48.5 104.5t119.5 40.5q101 0 169 -73l-49 -51q-44 47 -115 47q-35 0 -57 -18.5t-22 -46.5q0 -27 26.5 -46
t63.5 -31.5t74.5 -27.5t64 -43.5t26.5 -70.5z" />
    <glyph glyph-name="t" unicode="t" horiz-adv-x="476" 
d="M45 424v76h75v115h93v-115h177v-76h-177v-243q0 -49 29 -80t73 -31q46 0 78 30l49 -51q-50 -55 -137 -55q-83 0 -134 53t-51 138v239h-75z" />
    <glyph glyph-name="u" unicode="u" 
d="M170 500v-293q0 -61 35 -99t91 -38q64 0 105.5 51.5t41.5 123.5v255h93v-500h-93v116q-28 -56 -76.5 -89t-110.5 -33q-80 0 -130 55.5t-50 143.5v307h94z" />
    <glyph glyph-name="v" unicode="v" horiz-adv-x="636" 
d="M364 0h-95l-221 500h92l176 -398l177 398h92z" />
    <glyph glyph-name="w" unicode="w" horiz-adv-x="904" 
d="M318 0h-88l-181 500h90l137 -376l134 376h85l132 -376l138 376h90l-182 -500h-87l-134 368z" />
    <glyph glyph-name="x" unicode="x" horiz-adv-x="604" 
d="M149 0h-106l203 256l-193 244h107l141 -181l142 181h107l-194 -244l205 -256h-107l-153 192z" />
    <glyph glyph-name="y" unicode="y" horiz-adv-x="633" 
d="M585 500l-267 -593q-60 -138 -159 -138q-75 0 -121 46l48 49q20 -19 66 -19q29 0 49 24t41 70l28 62l-222 499h91l176 -392l178 392h92z" />
    <glyph glyph-name="z" unicode="z" horiz-adv-x="574" 
d="M73 424v76h429v-48l-314 -376h318v-76h-438v48l307 376h-302z" />
    <glyph glyph-name="braceleft" unicode="{" horiz-adv-x="399" 
d="M71 272v76q29 0 46.5 30t23 74.5t16.5 96.5t26 96.5t52 74.5t93 30v-76q-34 0 -52.5 -34t-26.5 -84t-15.5 -101t-28 -93t-55.5 -52q35 -10 55.5 -51.5t28 -92t15.5 -99.5t26.5 -82.5t52.5 -33.5v-76q-56 0 -93 29.5t-52 73.5t-26 95.5t-16.5 95.5t-23 73.5t-46.5 29.5z
" />
    <glyph glyph-name="bar" unicode="|" horiz-adv-x="246" 
d="M170 -100h-94v825h94v-825z" />
    <glyph glyph-name="braceright" unicode="}" horiz-adv-x="399" 
d="M328 348v-76q-29 0 -46 -29.5t-23 -73.5t-17 -95.5t-25.5 -95.5t-52 -73.5t-93.5 -29.5v76q34 0 53 33.5t26.5 82.5t15.5 99.5t28.5 92t55.5 51.5q-35 10 -55.5 52t-28.5 93t-16 101t-26.5 84t-52.5 34v76q56 0 93.5 -30t52 -74.5t25.5 -96.5t17 -96.5t23 -74.5t46 -30z
" />
    <glyph glyph-name="asciitilde" unicode="~" horiz-adv-x="482" 
d="M96 247l-48 50q58 61 120 61q29 0 77.5 -17t70.5 -17q37 0 70 30l48 -50q-57 -61 -117 -61q-28 0 -76.5 17t-71.5 17q-39 0 -73 -30z" />
    <glyph glyph-name="exclamdown" unicode="&#xa1;" horiz-adv-x="246" 
d="M76 359h94v-488h-94v488zM170 576v-122h-94v122h94z" />
    <glyph glyph-name="cent" unicode="&#xa2;" horiz-adv-x="533" 
d="M270 0v95q-100 12 -160.5 81t-60.5 174q0 104 60.5 173.5t160.5 80.5v96h60v-95q97 -7 163 -72l-51 -52q-40 42 -112 48v-358q72 6 112 48l51 -52q-65 -65 -163 -72v-95h-60zM270 176v347q-59 -14 -93.5 -60.5t-34.5 -112.5q0 -67 34.5 -114t93.5 -60z" />
    <glyph glyph-name="sterling" unicode="&#xa3;" horiz-adv-x="621" 
d="M61 295v76h53v133q0 91 63.5 146.5t159.5 55.5q134 0 227 -98l-52 -53q-67 72 -167 72q-62 0 -98 -37t-36 -96v-123h279v-76h-279v-215h352v-80h-502v80h53v215h-53z" />
    <glyph glyph-name="currency" unicode="&#xa4;" horiz-adv-x="549" 
d="M95 350q0 57 26 96l-79 79l56 59l80 -81q41 26 96 26t97 -25l80 80l57 -58l-80 -80q27 -43 27 -96q0 -54 -27 -97l80 -79l-57 -58l-80 80q-42 -25 -97 -25q-54 0 -96 25l-80 -80l-56 59l79 79q-26 39 -26 96zM166 350q0 -53 30.5 -86.5t78.5 -33.5q49 0 79 33.5t30 86.5
t-30 86.5t-79 33.5q-48 0 -78.5 -33.5t-30.5 -86.5z" />
    <glyph glyph-name="yen" unicode="&#xa5;" horiz-adv-x="748" 
d="M136 63v55h188v60h-188v55h188v24l-276 443h104l222 -350l222 350h104l-276 -443v-24h187v-55h-187v-60h187v-55h-187v-63h-100v63h-188z" />
    <glyph glyph-name="brokenbar" unicode="&#xa6;" horiz-adv-x="246" 
d="M170 725v-382h-94v382h94zM170 -100h-94v382h94v-382z" />
    <glyph glyph-name="section" unicode="&#xa7;" horiz-adv-x="572" 
d="M514 227q0 -81 -55 -136q55 -48 55 -114q0 -93 -70 -150.5t-174 -57.5q-130 0 -225 101l51 53q66 -71 172 -71q63 0 104.5 33t41.5 85q0 39 -36.5 65.5t-88.5 44t-104.5 39t-89 63.5t-36.5 104q0 77 51 130q-51 46 -51 120q0 88 62 141.5t157 53.5q130 0 223 -101
l-50 -54q-66 72 -164 72q-60 0 -94 -29.5t-34 -77.5q0 -36 26.5 -63t65.5 -42t85.5 -33t85.5 -37t65.5 -54.5t26.5 -84.5zM414 220q0 30 -23 53t-50.5 34t-76 28.5t-73.5 29.5q-32 -29 -32 -74q0 -26 12.5 -46t37.5 -35t48 -25t60.5 -24t57.5 -23q39 32 39 82z" />
    <glyph glyph-name="dieresis" unicode="&#xa8;" horiz-adv-x="474" 
d="M76 600v100h94v-100h-94zM305 600v100h93v-100h-93z" />
    <glyph glyph-name="copyright" unicode="&#xa9;" horiz-adv-x="809" 
d="M49 350q0 158 98.5 257t256.5 99t257 -99t99 -257t-99 -257t-257 -99t-256.5 99t-98.5 257zM122 350q0 -129 79 -211.5t202 -82.5q125 0 203.5 82.5t78.5 211.5t-78.5 211.5t-203.5 82.5q-123 0 -202 -82.5t-79 -211.5zM519 257l38 -37q-55 -58 -147 -58
q-84 0 -136.5 52.5t-52.5 136.5q0 83 53 135.5t137 52.5q89 0 146 -57l-38 -38q-37 39 -104 39q-55 0 -89.5 -36.5t-34.5 -95.5t34.5 -96t89.5 -37q67 0 104 39z" />
    <glyph glyph-name="ordfeminine" unicode="&#xaa;" horiz-adv-x="454" 
d="M281 350v66q-36 -69 -117 -69q-51 0 -83 28t-32 74q0 50 45 81t117 31q39 0 70 -4v5q0 41 -25 64t-66 23q-57 0 -98 -29l-34 34q48 50 130 50q71 0 116.5 -39.5t45.5 -102.5v-212h-69zM281 509q-25 10 -64 10q-45 0 -73.5 -18t-28.5 -47q0 -23 20.5 -38t52.5 -15
q41 0 67 31t26 77z" />
    <glyph glyph-name="guillemotleft" unicode="&#xab;" horiz-adv-x="651" 
d="M276 64l-210 211l210 211l57 -59l-153 -152l153 -152zM518 64l-210 211l210 211l57 -59l-153 -152l153 -152z" />
    <glyph glyph-name="logicalnot" unicode="&#xac;" horiz-adv-x="652" 
d="M576 174h-93v153h-407v76h500v-229z" />
    <glyph glyph-name="uni00AD" unicode="&#xad;" horiz-adv-x="396" 
d="M320 252h-244v76h244v-76z" />
    <glyph glyph-name="registered" unicode="&#xae;" horiz-adv-x="460" 
d="M49 525q0 80 50 130.5t131 50.5q80 0 131 -50.5t51 -130.5t-51 -130.5t-131 -50.5q-81 0 -131 50.5t-50 130.5zM89 525q0 -64 39.5 -105t101.5 -41t101 40.5t39 105.5t-39 105.5t-101 40.5t-101.5 -41t-39.5 -105zM272 433l-56 76h-22v-76h-29v185h76q25 0 40 -15t15 -39
q0 -23 -13 -38t-35 -17l57 -76h-33zM194 594v-60h44q12 0 20 8.5t8 21.5t-8 21.5t-20 8.5h-44z" />
    <glyph glyph-name="macron" unicode="&#xaf;" horiz-adv-x="480" 
d="M403 638h-327v62h327v-62z" />
    <glyph glyph-name="degree" unicode="&#xb0;" horiz-adv-x="414" 
d="M49 569q0 71 44 115t115 44q70 0 114 -44t44 -115q0 -70 -44 -113.5t-114 -43.5q-71 0 -115 43.5t-44 113.5zM128 569q0 -38 22.5 -62t57.5 -24t57.5 24t22.5 62q0 39 -22.5 63.5t-57.5 24.5t-57.5 -24.5t-22.5 -63.5z" />
    <glyph glyph-name="plusminus" unicode="&#xb1;" horiz-adv-x="578" 
d="M328 648v-175h173v-77h-173v-174h-80v174h-172v77h172v175h80zM501 90h-425v76h425v-76z" />
    <glyph glyph-name="twosuperior" unicode="&#xb2;" horiz-adv-x="315" 
d="M56 375v40q6 4 17 12t38.5 31t48.5 45t38 51t17 52q0 27 -16 43.5t-45 16.5q-46 0 -77 -33l-26 27q45 47 108 47q45 0 75 -26.5t30 -68.5q0 -34 -21 -71t-50.5 -64t-49 -42.5t-26.5 -19.5h153v-40h-214z" />
    <glyph glyph-name="threesuperior" unicode="&#xb3;" horiz-adv-x="317" 
d="M158 372q-68 0 -111 46l26 28q27 -34 82 -34q30 0 48.5 16t18.5 41q0 26 -19 43t-48 17h-22v37h23q25 0 41 14t16 35t-16.5 34.5t-41.5 13.5q-49 0 -77 -34l-26 28q39 47 107 47q46 0 74 -23t28 -59q0 -53 -57 -74q67 -23 67 -84q0 -41 -31.5 -66.5t-81.5 -25.5z" />
    <glyph glyph-name="acute" unicode="&#xb4;" horiz-adv-x="321" 
d="M208 750l57 -59l-166 -125l-37 38z" />
    <glyph glyph-name="mu" unicode="&#xb5;" 
d="M170 500v-293q0 -61 35 -99t91 -38q63 0 104 50t43 121v259h93v-500h-93v118q-27 -57 -75.5 -90.5t-111.5 -33.5q-55 0 -88 36v-255h-92v725h94z" />
    <glyph glyph-name="paragraph" unicode="&#xb6;" horiz-adv-x="653" 
d="M597 700v-83h-80v-792h-94v792h-118v-792h-94v525q-77 0 -125.5 49t-48.5 126t48.5 126t125.5 49h386z" />
    <glyph glyph-name="periodcentered" unicode="&#xb7;" horiz-adv-x="246" 
d="M76 239v122h94v-122h-94z" />
    <glyph glyph-name="cedilla" unicode="&#xb8;" horiz-adv-x="299" 
d="M55 -159q6 6 17 17.5t17 17.5q26 -28 53 -28q19 0 30 8.5t11 21.5q0 11 -7 18.5t-17 14t-20 15.5t-17 28t-7 46h52q0 -29 11 -46t23.5 -21.5t23.5 -19.5t11 -41q0 -33 -25.5 -53.5t-65.5 -20.5q-52 0 -90 43z" />
    <glyph glyph-name="onesuperior" unicode="&#xb9;" horiz-adv-x="273" 
d="M48 634l110 66h48v-325h-48v272l-89 -50z" />
    <glyph glyph-name="ordmasculine" unicode="&#xba;" horiz-adv-x="458" 
d="M49 525q0 79 49.5 129t129.5 50t130.5 -50t50.5 -129t-50.5 -129t-130.5 -50t-129.5 50t-49.5 129zM116 525q0 -55 31.5 -89.5t81.5 -34.5t81 34.5t31 89.5t-31 89.5t-81 34.5t-81.5 -34.5t-31.5 -89.5z" />
    <glyph glyph-name="guillemotright" unicode="&#xbb;" horiz-adv-x="652" 
d="M132 486l210 -211l-210 -211l-57 59l153 152l-153 152zM374 486l210 -211l-210 -211l-57 59l153 152l-153 152z" />
    <glyph glyph-name="questiondown" unicode="&#xbf;" horiz-adv-x="523" 
d="M317 576v-122h-93v122h93zM224 359h93q0 -62 -18 -104t-43 -62.5t-50.5 -37t-43.5 -41t-18 -61.5q0 -45 35.5 -75.5t94.5 -30.5q93 0 161 75l49 -50q-93 -101 -220 -101q-94 0 -153.5 49.5t-59.5 129.5q0 51 18 86t43.5 54t50.5 38t43 51t18 80z" />
    <glyph glyph-name="Agrave" unicode="&#xc0;" horiz-adv-x="845" 
d="M372 700h102l323 -700h-98l-85 181h-382l-85 -181h-99zM423 594l-155 -330h310zM321 891l56 59l147 -146l-37 -38z" />
    <glyph glyph-name="Aacute" unicode="&#xc1;" horiz-adv-x="845" 
d="M372 700h102l323 -700h-98l-85 181h-382l-85 -181h-99zM423 594l-155 -330h310zM466 950l57 -59l-166 -125l-37 38z" />
    <glyph glyph-name="Acircumflex" unicode="&#xc2;" horiz-adv-x="845" 
d="M372 700h102l323 -700h-98l-85 181h-382l-85 -181h-99zM423 594l-155 -330h310zM259 835l163 115l163 -115l-47 -48l-116 83l-116 -83z" />
    <glyph glyph-name="Atilde" unicode="&#xc3;" horiz-adv-x="845" 
d="M372 700h102l323 -700h-98l-85 181h-382l-85 -181h-99zM423 594l-155 -330h310zM271 818l-39 39q59 62 120 62q28 0 77 -17.5t72 -17.5q37 0 69 31l39 -40q-57 -61 -117 -61q-28 0 -77 17t-72 17q-39 0 -72 -30z" />
    <glyph glyph-name="Adieresis" unicode="&#xc4;" horiz-adv-x="845" 
d="M372 700h102l323 -700h-98l-85 181h-382l-85 -181h-99zM423 594l-155 -330h310zM260 800v100h94v-100h-94zM489 800v100h93v-100h-93z" />
    <glyph glyph-name="Aring" unicode="&#xc5;" horiz-adv-x="845" 
d="M372 700h102l323 -700h-98l-85 181h-382l-85 -181h-99zM423 594l-155 -330h310zM342 871q0 36 22 58.5t57 22.5t57 -22t22 -59q0 -36 -22 -58t-57 -22t-57 22t-22 58zM378 871q0 -19 12 -30.5t31 -11.5t30.5 11.5t11.5 30.5t-11.5 31t-30.5 12t-31 -12t-12 -31z" />
    <glyph glyph-name="AE" unicode="&#xc6;" horiz-adv-x="921" 
d="M48 0l324 700h481v-83h-333v-219h304v-83h-304v-232h341v-83h-442v181h-187l-85 -181h-99zM268 264h151v323z" />
    <glyph glyph-name="Ccedilla" unicode="&#xc7;" horiz-adv-x="722" 
d="M300 -159q6 6 17 17.5t17 17.5q26 -28 53 -28q19 0 30 8.5t11 21.5t-10.5 23t-23 16.5t-23.5 27t-11 52.5q-141 14 -226 110t-85 243q0 158 99.5 257t257.5 99t261 -101l-59 -61q-70 79 -197 79q-117 0 -189.5 -76t-72.5 -197t72.5 -197t189.5 -76q129 0 197 79l59 -61
q-96 -98 -255 -101q1 -27 12 -42t23.5 -20t23 -19.5t10.5 -40.5q0 -33 -25.5 -53.5t-65.5 -20.5q-52 0 -90 43z" />
    <glyph glyph-name="Egrave" unicode="&#xc8;" horiz-adv-x="631" 
d="M76 0v700h484v-83h-383v-219h354v-83h-354v-232h391v-83h-492zM217 891l56 59l147 -146l-37 -38z" />
    <glyph glyph-name="Eacute" unicode="&#xc9;" horiz-adv-x="631" 
d="M76 0v700h484v-83h-383v-219h354v-83h-354v-232h391v-83h-492zM363 950l57 -59l-166 -125l-37 38z" />
    <glyph glyph-name="Ecircumflex" unicode="&#xca;" horiz-adv-x="631" 
d="M76 0v700h484v-83h-383v-219h354v-83h-354v-232h391v-83h-492zM155 835l163 115l163 -115l-47 -48l-116 83l-116 -83z" />
    <glyph glyph-name="Edieresis" unicode="&#xcb;" horiz-adv-x="631" 
d="M76 0v700h484v-83h-383v-219h354v-83h-354v-232h391v-83h-492zM157 800v100h94v-100h-94zM386 800v100h93v-100h-93z" />
    <glyph glyph-name="Igrave" unicode="&#xcc;" horiz-adv-x="253" 
d="M177 0h-101v700h101v-700zM26 891l56 59l147 -146l-37 -38z" />
    <glyph glyph-name="Iacute" unicode="&#xcd;" horiz-adv-x="253" 
d="M177 0h-101v700h101v-700zM172 950l57 -59l-166 -125l-37 38z" />
    <glyph glyph-name="Icircumflex" unicode="&#xce;" horiz-adv-x="253" 
d="M177 0h-101v700h101v-700zM-36 835l163 115l163 -115l-47 -48l-116 83l-116 -83z" />
    <glyph glyph-name="Idieresis" unicode="&#xcf;" horiz-adv-x="253" 
d="M177 0h-101v700h101v-700zM-34 800v100h94v-100h-94zM195 800v100h93v-100h-93z" />
    <glyph glyph-name="Eth" unicode="&#xd0;" horiz-adv-x="846" 
d="M176 0v315h-100v83h100v302h271q155 0 252.5 -97.5t97.5 -252.5t-97.5 -252.5t-252.5 -97.5h-271zM501 315h-224v-232h170q110 0 180 75t70 192t-70 192t-180 75h-170v-219h224v-83z" />
    <glyph glyph-name="Ntilde" unicode="&#xd1;" horiz-adv-x="764" 
d="M588 0l-411 542v-542h-101v700h101l411 -542v542h100v-700h-100zM231 818l-39 39q59 62 120 62q28 0 77 -17.5t72 -17.5q37 0 69 31l39 -40q-57 -61 -117 -61q-28 0 -77 17t-72 17q-39 0 -72 -30z" />
    <glyph glyph-name="Ograve" unicode="&#xd2;" horiz-adv-x="809" 
d="M49 350q0 158 98.5 257t256.5 99t257 -99t99 -257t-99 -257t-257 -99t-256.5 99t-98.5 257zM149 350q0 -120 71.5 -196.5t183.5 -76.5q113 0 184.5 76.5t71.5 196.5t-71.5 196.5t-184.5 76.5q-112 0 -183.5 -76.5t-71.5 -196.5zM302 891l56 59l147 -146l-37 -38z" />
    <glyph glyph-name="Oacute" unicode="&#xd3;" horiz-adv-x="809" 
d="M49 350q0 158 98.5 257t256.5 99t257 -99t99 -257t-99 -257t-257 -99t-256.5 99t-98.5 257zM149 350q0 -120 71.5 -196.5t183.5 -76.5q113 0 184.5 76.5t71.5 196.5t-71.5 196.5t-184.5 76.5q-112 0 -183.5 -76.5t-71.5 -196.5zM448 950l57 -59l-166 -125l-37 38z" />
    <glyph glyph-name="Ocircumflex" unicode="&#xd4;" horiz-adv-x="809" 
d="M49 350q0 158 98.5 257t256.5 99t257 -99t99 -257t-99 -257t-257 -99t-256.5 99t-98.5 257zM149 350q0 -120 71.5 -196.5t183.5 -76.5q113 0 184.5 76.5t71.5 196.5t-71.5 196.5t-184.5 76.5q-112 0 -183.5 -76.5t-71.5 -196.5zM240 835l163 115l163 -115l-47 -48
l-116 83l-116 -83z" />
    <glyph glyph-name="Otilde" unicode="&#xd5;" horiz-adv-x="809" 
d="M49 350q0 158 98.5 257t256.5 99t257 -99t99 -257t-99 -257t-257 -99t-256.5 99t-98.5 257zM149 350q0 -120 71.5 -196.5t183.5 -76.5q113 0 184.5 76.5t71.5 196.5t-71.5 196.5t-184.5 76.5q-112 0 -183.5 -76.5t-71.5 -196.5zM254 818l-39 39q59 62 120 62
q28 0 77 -17.5t72 -17.5q37 0 69 31l39 -40q-57 -61 -117 -61q-28 0 -77 17t-72 17q-39 0 -72 -30z" />
    <glyph glyph-name="Odieresis" unicode="&#xd6;" horiz-adv-x="809" 
d="M49 350q0 158 98.5 257t256.5 99t257 -99t99 -257t-99 -257t-257 -99t-256.5 99t-98.5 257zM149 350q0 -120 71.5 -196.5t183.5 -76.5q113 0 184.5 76.5t71.5 196.5t-71.5 196.5t-184.5 76.5q-112 0 -183.5 -76.5t-71.5 -196.5zM242 800v100h94v-100h-94zM471 800v100h93
v-100h-93z" />
    <glyph glyph-name="multiply" unicode="&#xd7;" horiz-adv-x="578" 
d="M492 506l-147 -146l147 -146l-57 -58l-147 145l-146 -145l-57 59l146 145l-146 145l57 59l146 -145l147 145z" />
    <glyph glyph-name="Oslash" unicode="&#xd8;" horiz-adv-x="809" 
d="M221 -50h-95l62 109q-66 47 -102.5 122t-36.5 169q0 158 98.5 257t256.5 99q77 0 143 -26l41 70h94l-63 -109q67 -47 104 -122.5t37 -168.5q0 -158 -99 -257t-257 -99q-77 0 -143 26zM660 350q0 131 -87 207l-269 -461q48 -19 100 -19q113 0 184.5 76.5t71.5 196.5z
M149 350q0 -131 87 -207l269 460q-46 20 -101 20q-112 0 -183.5 -76.5t-71.5 -196.5z" />
    <glyph glyph-name="Ugrave" unicode="&#xd9;" horiz-adv-x="772" 
d="M595 307v393h100v-393q0 -146 -84 -229.5t-226 -83.5q-141 0 -225 83.5t-84 229.5v393h101v-393q0 -103 57.5 -166.5t150.5 -63.5q95 0 152.5 63.5t57.5 166.5zM284 891l56 59l147 -146l-37 -38z" />
    <glyph glyph-name="Uacute" unicode="&#xda;" horiz-adv-x="772" 
d="M595 307v393h100v-393q0 -146 -84 -229.5t-226 -83.5q-141 0 -225 83.5t-84 229.5v393h101v-393q0 -103 57.5 -166.5t150.5 -63.5q95 0 152.5 63.5t57.5 166.5zM430 950l57 -59l-166 -125l-37 38z" />
    <glyph glyph-name="Ucircumflex" unicode="&#xdb;" horiz-adv-x="772" 
d="M595 307v393h100v-393q0 -146 -84 -229.5t-226 -83.5q-141 0 -225 83.5t-84 229.5v393h101v-393q0 -103 57.5 -166.5t150.5 -63.5q95 0 152.5 63.5t57.5 166.5zM222 835l163 115l163 -115l-47 -48l-116 83l-116 -83z" />
    <glyph glyph-name="Udieresis" unicode="&#xdc;" horiz-adv-x="772" 
d="M595 307v393h100v-393q0 -146 -84 -229.5t-226 -83.5q-141 0 -225 83.5t-84 229.5v393h101v-393q0 -103 57.5 -166.5t150.5 -63.5q95 0 152.5 63.5t57.5 166.5zM224 800v100h94v-100h-94zM453 800v100h93v-100h-93z" />
    <glyph glyph-name="Yacute" unicode="&#xdd;" horiz-adv-x="748" 
d="M324 0v257l-276 443h104l222 -350l222 350h104l-276 -443v-257h-100zM418 950l57 -59l-166 -125l-37 38z" />
    <glyph glyph-name="Thorn" unicode="&#xde;" horiz-adv-x="606" 
d="M76 0v700h101v-114h158q98 0 160 -62t62 -161t-62 -161t-160 -62h-158v-140h-101zM325 502h-148v-278h148q58 0 95 38.5t37 100.5t-37 100.5t-95 38.5z" />
    <glyph glyph-name="germandbls" unicode="&#xdf;" horiz-adv-x="645" 
d="M596 146q0 -67 -54 -109.5t-130 -42.5q-100 0 -170 73l48 50q45 -47 121 -47q38 0 64.5 21t26.5 52q0 25 -25.5 43t-62 31.5t-73.5 29.5t-62.5 47.5t-25.5 75.5q0 26 11.5 50t28.5 41.5t33.5 33.5t28 33.5t11.5 33.5q0 41 -27.5 67t-69.5 26q-43 0 -71 -28t-28 -72v-555
h-94v544q0 84 52.5 135.5t137.5 51.5q84 0 139 -49.5t55 -122.5q0 -26 -11.5 -47.5t-28 -36.5t-33 -29t-28 -33.5t-11.5 -42.5q0 -28 25.5 -48t62 -33t73 -28t62 -44t25.5 -71z" />
    <glyph glyph-name="agrave" unicode="&#xe0;" horiz-adv-x="551" 
d="M115 388l-47 48q79 70 193 70q97 0 158 -51t61 -133v-322h-94v100q-25 -48 -69.5 -76t-103.5 -28q-74 0 -121 40t-47 104q0 73 65.5 118t170.5 45q51 0 105 -8v24q0 50 -33 80.5t-86 30.5q-95 0 -152 -42zM386 232q-42 13 -96 13q-67 0 -109 -27t-42 -70q0 -35 30 -56.5
t77 -21.5q61 0 100.5 47t39.5 115zM164 691l56 59l147 -146l-37 -38z" />
    <glyph glyph-name="aacute" unicode="&#xe1;" horiz-adv-x="551" 
d="M115 388l-46 48q78 70 193 70q97 0 157.5 -51t60.5 -133v-322h-94v100q-25 -48 -69.5 -76t-102.5 -28q-74 0 -121 40t-47 104q0 73 65.5 118t169.5 45q51 0 105 -8v24q0 50 -33 80.5t-86 30.5q-95 0 -152 -42zM386 232q-42 13 -96 13q-67 0 -109 -27t-42 -70
q0 -35 30 -56.5t77 -21.5q61 0 100.5 47t39.5 115zM310 750l57 -59l-166 -125l-37 38z" />
    <glyph glyph-name="acircumflex" unicode="&#xe2;" horiz-adv-x="551" 
d="M115 388l-46 48q78 70 193 70q97 0 157.5 -51t60.5 -133v-322h-94v100q-25 -48 -69.5 -76t-102.5 -28q-74 0 -121 40t-47 104q0 73 65.5 118t169.5 45q51 0 105 -8v24q0 50 -33 80.5t-86 30.5q-95 0 -152 -42zM386 232q-42 13 -96 13q-67 0 -109 -27t-42 -70
q0 -35 30 -56.5t77 -21.5q61 0 100.5 47t39.5 115zM101 635l163 115l163 -115l-47 -48l-116 83l-116 -83z" />
    <glyph glyph-name="atilde" unicode="&#xe3;" horiz-adv-x="551" 
d="M115 388l-46 48q78 70 193 70q97 0 157.5 -51t60.5 -133v-322h-94v100q-25 -48 -69.5 -76t-102.5 -28q-74 0 -121 40t-47 104q0 73 65.5 118t169.5 45q51 0 105 -8v24q0 50 -33 80.5t-86 30.5q-95 0 -152 -42zM386 232q-42 13 -96 13q-67 0 -109 -27t-42 -70
q0 -35 30 -56.5t77 -21.5q61 0 100.5 47t39.5 115zM117 618l-39 39q59 62 120 62q28 0 77 -17.5t72 -17.5q37 0 69 31l39 -40q-57 -61 -117 -61q-28 0 -77 17t-72 17q-39 0 -72 -30z" />
    <glyph glyph-name="adieresis" unicode="&#xe4;" horiz-adv-x="551" 
d="M115 388l-46 48q78 70 193 70q97 0 157.5 -51t60.5 -133v-322h-94v100q-25 -48 -69.5 -76t-102.5 -28q-74 0 -121 40t-47 104q0 73 65.5 118t169.5 45q51 0 105 -8v24q0 50 -33 80.5t-86 30.5q-95 0 -152 -42zM386 232q-42 13 -96 13q-67 0 -109 -27t-42 -70
q0 -35 30 -56.5t77 -21.5q61 0 100.5 47t39.5 115zM104 600v100h94v-100h-94zM333 600v100h93v-100h-93z" />
    <glyph glyph-name="aring" unicode="&#xe5;" horiz-adv-x="551" 
d="M115 388l-46 48q78 70 193 70q97 0 157.5 -51t60.5 -133v-322h-94v100q-25 -48 -69.5 -76t-102.5 -28q-74 0 -121 40t-47 104q0 73 65.5 118t169.5 45q51 0 105 -8v24q0 50 -33 80.5t-86 30.5q-95 0 -152 -42zM386 232q-42 13 -96 13q-67 0 -109 -27t-42 -70
q0 -35 30 -56.5t77 -21.5q61 0 100.5 47t39.5 115zM186 671q0 36 22 58.5t57 22.5t57 -22t22 -59q0 -36 -22 -58t-57 -22t-57 22t-22 58zM222 671q0 -19 12 -30.5t31 -11.5t30.5 11.5t11.5 30.5t-11.5 31t-30.5 12t-31 -12t-12 -31z" />
    <glyph glyph-name="ae" unicode="&#xe6;" horiz-adv-x="912" 
d="M864 222h-385q6 -68 54 -110.5t121 -42.5q85 0 135 50l51 -53q-72 -72 -191 -72q-72 0 -128 28.5t-87 79.5q-59 -106 -207 -106q-79 0 -129 39.5t-50 103.5q0 72 65 117t168 45q52 0 105 -8v11q0 124 -140 124q-72 0 -130 -40l-47 48q73 70 191 70q60 0 107.5 -25
t72.5 -68q64 93 186 93q106 0 172 -71t66 -185v-28zM481 287h289q-1 63 -41.5 103t-100.5 40q-59 0 -99 -39.5t-48 -103.5zM386 229q-40 15 -96 15q-65 0 -106.5 -27t-41.5 -69q0 -36 29.5 -57.5t75.5 -21.5q60 0 98.5 45.5t40.5 114.5z" />
    <glyph glyph-name="ccedilla" unicode="&#xe7;" horiz-adv-x="533" 
d="M199 -159q5 6 16 17l18 18q26 -28 53 -28q19 0 30 8.5t11 21.5t-10.5 23t-23 16.5t-23.5 27.5t-11 53q-96 14 -153 82t-57 170q0 114 71.5 185t185.5 71t187 -73l-51 -52q-47 49 -130 49q-76 0 -123 -50t-47 -130t47 -130t123 -50q84 0 130 49l51 -52q-68 -70 -182 -73
q1 -27 12 -42t23.5 -20t23 -19.5t10.5 -40.5q0 -33 -25.5 -53.5t-65.5 -20.5q-52 0 -90 43z" />
    <glyph glyph-name="egrave" unicode="&#xe8;" horiz-adv-x="576" 
d="M527 222h-385q6 -69 54 -111t121 -42q86 0 134 50l52 -53q-74 -72 -192 -72q-116 0 -189.5 71t-73.5 185q0 113 67 184.5t173 71.5t172.5 -71t66.5 -185v-28zM143 287h290q-2 63 -42.5 103t-100.5 40q-58 0 -98.5 -39.5t-48.5 -103.5zM186 691l56 59l147 -146l-37 -38z
" />
    <glyph glyph-name="eacute" unicode="&#xe9;" horiz-adv-x="576" 
d="M527 222h-385q6 -69 54 -111t121 -42q86 0 134 50l52 -53q-74 -72 -192 -72q-116 0 -189.5 71t-73.5 185q0 113 67 184.5t173 71.5t172.5 -71t66.5 -185v-28zM143 287h290q-2 63 -42.5 103t-100.5 40q-58 0 -98.5 -39.5t-48.5 -103.5zM332 750l57 -59l-166 -125l-37 38z
" />
    <glyph glyph-name="ecircumflex" unicode="&#xea;" horiz-adv-x="576" 
d="M527 222h-385q6 -69 54 -111t121 -42q86 0 134 50l52 -53q-74 -72 -192 -72q-116 0 -189.5 71t-73.5 185q0 113 67 184.5t173 71.5t172.5 -71t66.5 -185v-28zM143 287h290q-2 63 -42.5 103t-100.5 40q-58 0 -98.5 -39.5t-48.5 -103.5zM124 635l163 115l163 -115l-47 -48
l-116 83l-116 -83z" />
    <glyph glyph-name="edieresis" unicode="&#xeb;" horiz-adv-x="576" 
d="M527 222h-385q6 -69 54 -111t121 -42q86 0 134 50l52 -53q-74 -72 -192 -72q-116 0 -189.5 71t-73.5 185q0 113 67 184.5t173 71.5t172.5 -71t66.5 -185v-28zM143 287h290q-2 63 -42.5 103t-100.5 40q-58 0 -98.5 -39.5t-48.5 -103.5zM126 600v100h94v-100h-94zM355 600
v100h93v-100h-93z" />
    <glyph glyph-name="igrave" unicode="&#xec;" horiz-adv-x="246" 
d="M170 0h-94v500h94v-500zM23 691l56 59l147 -146l-37 -38z" />
    <glyph glyph-name="iacute" unicode="&#xed;" horiz-adv-x="246" 
d="M170 0h-94v500h94v-500zM169 750l57 -59l-166 -125l-37 38z" />
    <glyph glyph-name="icircumflex" unicode="&#xee;" horiz-adv-x="246" 
d="M170 0h-94v500h94v-500zM-40 635l163 115l163 -115l-47 -48l-116 83l-116 -83z" />
    <glyph glyph-name="idieresis" unicode="&#xef;" horiz-adv-x="246" 
d="M170 0h-94v500h94v-500zM-37 600v100h94v-100h-94zM192 600v100h93v-100h-93z" />
    <glyph glyph-name="eth" unicode="&#xf0;" 
d="M351 546h-69l56 76q-42 24 -92 38t-80 16l-29 3l52 54q97 0 191 -50l32 42h68l-52 -72q136 -101 136 -303v-100q0 -114 -68.5 -185t-177.5 -71q-111 0 -180.5 71t-69.5 185q0 113 61 183.5t156 70.5q61 0 110.5 -30.5t75.5 -82.5q0 123 -88 199zM471 249q0 79 -43 129
t-111 50q-69 0 -112 -50t-43 -129t43 -129t112 -50q69 1 111.5 50.5t42.5 128.5z" />
    <glyph glyph-name="ntilde" unicode="&#xf1;" 
d="M443 0v297q0 60 -35 96.5t-91 36.5q-62 0 -103.5 -49.5t-43.5 -118.5v-262h-94v500h94v-117q27 56 76 89.5t110 33.5q80 0 130 -53.5t50 -139.5v-313h-93zM155 618l-39 39q59 62 120 62q28 0 77 -17.5t72 -17.5q37 0 69 31l39 -40q-57 -61 -117 -61q-28 0 -77 17t-72 17
q-39 0 -72 -30z" />
    <glyph glyph-name="ograve" unicode="&#xf2;" 
d="M49 250q0 114 71.5 185t185.5 71q115 0 186.5 -71t71.5 -185t-71.5 -185t-186.5 -71q-114 0 -185.5 71t-71.5 185zM142 250q0 -79 46 -129.5t118 -50.5q73 0 118.5 50t45.5 130t-45.5 130t-118.5 50q-72 0 -118 -50.5t-46 -129.5zM204 691l56 59l147 -146l-37 -38z" />
    <glyph glyph-name="oacute" unicode="&#xf3;" 
d="M49 250q0 114 71.5 185t185.5 71q115 0 186.5 -71t71.5 -185t-71.5 -185t-186.5 -71q-114 0 -185.5 71t-71.5 185zM142 250q0 -79 46 -129.5t118 -50.5q73 0 118.5 50t45.5 130t-45.5 130t-118.5 50q-72 0 -118 -50.5t-46 -129.5zM350 750l57 -59l-166 -125l-37 38z" />
    <glyph glyph-name="ocircumflex" unicode="&#xf4;" 
d="M49 250q0 114 71.5 185t185.5 71q115 0 186.5 -71t71.5 -185t-71.5 -185t-186.5 -71q-114 0 -185.5 71t-71.5 185zM142 250q0 -79 46 -129.5t118 -50.5q73 0 118.5 50t45.5 130t-45.5 130t-118.5 50q-72 0 -118 -50.5t-46 -129.5zM143 635l163 115l163 -115l-47 -48
l-116 83l-116 -83z" />
    <glyph glyph-name="otilde" unicode="&#xf5;" 
d="M49 250q0 114 71.5 185t185.5 71q115 0 186.5 -71t71.5 -185t-71.5 -185t-186.5 -71q-114 0 -185.5 71t-71.5 185zM142 250q0 -79 46 -129.5t118 -50.5q73 0 118.5 50t45.5 130t-45.5 130t-118.5 50q-72 0 -118 -50.5t-46 -129.5zM155 618l-39 39q59 62 120 62
q28 0 77 -17.5t72 -17.5q37 0 69 31l39 -40q-57 -61 -117 -61q-28 0 -77 17t-72 17q-39 0 -72 -30z" />
    <glyph glyph-name="odieresis" unicode="&#xf6;" 
d="M49 250q0 114 71.5 185t185.5 71q115 0 186.5 -71t71.5 -185t-71.5 -185t-186.5 -71q-114 0 -185.5 71t-71.5 185zM142 250q0 -79 46 -129.5t118 -50.5q73 0 118.5 50t45.5 130t-45.5 130t-118.5 50q-72 0 -118 -50.5t-46 -129.5zM144 600v100h94v-100h-94zM373 600v100
h93v-100h-93z" />
    <glyph glyph-name="divide" unicode="&#xf7;" horiz-adv-x="578" 
d="M501 322h-425v76h425v-76zM241 135v112h94v-112h-94zM241 473v112h94v-112h-94z" />
    <glyph glyph-name="oslash" unicode="&#xf8;" 
d="M174 -50h-81l53 93q-97 72 -97 207q0 114 71.5 185t185.5 71q50 0 98 -16l35 60h81l-54 -94q98 -71 98 -206q0 -114 -71.5 -185t-186.5 -71q-56 0 -97 16zM470 250q0 78 -49 125l-173 -295q24 -10 58 -10q73 0 118.5 50t45.5 130zM142 250q0 -79 49 -126l173 295
q-27 11 -58 11q-72 0 -118 -50.5t-46 -129.5z" />
    <glyph glyph-name="ugrave" unicode="&#xf9;" 
d="M170 500v-293q0 -61 35 -99t91 -38q64 0 105.5 51.5t41.5 123.5v255h93v-500h-93v116q-28 -56 -76.5 -89t-110.5 -33q-80 0 -130 55.5t-50 143.5v307h94zM205 691l56 59l147 -146l-37 -38z" />
    <glyph glyph-name="uacute" unicode="&#xfa;" 
d="M170 500v-293q0 -61 35 -99t91 -38q62 0 103.5 49.5t43.5 118.5v262h93v-500h-93v116q-28 -56 -76.5 -89t-110.5 -33q-80 0 -130 55.5t-50 143.5v307h94zM350 750l57 -59l-166 -125l-37 38z" />
    <glyph glyph-name="ucircumflex" unicode="&#xfb;" 
d="M170 500v-293q0 -61 35 -99t91 -38q62 0 103.5 49.5t43.5 118.5v262h93v-500h-93v116q-28 -56 -76.5 -89t-110.5 -33q-80 0 -130 55.5t-50 143.5v307h94zM143 635l163 115l163 -115l-47 -48l-116 83l-116 -83z" />
    <glyph glyph-name="udieresis" unicode="&#xfc;" 
d="M170 500v-293q0 -61 35 -99t91 -38q62 0 103.5 49.5t43.5 118.5v262h93v-500h-93v116q-28 -56 -76.5 -89t-110.5 -33q-80 0 -130 55.5t-50 143.5v307h94zM144 600v100h94v-100h-94zM373 600v100h93v-100h-93z" />
    <glyph glyph-name="yacute" unicode="&#xfd;" horiz-adv-x="633" 
d="M585 500l-267 -593q-60 -138 -159 -138q-75 0 -121 46l48 49q20 -19 66 -19q29 0 49 24t41 70l28 62l-222 499h91l176 -392l178 392h92zM360 750l57 -59l-166 -125l-37 38z" />
    <glyph glyph-name="thorn" unicode="&#xfe;" horiz-adv-x="603" 
d="M76 -225v950h93v-344q25 57 72.5 90t109.5 33q89 0 145.5 -71t56.5 -183q0 -113 -69 -183.5t-179 -70.5q-78 0 -136 32v-253h-93zM169 265v-165q58 -29 127 -29q73 0 118 50t45 129q0 80 -41 129t-106 49q-62 0 -102.5 -48t-40.5 -115z" />
    <glyph glyph-name="ydieresis" unicode="&#xff;" horiz-adv-x="633" 
d="M585 500l-267 -593q-60 -138 -159 -138q-75 0 -121 46l48 49q20 -19 66 -19q29 0 49 24t41 70l28 62l-222 499h91l176 -392l178 392h92zM154 600v100h94v-100h-94zM383 600v100h93v-100h-93z" />
    <glyph glyph-name="Amacron" unicode="&#x100;" horiz-adv-x="845" 
d="M372 700h102l323 -700h-98l-85 181h-382l-85 -181h-99zM423 594l-155 -330h310zM585 838h-327v62h327v-62z" />
    <glyph glyph-name="amacron" unicode="&#x101;" horiz-adv-x="551" 
d="M115 388l-46 48q78 70 193 70q97 0 157.5 -51t60.5 -133v-322h-94v100q-25 -48 -69.5 -76t-102.5 -28q-74 0 -121 40t-47 104q0 73 65.5 118t169.5 45q51 0 105 -8v24q0 50 -33 80.5t-86 30.5q-95 0 -152 -42zM386 232q-42 13 -96 13q-67 0 -109 -27t-42 -70
q0 -35 30 -56.5t77 -21.5q61 0 100.5 47t39.5 115zM434 638h-327v62h327v-62z" />
    <glyph glyph-name="Abreve" unicode="&#x102;" horiz-adv-x="845" 
d="M372 700h102l323 -700h-98l-85 181h-382l-85 -181h-99zM423 594l-155 -330h310zM247 882l46 48q49 -49 129 -49q81 0 128 49l46 -48q-68 -70 -174 -70q-107 0 -175 70z" />
    <glyph glyph-name="abreve" unicode="&#x103;" horiz-adv-x="551" 
d="M115 388l-46 48q78 70 193 70q97 0 157.5 -51t60.5 -133v-322h-94v100q-25 -48 -69.5 -76t-102.5 -28q-74 0 -121 40t-47 104q0 73 65.5 118t169.5 45q51 0 105 -8v24q0 50 -33 80.5t-86 30.5q-95 0 -152 -42zM386 232q-42 13 -96 13q-67 0 -109 -27t-42 -70
q0 -35 30 -56.5t77 -21.5q61 0 100.5 47t39.5 115zM97 682l46 48q49 -49 129 -49q81 0 128 49l46 -48q-68 -70 -174 -70q-107 0 -175 70z" />
    <glyph glyph-name="Aogonek" unicode="&#x104;" horiz-adv-x="845" 
d="M731 0h-32l-85 181h-382l-85 -181h-99l324 700h102l323 -700h-1q-9 -11 -22.5 -29.5t-36.5 -60.5t-23 -67q0 -39 38 -39q29 0 54 23l37 -39q-41 -41 -93 -41q-40 0 -66 23t-26 60q0 39 18 81.5t36 65.5zM423 594l-155 -330h310z" />
    <glyph glyph-name="aogonek" unicode="&#x105;" horiz-adv-x="551" 
d="M115 388l-46 48q78 70 193 70q97 0 157.5 -51t60.5 -133v-322h-3q-9 -11 -22.5 -29.5t-36.5 -60.5t-23 -67q0 -39 38 -39q29 0 54 23l37 -39q-41 -41 -93 -41q-40 0 -66 23t-26 60q0 39 18.5 81.5t36.5 65.5l18 23h-26v100q-25 -48 -69.5 -76t-102.5 -28q-74 0 -121 40
t-47 104q0 73 65.5 118t169.5 45q51 0 105 -8v24q0 50 -33 80.5t-86 30.5q-95 0 -152 -42zM386 232q-42 13 -96 13q-67 0 -109 -27t-42 -70q0 -35 30 -56.5t77 -21.5q61 0 100.5 47t39.5 115z" />
    <glyph glyph-name="Cacute" unicode="&#x106;" horiz-adv-x="722" 
d="M608 156l59 -61q-99 -101 -262 -101q-158 0 -257 99t-99 257t99.5 257t257.5 99t261 -101l-59 -61q-70 79 -197 79q-117 0 -189.5 -76t-72.5 -197t72.5 -197t189.5 -76q129 0 197 79zM435 950l57 -59l-166 -125l-37 38z" />
    <glyph glyph-name="cacute" unicode="&#x107;" horiz-adv-x="533" 
d="M442 119l51 -52q-71 -73 -188 -73q-114 0 -185 71t-71 185t71.5 185t185.5 71t187 -73l-51 -52q-47 49 -130 49q-76 0 -123 -50t-47 -130t47 -130t123 -50q84 0 130 49zM340 750l57 -59l-166 -125l-37 38z" />
    <glyph glyph-name="Ccircumflex" unicode="&#x108;" horiz-adv-x="722" 
d="M608 156l59 -61q-99 -101 -262 -101q-158 0 -257 99t-99 257t99.5 257t257.5 99t261 -101l-59 -61q-70 79 -197 79q-117 0 -189.5 -76t-72.5 -197t72.5 -197t189.5 -76q129 0 197 79zM227 835l163 115l163 -115l-47 -48l-116 83l-116 -83z" />
    <glyph glyph-name="ccircumflex" unicode="&#x109;" horiz-adv-x="533" 
d="M442 119l51 -52q-71 -73 -188 -73q-114 0 -185 71t-71 185t71.5 185t185.5 71t187 -73l-51 -52q-47 49 -130 49q-76 0 -123 -50t-47 -130t47 -130t123 -50q84 0 130 49zM132 635l163 115l163 -115l-47 -48l-116 83l-116 -83z" />
    <glyph glyph-name="Cdotaccent" unicode="&#x10a;" horiz-adv-x="722" 
d="M608 156l59 -61q-99 -101 -262 -101q-158 0 -257 99t-99 257t99.5 257t257.5 99t261 -101l-59 -61q-70 79 -197 79q-117 0 -189.5 -76t-72.5 -197t72.5 -197t189.5 -76q129 0 197 79zM343 800v100h94v-100h-94z" />
    <glyph glyph-name="cdotaccent" unicode="&#x10b;" horiz-adv-x="533" 
d="M442 119l51 -52q-71 -73 -188 -73q-114 0 -185 71t-71 185t71.5 185t185.5 71t187 -73l-51 -52q-47 49 -130 49q-76 0 -123 -50t-47 -130t47 -130t123 -50q84 0 130 49zM248 600v100h94v-100h-94z" />
    <glyph glyph-name="Ccaron" unicode="&#x10c;" horiz-adv-x="722" 
d="M608 156l59 -61q-99 -101 -262 -101q-158 0 -257 99t-99 257t99.5 257t257.5 99t261 -101l-59 -61q-70 79 -197 79q-117 0 -189.5 -76t-72.5 -197t72.5 -197t189.5 -76q129 0 197 79zM553 902l-163 -116l-163 116l47 48l116 -83l116 83z" />
    <glyph glyph-name="ccaron" unicode="&#x10d;" horiz-adv-x="533" 
d="M442 119l51 -52q-71 -73 -188 -73q-114 0 -185 71t-71 185t71.5 185t185.5 71t187 -73l-51 -52q-47 49 -130 49q-76 0 -123 -50t-47 -130t47 -130t123 -50q84 0 130 49zM459 702l-163 -116l-163 116l47 48l116 -83l116 83z" />
    <glyph glyph-name="Dcaron" unicode="&#x10e;" horiz-adv-x="746" 
d="M76 0v700h271q155 0 252.5 -97.5t97.5 -252.5t-97.5 -252.5t-252.5 -97.5h-271zM597 350q0 117 -70 192t-180 75h-170v-534h170q110 0 180 75t70 192zM512 902l-163 -116l-163 116l47 48l116 -83l116 83z" />
    <glyph glyph-name="dcaron" unicode="&#x10f;" horiz-adv-x="850" 
d="M433 471v254h93v-725h-93v118q-25 -57 -73 -89.5t-110 -32.5q-89 0 -145 67.5t-56 176.5q0 117 69 190.5t179 73.5q79 0 136 -33zM289 72q61 0 101.5 46.5t42.5 112.5v169q-53 28 -126 28t-119 -52.5t-46 -135.5q0 -75 41 -121.5t106 -46.5zM647 494l-33 34q57 57 57 199
h79q0 -128 -103 -233z" />
    <glyph glyph-name="Dcroat" unicode="&#x110;" horiz-adv-x="846" 
d="M176 0v315h-100v83h100v302h271q155 0 252.5 -97.5t97.5 -252.5t-97.5 -252.5t-252.5 -97.5h-271zM501 315h-224v-232h170q110 0 180 75t70 192t-70 192t-180 75h-170v-219h224v-83z" />
    <glyph glyph-name="dcroat" unicode="&#x111;" horiz-adv-x="669" 
d="M609 584h-83v-584h-94v118q-24 -56 -72 -89t-110 -33q-89 0 -145.5 67.5t-56.5 176.5q0 117 69 190.5t180 73.5q75 0 135 -33v113h-256v58h256v83h94v-83h83v-58zM432 231v169q-54 28 -126 28q-73 0 -118.5 -52.5t-45.5 -135.5q0 -76 41 -122.5t106 -46.5q61 0 102 47
t41 113z" />
    <glyph glyph-name="Emacron" unicode="&#x112;" horiz-adv-x="631" 
d="M76 0v700h484v-83h-383v-219h354v-83h-354v-232h391v-83h-492zM478 838h-327v62h327v-62z" />
    <glyph glyph-name="emacron" unicode="&#x113;" horiz-adv-x="576" 
d="M527 222h-385q6 -69 54 -111t121 -42q86 0 134 50l52 -53q-74 -72 -192 -72q-116 0 -189.5 71t-73.5 185q0 113 67 184.5t173 71.5t172.5 -71t66.5 -185v-28zM143 287h290q-2 63 -42.5 103t-100.5 40q-58 0 -98.5 -39.5t-48.5 -103.5zM450 638h-327v62h327v-62z" />
    <glyph glyph-name="Ebreve" unicode="&#x114;" horiz-adv-x="631" 
d="M76 0v700h484v-83h-383v-219h354v-83h-354v-232h391v-83h-492zM140 882l46 48q49 -49 129 -49q81 0 128 49l46 -48q-68 -70 -174 -70q-107 0 -175 70z" />
    <glyph glyph-name="ebreve" unicode="&#x115;" horiz-adv-x="576" 
d="M527 222h-385q6 -69 54 -111t121 -42q86 0 134 50l52 -53q-74 -72 -192 -72q-116 0 -189.5 71t-73.5 185q0 113 67 184.5t173 71.5t172.5 -71t66.5 -185v-28zM143 287h290q-2 63 -42.5 103t-100.5 40q-58 0 -98.5 -39.5t-48.5 -103.5zM113 682l46 48q49 -49 129 -49
q81 0 128 49l46 -48q-68 -70 -174 -70q-107 0 -175 70z" />
    <glyph glyph-name="Edotaccent" unicode="&#x116;" horiz-adv-x="631" 
d="M76 0v700h484v-83h-383v-219h354v-83h-354v-232h391v-83h-492zM267 800v100h94v-100h-94z" />
    <glyph glyph-name="edotaccent" unicode="&#x117;" horiz-adv-x="576" 
d="M527 222h-385q6 -69 54 -111t121 -42q86 0 134 50l52 -53q-74 -72 -192 -72q-116 0 -189.5 71t-73.5 185q0 113 67 184.5t173 71.5t172.5 -71t66.5 -185v-28zM143 287h290q-2 63 -42.5 103t-100.5 40q-58 0 -98.5 -39.5t-48.5 -103.5zM240 600v100h94v-100h-94z" />
    <glyph glyph-name="Eogonek" unicode="&#x118;" horiz-adv-x="631" 
d="M76 0v700h484v-83h-383v-219h354v-83h-354v-232h391v-83h-1q-9 -11 -22.5 -29.5t-36.5 -60.5t-23 -67q0 -39 38 -39q29 0 54 23l37 -39q-41 -41 -93 -41q-40 0 -66 23t-26 60q0 39 18.5 81.5t36.5 65.5l18 23h-426z" />
    <glyph glyph-name="eogonek" unicode="&#x119;" horiz-adv-x="576" 
d="M527 222h-385q6 -69 54 -111t121 -42q86 0 134 50l52 -53q-9 -11 -22.5 -29.5t-36.5 -60.5t-23 -67q0 -39 38 -39q29 0 54 23l37 -39q-41 -41 -93 -41q-40 0 -66 23t-26 60q0 53 32 109q-42 -11 -86 -11q-116 0 -189.5 71t-73.5 185q0 113 67 184.5t173 71.5t172.5 -71
t66.5 -185v-28zM143 287h290q-2 63 -42.5 103t-100.5 40q-58 0 -98.5 -39.5t-48.5 -103.5z" />
    <glyph glyph-name="Ecaron" unicode="&#x11a;" horiz-adv-x="631" 
d="M76 0v700h484v-83h-383v-219h354v-83h-354v-232h391v-83h-492zM478 902l-163 -116l-163 116l47 48l116 -83l116 83z" />
    <glyph glyph-name="ecaron" unicode="&#x11b;" horiz-adv-x="576" 
d="M527 222h-385q6 -69 54 -111t121 -42q86 0 134 50l52 -53q-74 -72 -192 -72q-116 0 -189.5 71t-73.5 185q0 113 67 184.5t173 71.5t172.5 -71t66.5 -185v-28zM143 287h290q-2 63 -42.5 103t-100.5 40q-58 0 -98.5 -39.5t-48.5 -103.5zM451 702l-163 -116l-163 116l47 48
l116 -83l116 83z" />
    <glyph glyph-name="Gcircumflex" unicode="&#x11c;" horiz-adv-x="743" 
d="M384 302v83h283v-290q-99 -101 -262 -101q-158 0 -257 99t-99 257t99.5 257t257.5 99t261 -101l-59 -61q-70 79 -197 79q-117 0 -189.5 -76t-72.5 -198q0 -120 72.5 -196t189.5 -76q93 0 156 45v180h-183zM208 835l163 115l163 -115l-47 -48l-116 83l-116 -83z" />
    <glyph glyph-name="gcircumflex" unicode="&#x11d;" horiz-adv-x="598" 
d="M71 -158l48 50q55 -47 147 -47q72 0 117 43.5t45 111.5v100q-25 -48 -72.5 -76t-107.5 -28q-89 0 -144 67.5t-55 176.5q0 118 79 192t205 74q112 0 188 -36v-470q0 -103 -71 -167t-184 -64q-120 0 -195 73zM428 197v217q-51 16 -111 16q-77 0 -126 -53t-49 -137
q0 -75 40.5 -121.5t104.5 -46.5q60 0 99.5 36.5t41.5 88.5zM135 635l163 115l163 -115l-47 -48l-116 83l-116 -83z" />
    <glyph glyph-name="Gbreve" unicode="&#x11e;" horiz-adv-x="743" 
d="M384 302v83h283v-290q-99 -101 -262 -101q-158 0 -257 99t-99 257t99.5 257t257.5 99t261 -101l-59 -61q-70 79 -197 79q-117 0 -189.5 -76t-72.5 -198q0 -120 72.5 -196t189.5 -76q93 0 156 45v180h-183zM197 882l46 48q49 -49 129 -49q81 0 128 49l46 -48
q-68 -70 -174 -70q-107 0 -175 70z" />
    <glyph glyph-name="gbreve" unicode="&#x11f;" horiz-adv-x="598" 
d="M71 -158l48 50q55 -47 147 -47q72 0 117 43.5t45 111.5v100q-25 -48 -72.5 -76t-107.5 -28q-89 0 -144 67.5t-55 176.5q0 118 79 192t205 74q112 0 188 -36v-470q0 -103 -71 -167t-184 -64q-120 0 -195 73zM428 197v217q-51 16 -111 16q-77 0 -126 -53t-49 -137
q0 -75 40.5 -121.5t104.5 -46.5q60 0 99.5 36.5t41.5 88.5zM124 682l46 48q49 -49 129 -49q81 0 128 49l46 -48q-68 -70 -174 -70q-107 0 -175 70z" />
    <glyph glyph-name="Gdotaccent" unicode="&#x120;" horiz-adv-x="743" 
d="M384 302v83h283v-290q-99 -101 -262 -101q-158 0 -257 99t-99 257t99.5 257t257.5 99t261 -101l-59 -61q-70 79 -197 79q-117 0 -189.5 -76t-72.5 -198q0 -120 72.5 -196t189.5 -76q93 0 156 45v180h-183zM324 800v100h94v-100h-94z" />
    <glyph glyph-name="gdotaccent" unicode="&#x121;" horiz-adv-x="598" 
d="M71 -158l48 50q55 -47 147 -47q72 0 117 43.5t45 111.5v100q-25 -48 -72.5 -76t-107.5 -28q-89 0 -144 67.5t-55 176.5q0 118 79 192t205 74q112 0 188 -36v-470q0 -103 -71 -167t-184 -64q-120 0 -195 73zM428 197v217q-51 16 -111 16q-77 0 -126 -53t-49 -137
q0 -75 40.5 -121.5t104.5 -46.5q60 0 99.5 36.5t41.5 88.5zM251 600v100h94v-100h-94z" />
    <glyph glyph-name="Gcommaaccent" unicode="&#x122;" horiz-adv-x="743" 
d="M384 302v83h283v-290q-99 -101 -262 -101q-158 0 -257 99t-99 257t99.5 257t257.5 99t261 -101l-59 -61q-70 79 -197 79q-117 0 -189.5 -76t-72.5 -198q0 -120 72.5 -196t189.5 -76q93 0 156 45v180h-183zM337 -293l-30 32q55 56 55 181h72q0 -114 -97 -213z" />
    <glyph glyph-name="gcommaaccent" unicode="&#x123;" horiz-adv-x="598" 
d="M71 -158l48 50q55 -47 147 -47q72 0 117 43.5t45 111.5v100q-25 -48 -72.5 -76t-107.5 -28q-89 0 -144 67.5t-55 176.5q0 118 79 192t205 74q112 0 188 -36v-470q0 -103 -71 -167t-184 -64q-120 0 -195 73zM428 197v217q-51 16 -111 16q-77 0 -126 -53t-49 -137
q0 -75 40.5 -121.5t104.5 -46.5q60 0 99.5 36.5t41.5 88.5zM360 820l33 -35q-57 -57 -57 -198h-79q0 128 103 233z" />
    <glyph glyph-name="Hcircumflex" unicode="&#x124;" horiz-adv-x="753" 
d="M576 0v315h-399v-315h-101v700h101v-302h399v302h100v-700h-100zM212 835l163 115l163 -115l-47 -48l-116 83l-116 -83z" />
    <glyph glyph-name="hcircumflex" unicode="&#x125;" 
d="M443 0v297q0 60 -35 96.5t-91 36.5q-62 0 -103.5 -49.5t-43.5 -118.5v-262h-94v725h94v-342q27 56 76 89.5t110 33.5q80 0 130 -53.5t50 -139.5v-313h-93zM143 835l163 115l163 -115l-47 -48l-116 83l-116 -83z" />
    <glyph glyph-name="Hbar" unicode="&#x126;" horiz-adv-x="915" 
d="M858 509h-100v-509h-101v315h-399v-315h-101v509h-100v76h100v115h101v-115h399v115h101v-115h100v-76zM258 398h399v111h-399v-111z" />
    <glyph glyph-name="hbar" unicode="&#x127;" horiz-adv-x="673" 
d="M503 0v297q0 60 -35 96.5t-91 36.5q-63 0 -104 -49.5t-43 -118.5v-262h-94v584h-83v58h83v83h94v-83h256v-58h-256v-202q26 57 75 90.5t111 33.5q80 0 130 -53.5t50 -139.5v-313h-93z" />
    <glyph glyph-name="Itilde" unicode="&#x128;" horiz-adv-x="253" 
d="M177 0h-101v700h101v-700zM-23 818l-39 39q59 62 120 62q28 0 77 -17.5t72 -17.5q37 0 69 31l39 -40q-57 -61 -117 -61q-28 0 -77 17t-72 17q-39 0 -72 -30z" />
    <glyph glyph-name="itilde" unicode="&#x129;" horiz-adv-x="246" 
d="M170 0h-94v500h94v-500zM-26 618l-39 39q59 62 120 62q28 0 77 -17.5t72 -17.5q37 0 69 31l39 -40q-57 -61 -117 -61q-28 0 -77 17t-72 17q-39 0 -72 -30z" />
    <glyph glyph-name="Imacron" unicode="&#x12a;" horiz-adv-x="253" 
d="M177 0h-101v700h101v-700zM290 838h-327v62h327v-62z" />
    <glyph glyph-name="imacron" unicode="&#x12b;" horiz-adv-x="246" 
d="M170 0h-94v500h94v-500zM287 638h-327v62h327v-62z" />
    <glyph glyph-name="Ibreve" unicode="&#x12c;" horiz-adv-x="253" 
d="M177 0h-101v700h101v-700zM-48 882l46 48q49 -49 129 -49q81 0 128 49l46 -48q-68 -70 -174 -70q-107 0 -175 70z" />
    <glyph glyph-name="ibreve" unicode="&#x12d;" horiz-adv-x="246" 
d="M170 0h-94v500h94v-500zM-51 682l46 48q49 -49 129 -49q81 0 128 49l46 -48q-68 -70 -174 -70q-107 0 -175 70z" />
    <glyph glyph-name="Iogonek" unicode="&#x12e;" horiz-adv-x="253" 
d="M112 0h-36v700h101v-700q-9 -11 -22.5 -29.5t-36.5 -60.5t-23 -67q0 -39 38 -39q29 0 54 23l37 -39q-41 -41 -93 -41q-40 0 -66 23t-26 60q0 39 18.5 81.5t36.5 65.5z" />
    <glyph glyph-name="iogonek" unicode="&#x12f;" horiz-adv-x="246" 
d="M105 0h-29v500h94v-500q-9 -11 -22.5 -29.5t-36.5 -60.5t-23 -67q0 -39 38 -39q29 0 54 23l37 -39q-41 -41 -93 -41q-40 0 -66 23t-26 60q0 39 18 81.5t36 65.5zM76 600v100h94v-100h-94z" />
    <glyph glyph-name="Idotaccent" unicode="&#x130;" horiz-adv-x="253" 
d="M177 0h-101v700h101v-700zM79 800v100h94v-100h-94z" />
    <glyph glyph-name="dotlessi" unicode="&#x131;" horiz-adv-x="246" 
d="M170 0h-94v500h94v-500z" />
    <glyph glyph-name="IJ" unicode="&#x132;" horiz-adv-x="827" 
d="M177 0h-101v700h101v-700zM651 250v450h100v-450q0 -114 -72.5 -185t-188.5 -71q-117 0 -190 73l57 60q45 -50 127 -50q74 0 120.5 48.5t46.5 124.5z" />
    <glyph glyph-name="ij" unicode="&#x133;" horiz-adv-x="492" 
d="M170 0h-94v500h94v-500zM76 600v100h94v-100h-94zM118 -181l49 51q25 -25 70 -25q37 0 61 27t24 70v558h94v-554q0 -79 -47.5 -128t-124.5 -49q-76 0 -126 50zM322 600v100h94v-100h-94z" />
    <glyph glyph-name="Jcircumflex" unicode="&#x134;" horiz-adv-x="577" 
d="M401 250v450h100v-450q0 -114 -72.5 -185t-188.5 -71q-117 0 -190 73l57 60q45 -50 127 -50q74 0 120.5 48.5t46.5 124.5zM288 835l163 115l163 -115l-47 -48l-116 83l-116 -83z" />
    <glyph glyph-name="jcircumflex" unicode="&#x135;" horiz-adv-x="286" 
d="M-88 -181l49 51q25 -25 70 -25q37 0 61 27t24 70v558h94v-554q0 -79 -47.5 -128t-124.5 -49q-76 0 -126 50zM1 635l163 115l163 -115l-47 -48l-116 83l-116 -83z" />
    <glyph glyph-name="Kcommaaccent" unicode="&#x136;" horiz-adv-x="688" 
d="M177 0h-101v700h101v-323l321 323h125l-295 -300l319 -400h-114l-271 331l-85 -93v-238zM310 -293l-30 32q55 56 55 181h72q0 -114 -97 -213z" />
    <glyph glyph-name="kcommaaccent" unicode="&#x137;" horiz-adv-x="570" 
d="M170 0h-94v725h94v-451l217 226h112l-206 -218l239 -282h-107l-191 219l-64 -68v-151zM251 -293l-30 32q55 56 55 181h72q0 -114 -97 -213z" />
    <glyph glyph-name="kgreenlandic" unicode="&#x138;" horiz-adv-x="560" 
d="M170 0h-94v500h94v-232l219 232h111l-198 -211l221 -289h-104l-176 227l-73 -76v-151z" />
    <glyph glyph-name="Lacute" unicode="&#x139;" horiz-adv-x="643" 
d="M76 0v700h101v-617h403v-83h-504zM392 950l57 -59l-166 -125l-37 38z" />
    <glyph glyph-name="lacute" unicode="&#x13a;" horiz-adv-x="340" 
d="M259 84l49 -50q-37 -40 -98 -40q-59 0 -96.5 38.5t-37.5 99.5v593h94v-600q0 -24 14 -39.5t36 -15.5q23 0 39 14zM170 975l57 -59l-166 -125l-37 38z" />
    <glyph glyph-name="Lcommaaccent" unicode="&#x13b;" horiz-adv-x="643" 
d="M76 0v700h101v-617h403v-83h-504zM287 -293l-30 32q55 56 55 181h72q0 -114 -97 -213z" />
    <glyph glyph-name="lcommaaccent" unicode="&#x13c;" horiz-adv-x="340" 
d="M259 84l49 -50q-37 -40 -98 -40q-59 0 -96.5 38.5t-37.5 99.5v593h94v-600q0 -24 14 -39.5t36 -15.5q23 0 39 14zM136 -293l-30 32q55 56 55 181h72q0 -114 -97 -213z" />
    <glyph glyph-name="Lcaron" unicode="&#x13d;" horiz-adv-x="643" 
d="M76 0v700h101v-617h403v-83h-504zM290 902l-163 -116l-163 116l47 48l116 -83l116 83z" />
    <glyph glyph-name="lcaron" unicode="&#x13e;" horiz-adv-x="530" 
d="M259 84l49 -50q-37 -40 -98 -40q-59 0 -96.5 38.5t-37.5 99.5v593h94v-600q0 -24 14 -39.5t36 -15.5q23 0 39 14zM327 494l-33 34q57 57 57 199h79q0 -128 -103 -233z" />
    <glyph glyph-name="Ldot" unicode="&#x13f;" horiz-adv-x="643" 
d="M76 0v700h101v-617h403v-83h-504zM485 239v122h94v-122h-94z" />
    <glyph glyph-name="ldot" unicode="&#x140;" horiz-adv-x="513" 
d="M259 84l49 -50q-37 -40 -98 -40q-59 0 -96.5 38.5t-37.5 99.5v593h94v-600q0 -24 14 -39.5t36 -15.5q23 0 39 14zM342 239v122h94v-122h-94z" />
    <glyph glyph-name="Lslash" unicode="&#x141;" horiz-adv-x="774" 
d="M461 448l-153 -87v-278h403v-83h-503v300l-115 -64l-37 66l152 86v312h100v-251l116 65z" />
    <glyph glyph-name="lslash" unicode="&#x142;" horiz-adv-x="484" 
d="M449 448l-156 -90v-233q0 -24 14 -39.5t36 -15.5q24 0 38 14l50 -50q-37 -40 -99 -40q-59 0 -96 38.5t-37 99.5v170l-118 -66l-37 66l155 89v334h94v-278l119 67z" />
    <glyph glyph-name="Nacute" unicode="&#x143;" horiz-adv-x="764" 
d="M588 0l-411 542v-542h-101v700h101l411 -542v542h100v-700h-100zM426 950l57 -59l-166 -125l-37 38z" />
    <glyph glyph-name="nacute" unicode="&#x144;" 
d="M443 0v297q0 60 -35 96.5t-91 36.5q-62 0 -103.5 -49.5t-43.5 -118.5v-262h-94v500h94v-117q27 56 76 89.5t110 33.5q80 0 130 -53.5t50 -139.5v-313h-93zM350 750l57 -59l-166 -125l-37 38z" />
    <glyph glyph-name="Ncommaaccent" unicode="&#x145;" horiz-adv-x="764" 
d="M588 0l-411 542v-542h-101v700h101l411 -542v542h100v-700h-100zM345 -293l-30 32q55 56 55 181h72q0 -114 -97 -213z" />
    <glyph glyph-name="ncommaaccent" unicode="&#x146;" 
d="M443 0v297q0 60 -35 96.5t-91 36.5q-62 0 -103.5 -49.5t-43.5 -118.5v-262h-94v500h94v-117q27 56 76 89.5t110 33.5q80 0 130 -53.5t50 -139.5v-313h-93zM267 -293l-30 32q55 56 55 181h72q0 -114 -97 -213z" />
    <glyph glyph-name="Ncaron" unicode="&#x147;" horiz-adv-x="764" 
d="M588 0l-411 542v-542h-101v700h101l411 -542v542h100v-700h-100zM545 902l-163 -116l-163 116l47 48l116 -83l116 83z" />
    <glyph glyph-name="ncaron" unicode="&#x148;" 
d="M443 0v297q0 60 -35 96.5t-91 36.5q-64 0 -105.5 -51.5t-41.5 -123.5v-255h-94v500h94v-117q27 56 76 89.5t110 33.5q80 0 130 -53.5t50 -139.5v-313h-93zM469 702l-163 -116l-163 116l47 48l116 -83l116 83z" />
    <glyph glyph-name="Eng" unicode="&#x14a;" horiz-adv-x="764" 
d="M565 -258l-39 41q62 63 62 217l-411 542v-542h-101v700h101l411 -542v542h100v-700q0 -135 -123 -258z" />
    <glyph glyph-name="eng" unicode="&#x14b;" 
d="M413 -258l-39 41q69 71 69 217v297q0 60 -35 96.5t-91 36.5q-63 0 -104.5 -50.5t-42.5 -121.5v-258h-94v500h94v-118q26 57 75 90.5t111 33.5q80 0 130 -53.5t50 -139.5v-313q0 -135 -123 -258z" />
    <glyph glyph-name="Omacron" unicode="&#x14c;" horiz-adv-x="809" 
d="M49 350q0 158 98.5 257t256.5 99t257 -99t99 -257t-99 -257t-257 -99t-256.5 99t-98.5 257zM149 350q0 -120 71.5 -196.5t183.5 -76.5q113 0 184.5 76.5t71.5 196.5t-71.5 196.5t-184.5 76.5q-112 0 -183.5 -76.5t-71.5 -196.5zM567 838h-327v62h327v-62z" />
    <glyph glyph-name="omacron" unicode="&#x14d;" 
d="M49 250q0 114 71.5 185t185.5 71q115 0 186.5 -71t71.5 -185t-71.5 -185t-186.5 -71q-114 0 -185.5 71t-71.5 185zM142 250q0 -79 46 -129.5t118 -50.5q73 0 118.5 50t45.5 130t-45.5 130t-118.5 50q-72 0 -118 -50.5t-46 -129.5zM469 638h-327v62h327v-62z" />
    <glyph glyph-name="Obreve" unicode="&#x14e;" horiz-adv-x="809" 
d="M49 350q0 158 98.5 257t256.5 99t257 -99t99 -257t-99 -257t-257 -99t-256.5 99t-98.5 257zM149 350q0 -120 71.5 -196.5t183.5 -76.5q113 0 184.5 76.5t71.5 196.5t-71.5 196.5t-184.5 76.5q-112 0 -183.5 -76.5t-71.5 -196.5zM229 882l46 48q49 -49 129 -49
q81 0 128 49l46 -48q-68 -70 -174 -70q-107 0 -175 70z" />
    <glyph glyph-name="obreve" unicode="&#x14f;" 
d="M49 250q0 114 71.5 185t185.5 71q115 0 186.5 -71t71.5 -185t-71.5 -185t-186.5 -71q-114 0 -185.5 71t-71.5 185zM142 250q0 -79 46 -129.5t118 -50.5q73 0 118.5 50t45.5 130t-45.5 130t-118.5 50q-72 0 -118 -50.5t-46 -129.5zM131 682l46 48q49 -49 129 -49
q81 0 128 49l46 -48q-68 -70 -174 -70q-107 0 -175 70z" />
    <glyph glyph-name="Ohungarumlaut" unicode="&#x150;" horiz-adv-x="809" 
d="M49 350q0 158 98.5 257t256.5 99t257 -99t99 -257t-99 -257t-257 -99t-256.5 99t-98.5 257zM149 350q0 -120 71.5 -196.5t183.5 -76.5q113 0 184.5 76.5t71.5 196.5t-71.5 196.5t-184.5 76.5q-112 0 -183.5 -76.5t-71.5 -196.5zM359 950l57 -59l-166 -125l-37 38z
M587 950l57 -59l-166 -125l-36 38z" />
    <glyph glyph-name="ohungarumlaut" unicode="&#x151;" 
d="M49 250q0 114 71.5 185t185.5 71q115 0 186.5 -71t71.5 -185t-71.5 -185t-186.5 -71q-114 0 -185.5 71t-71.5 185zM142 250q0 -79 46 -129.5t118 -50.5q73 0 118.5 50t45.5 130t-45.5 130t-118.5 50q-72 0 -118 -50.5t-46 -129.5zM261 750l57 -59l-166 -125l-37 38z
M489 750l57 -59l-166 -125l-36 38z" />
    <glyph glyph-name="OE" unicode="&#x152;" horiz-adv-x="1214" 
d="M663 0v110q-89 -116 -260 -116q-158 0 -256.5 99t-98.5 257t99 257t256 99q169 0 260 -118v112h480v-83h-383v-219h354v-83h-354v-232h391v-83h-488zM148 350q0 -120 72 -197t183 -77q114 0 185 77t71 197t-71.5 196.5t-184.5 76.5q-111 0 -183 -77t-72 -196z" />
    <glyph glyph-name="oe" unicode="&#x153;" horiz-adv-x="997" 
d="M948 222h-384q6 -69 54 -111t120 -42q85 0 135 50l52 -53q-74 -72 -192 -72q-72 0 -128 28.5t-88 79.5q-31 -51 -86 -79.5t-125 -28.5q-115 0 -186.5 71t-71.5 185q0 113 71.5 184.5t186.5 71.5q69 0 123.5 -28.5t85.5 -78.5q29 50 80 78.5t115 28.5q106 0 172 -71
t66 -185v-28zM142 250q0 -79 46 -130t118 -51t118 50t46 131q0 79 -45.5 129.5t-118.5 50.5q-72 0 -118 -50.5t-46 -129.5zM565 287h290q-2 63 -42.5 103t-100.5 40q-59 0 -99 -39.5t-48 -103.5z" />
    <glyph glyph-name="Racute" unicode="&#x154;" horiz-adv-x="629" 
d="M478 0l-216 292h-85v-292h-101v700h279q91 0 147.5 -56.5t56.5 -147.5q0 -86 -51.5 -142t-135.5 -62l217 -292h-111zM177 375h167q50 0 82.5 34t32.5 87t-32.5 87t-82.5 34h-167v-242zM358 950l57 -59l-166 -125l-37 38z" />
    <glyph glyph-name="racute" unicode="&#x155;" horiz-adv-x="416" 
d="M356 506v-82q-79 0 -131.5 -51.5t-54.5 -124.5v-248h-94v500h94v-136q25 65 74 103.5t112 38.5zM252 750l57 -59l-166 -125l-37 38z" />
    <glyph glyph-name="Rcommaaccent" unicode="&#x156;" horiz-adv-x="629" 
d="M478 0l-216 292h-85v-292h-101v700h279q91 0 147.5 -56.5t56.5 -147.5q0 -86 -51.5 -142t-135.5 -62l217 -292h-111zM177 375h167q50 0 82.5 34t32.5 87t-32.5 87t-82.5 34h-167v-242zM281 -293l-30 32q55 56 55 181h72q0 -114 -97 -213z" />
    <glyph glyph-name="rcommaaccent" unicode="&#x157;" horiz-adv-x="416" 
d="M356 506v-82q-81 0 -133.5 -54t-52.5 -129v-241h-94v500h94v-136q25 65 74 103.5t112 38.5zM63 -293l-30 32q55 56 55 181h72q0 -114 -97 -213z" />
    <glyph glyph-name="Rcaron" unicode="&#x158;" horiz-adv-x="629" 
d="M478 0l-216 292h-85v-292h-101v700h279q91 0 147.5 -56.5t56.5 -147.5q0 -86 -51.5 -142t-135.5 -62l217 -292h-111zM177 375h167q50 0 82.5 34t32.5 87t-32.5 87t-82.5 34h-167v-242zM477 902l-163 -116l-163 116l47 48l116 -83l116 83z" />
    <glyph glyph-name="rcaron" unicode="&#x159;" horiz-adv-x="416" 
d="M356 506v-82q-79 0 -131.5 -51.5t-54.5 -124.5v-248h-94v500h94v-136q25 65 74 103.5t112 38.5zM372 702l-163 -116l-163 116l47 48l116 -83l116 83z" />
    <glyph glyph-name="Sacute" unicode="&#x15a;" horiz-adv-x="572" 
d="M514 202q0 -93 -70 -150.5t-174 -57.5q-130 0 -225 101l51 53q66 -71 172 -71q63 0 104.5 33t41.5 85q0 39 -36.5 65.5t-88.5 44t-104.5 39t-89 63.5t-36.5 104q0 88 62 141.5t157 53.5q130 0 223 -101l-50 -54q-66 72 -164 72q-60 0 -94 -29.5t-34 -77.5q0 -36 26.5 -63
t65.5 -42t85.5 -33t85.5 -37t65.5 -54.5t26.5 -84.5zM330 950l57 -59l-166 -125l-37 38z" />
    <glyph glyph-name="sacute" unicode="&#x15b;" horiz-adv-x="449" 
d="M406 146q0 -67 -55 -109.5t-132 -42.5q-102 0 -173 73l48 50q47 -47 125 -47q39 0 66.5 21t27.5 52q0 25 -26.5 42.5t-64 29.5t-75 27.5t-64 45.5t-26.5 74q0 64 48.5 104.5t119.5 40.5q101 0 169 -73l-49 -51q-44 47 -115 47q-35 0 -57 -18.5t-22 -46.5q0 -27 26.5 -46
t63.5 -31.5t74.5 -27.5t64 -43.5t26.5 -70.5zM269 750l57 -59l-166 -125l-37 38z" />
    <glyph glyph-name="Scircumflex" unicode="&#x15c;" horiz-adv-x="572" 
d="M514 202q0 -93 -70 -150.5t-174 -57.5q-130 0 -225 101l51 53q66 -71 172 -71q63 0 104.5 33t41.5 85q0 39 -36.5 65.5t-88.5 44t-104.5 39t-89 63.5t-36.5 104q0 88 62 141.5t157 53.5q130 0 223 -101l-50 -54q-66 72 -164 72q-60 0 -94 -29.5t-34 -77.5q0 -36 26.5 -63
t65.5 -42t85.5 -33t85.5 -37t65.5 -54.5t26.5 -84.5zM122 835l163 115l163 -115l-47 -48l-116 83l-116 -83z" />
    <glyph glyph-name="scircumflex" unicode="&#x15d;" horiz-adv-x="449" 
d="M406 146q0 -67 -55 -109.5t-132 -42.5q-102 0 -173 73l48 50q47 -47 125 -47q39 0 66.5 21t27.5 52q0 25 -26.5 42.5t-64 29.5t-75 27.5t-64 45.5t-26.5 74q0 64 48.5 104.5t119.5 40.5q101 0 169 -73l-49 -51q-44 47 -115 47q-35 0 -57 -18.5t-22 -46.5q0 -27 26.5 -46
t63.5 -31.5t74.5 -27.5t64 -43.5t26.5 -70.5zM61 635l163 115l163 -115l-47 -48l-116 83l-116 -83z" />
    <glyph glyph-name="Scedilla" unicode="&#x15e;" horiz-adv-x="572" 
d="M195 -159l18 17q11 12 16 18q26 -28 53 -28q19 0 30 8.5t11 21.5t-10.5 22.5t-23 16.5t-23 27t-11.5 51q-123 6 -210 100l51 53q66 -71 172 -71q63 0 104.5 33t41.5 85q0 39 -36.5 65.5t-88.5 44t-104.5 39t-89 63.5t-36.5 104q0 88 62 141.5t157 53.5q130 0 223 -101
l-50 -54q-66 72 -164 72q-60 0 -94 -29.5t-34 -77.5q0 -36 26.5 -63t65.5 -42t85.5 -33t85.5 -37t65.5 -54.5t26.5 -84.5q0 -84 -58.5 -140t-148.5 -66q1 -28 12 -43.5t23.5 -20.5t23 -19.5t10.5 -40.5q0 -33 -25.5 -53.5t-65.5 -20.5q-52 0 -90 43z" />
    <glyph glyph-name="scedilla" unicode="&#x15f;" horiz-adv-x="449" 
d="M133 -159q6 6 17 17.5t17 17.5q26 -28 53 -28q19 0 30 8.5t11 21.5t-10.5 23t-23 16.5t-23 26.5t-11.5 52q-85 7 -147 71l48 50q47 -47 125 -47q39 0 66.5 21t27.5 52q0 25 -26.5 42.5t-64 29.5t-75 27.5t-64 45.5t-26.5 74q0 64 48.5 104.5t119.5 40.5q101 0 169 -73
l-49 -51q-44 47 -115 47q-35 0 -57 -18.5t-22 -46.5q0 -27 26.5 -46t63.5 -31.5t74.5 -27.5t64 -43.5t26.5 -70.5q0 -61 -46.5 -102t-114.5 -48q1 -27 12 -43t23.5 -20.5t23 -19.5t10.5 -41q0 -33 -25.5 -53.5t-65.5 -20.5q-52 0 -90 43z" />
    <glyph glyph-name="Scaron" unicode="&#x160;" horiz-adv-x="572" 
d="M514 202q0 -93 -70 -150.5t-174 -57.5q-130 0 -225 101l51 53q66 -71 172 -71q63 0 104.5 33t41.5 85q0 39 -36.5 65.5t-88.5 44t-104.5 39t-89 63.5t-36.5 104q0 88 62 141.5t157 53.5q130 0 223 -101l-50 -54q-66 72 -164 72q-60 0 -94 -29.5t-34 -77.5q0 -36 26.5 -63
t65.5 -42t85.5 -33t85.5 -37t65.5 -54.5t26.5 -84.5zM449 902l-163 -116l-163 116l47 48l116 -83l116 83z" />
    <glyph glyph-name="scaron" unicode="&#x161;" horiz-adv-x="449" 
d="M406 146q0 -67 -55 -109.5t-132 -42.5q-102 0 -173 73l48 50q47 -47 125 -47q39 0 66.5 21t27.5 52q0 25 -26.5 42.5t-64 29.5t-75 27.5t-64 45.5t-26.5 74q0 64 48.5 104.5t119.5 40.5q101 0 169 -73l-49 -51q-44 47 -115 47q-35 0 -57 -18.5t-22 -46.5q0 -27 26.5 -46
t63.5 -31.5t74.5 -27.5t64 -43.5t26.5 -70.5zM387 702l-163 -116l-163 116l47 48l116 -83l116 83z" />
    <glyph glyph-name="Tcommaaccent" unicode="&#x162;" horiz-adv-x="753" 
d="M56 617v83h641v-83h-270v-617h-101v617h-270zM315 -293l-30 32q55 56 55 181h72q0 -114 -97 -213z" />
    <glyph glyph-name="tcommaaccent" unicode="&#x163;" horiz-adv-x="476" 
d="M45 424v76h75v115h93v-115h177v-76h-177v-243q0 -49 29 -80t73 -31q46 0 78 30l49 -51q-50 -55 -137 -55q-83 0 -134 53t-51 138v239h-75zM207 -293l-30 32q55 56 55 181h72q0 -114 -97 -213z" />
    <glyph glyph-name="Tcaron" unicode="&#x164;" horiz-adv-x="753" 
d="M56 617v83h641v-83h-270v-617h-101v617h-270zM539 902l-163 -116l-163 116l47 48l116 -83l116 83z" />
    <glyph glyph-name="tcaron" unicode="&#x165;" horiz-adv-x="710" 
d="M45 424v76h75v115h93v-115h177v-76h-177v-243q0 -49 29 -80t73 -31q46 0 78 30l49 -51q-50 -55 -137 -55q-83 0 -134 53t-51 138v239h-75zM517 381l-33 34q57 57 57 199h79q0 -128 -103 -233z" />
    <glyph glyph-name="Tbar" unicode="&#x166;" horiz-adv-x="753" 
d="M620 374h-193v-374h-101v374h-193v76h193v167h-270v83h641v-83h-270v-167h193v-76z" />
    <glyph glyph-name="tbar" unicode="&#x167;" horiz-adv-x="483" 
d="M396 265h-176v-84q0 -49 28.5 -80t73.5 -31q46 0 78 30l49 -51q-50 -55 -137 -55q-83 0 -134.5 53t-51.5 138v80h-75v69h75v90h-75v76h75v115h94v-115h176v-76h-176v-90h176v-69z" />
    <glyph glyph-name="Utilde" unicode="&#x168;" horiz-adv-x="772" 
d="M595 307v393h100v-393q0 -146 -84 -229.5t-226 -83.5q-141 0 -225 83.5t-84 229.5v393h101v-393q0 -103 57.5 -166.5t150.5 -63.5q95 0 152.5 63.5t57.5 166.5zM235 818l-39 39q59 62 120 62q28 0 77 -17.5t72 -17.5q37 0 69 31l39 -40q-57 -61 -117 -61q-28 0 -77 17
t-72 17q-39 0 -72 -30z" />
    <glyph glyph-name="utilde" unicode="&#x169;" 
d="M170 500v-293q0 -61 35 -99t91 -38q62 0 103.5 49.5t43.5 118.5v262h93v-500h-93v116q-28 -56 -76.5 -89t-110.5 -33q-80 0 -130 55.5t-50 143.5v307h94zM155 618l-39 39q59 62 120 62q28 0 77 -17.5t72 -17.5q37 0 69 31l39 -40q-57 -61 -117 -61q-28 0 -77 17t-72 17
q-39 0 -72 -30z" />
    <glyph glyph-name="Umacron" unicode="&#x16a;" horiz-adv-x="772" 
d="M595 307v393h100v-393q0 -146 -84 -229.5t-226 -83.5q-141 0 -225 83.5t-84 229.5v393h101v-393q0 -103 57.5 -166.5t150.5 -63.5q95 0 152.5 63.5t57.5 166.5zM548 838h-327v62h327v-62z" />
    <glyph glyph-name="umacron" unicode="&#x16b;" 
d="M170 500v-293q0 -61 35 -99t91 -38q64 0 105.5 51.5t41.5 123.5v255h93v-500h-93v116q-28 -56 -76.5 -89t-110.5 -33q-80 0 -130 55.5t-50 143.5v307h94zM469 638h-327v62h327v-62z" />
    <glyph glyph-name="Ubreve" unicode="&#x16c;" horiz-adv-x="772" 
d="M595 307v393h100v-393q0 -146 -84 -229.5t-226 -83.5q-141 0 -225 83.5t-84 229.5v393h101v-393q0 -103 57.5 -166.5t150.5 -63.5q95 0 152.5 63.5t57.5 166.5zM210 882l46 48q49 -49 129 -49q81 0 128 49l46 -48q-68 -70 -174 -70q-107 0 -175 70z" />
    <glyph glyph-name="ubreve" unicode="&#x16d;" 
d="M170 500v-293q0 -61 35 -99t91 -38q62 0 103.5 49.5t43.5 118.5v262h93v-500h-93v116q-28 -56 -76.5 -89t-110.5 -33q-80 0 -130 55.5t-50 143.5v307h94zM131 682l46 48q49 -49 129 -49q81 0 128 49l46 -48q-68 -70 -174 -70q-107 0 -175 70z" />
    <glyph glyph-name="Uring" unicode="&#x16e;" horiz-adv-x="772" 
d="M595 307v393h100v-393q0 -146 -84 -229.5t-226 -83.5q-141 0 -225 83.5t-84 229.5v393h101v-393q0 -103 57.5 -166.5t150.5 -63.5q95 0 152.5 63.5t57.5 166.5zM306 871q0 36 22 58.5t57 22.5t57 -22t22 -59q0 -36 -22 -58t-57 -22t-57 22t-22 58zM342 871
q0 -19 12 -30.5t31 -11.5t30.5 11.5t11.5 30.5t-11.5 31t-30.5 12t-31 -12t-12 -31z" />
    <glyph glyph-name="uring" unicode="&#x16f;" 
d="M170 500v-293q0 -61 35 -99t91 -38q64 0 105.5 51.5t41.5 123.5v255h93v-500h-93v116q-28 -56 -76.5 -89t-110.5 -33q-80 0 -130 55.5t-50 143.5v307h94zM226 671q0 36 22 58.5t57 22.5t57 -22t22 -59q0 -36 -22 -58t-57 -22t-57 22t-22 58zM262 671q0 -19 12 -30.5
t31 -11.5t30.5 11.5t11.5 30.5t-11.5 31t-30.5 12t-31 -12t-12 -31z" />
    <glyph glyph-name="Uhungarumlaut" unicode="&#x170;" horiz-adv-x="772" 
d="M595 307v393h100v-393q0 -146 -84 -229.5t-226 -83.5q-141 0 -225 83.5t-84 229.5v393h101v-393q0 -103 57.5 -166.5t150.5 -63.5q95 0 152.5 63.5t57.5 166.5zM340 950l57 -59l-166 -125l-37 38zM568 950l57 -59l-166 -125l-36 38z" />
    <glyph glyph-name="uhungarumlaut" unicode="&#x171;" 
d="M170 500v-293q0 -61 35 -99t91 -38q62 0 103.5 49.5t43.5 118.5v262h93v-500h-93v116q-28 -56 -76.5 -89t-110.5 -33q-80 0 -130 55.5t-50 143.5v307h94zM261 750l57 -59l-166 -125l-37 38zM489 750l57 -59l-166 -125l-36 38z" />
    <glyph glyph-name="Uogonek" unicode="&#x172;" horiz-adv-x="772" 
d="M595 307v393h100v-393q0 -128 -65 -208.5t-178 -98.5l-9 -12q-9 -12 -20.5 -29t-23.5 -37t-20 -41.5t-8 -37.5q0 -39 38 -39q29 0 54 23l37 -39q-41 -41 -93 -41q-40 0 -66 23t-26 60q0 79 68 164q-141 1 -224 84t-83 229v393h101v-393q0 -103 57.5 -166.5t150.5 -63.5
q95 0 152.5 63.5t57.5 166.5z" />
    <glyph glyph-name="uogonek" unicode="&#x173;" 
d="M170 500v-293q0 -61 35 -99t91 -38q64 0 105.5 51.5t41.5 123.5v255h93v-500q-9 -11 -22.5 -29.5t-36.5 -60.5t-23 -67q0 -39 38 -39q29 0 54 23l37 -39q-41 -41 -93 -41q-40 0 -66 23t-26 60q0 39 18 81.5t36 65.5l19 23h-28v116q-28 -56 -76.5 -89t-110.5 -33
q-80 0 -130 55.5t-50 143.5v307h94z" />
    <glyph glyph-name="Wcircumflex" unicode="&#x174;" horiz-adv-x="1191" 
d="M399 0h-108l-244 700h97l199 -569l197 569h108l197 -569l199 569h97l-244 -700h-108l-195 567zM432 835l163 115l163 -115l-47 -48l-116 83l-116 -83z" />
    <glyph glyph-name="wcircumflex" unicode="&#x175;" horiz-adv-x="904" 
d="M318 0h-88l-181 500h90l137 -376l134 376h85l132 -376l138 376h90l-182 -500h-87l-134 368zM288 635l163 115l163 -115l-47 -48l-116 83l-116 -83z" />
    <glyph glyph-name="Ycircumflex" unicode="&#x176;" horiz-adv-x="748" 
d="M324 0v257l-276 443h104l222 -350l222 350h104l-276 -443v-257h-100zM210 835l163 115l163 -115l-47 -48l-116 83l-116 -83z" />
    <glyph glyph-name="ycircumflex" unicode="&#x177;" horiz-adv-x="633" 
d="M585 500l-267 -593q-60 -138 -159 -138q-75 0 -121 46l48 49q20 -19 66 -19q29 0 49 24t41 70l28 62l-222 499h91l176 -392l178 392h92zM153 635l163 115l163 -115l-47 -48l-116 83l-116 -83z" />
    <glyph glyph-name="Ydieresis" unicode="&#x178;" horiz-adv-x="748" 
d="M324 0v257l-276 443h104l222 -350l222 350h104l-276 -443v-257h-100zM212 800v100h94v-100h-94zM441 800v100h93v-100h-93z" />
    <glyph glyph-name="Zacute" unicode="&#x179;" horiz-adv-x="749" 
d="M78 617v83h601v-51l-469 -566h475v-83h-615v51l468 566h-460zM418 950l57 -59l-166 -125l-37 38z" />
    <glyph glyph-name="zacute" unicode="&#x17a;" horiz-adv-x="578" 
d="M74 424v76h429v-48l-314 -376h318v-76h-438v48l307 376h-302zM333 750l57 -59l-166 -125l-37 38z" />
    <glyph glyph-name="Zdotaccent" unicode="&#x17b;" horiz-adv-x="749" 
d="M78 617v83h601v-51l-469 -566h475v-83h-615v51l468 566h-460zM327 800v100h94v-100h-94z" />
    <glyph glyph-name="zdotaccent" unicode="&#x17c;" horiz-adv-x="578" 
d="M74 424v76h429v-48l-314 -376h318v-76h-438v48l307 376h-302zM241 600v100h94v-100h-94z" />
    <glyph glyph-name="Zcaron" unicode="&#x17d;" horiz-adv-x="749" 
d="M78 617v83h601v-51l-469 -566h475v-83h-615v51l468 566h-460zM537 902l-163 -116l-163 116l47 48l116 -83l116 83z" />
    <glyph glyph-name="zcaron" unicode="&#x17e;" horiz-adv-x="578" 
d="M74 424v76h429v-48l-314 -376h318v-76h-438v48l307 376h-302zM451 702l-163 -116l-163 116l47 48l116 -83l116 83z" />
    <glyph glyph-name="longs" unicode="&#x17f;" horiz-adv-x="426" 
d="M399 676l-49 -50q-32 29 -81 29q-43 0 -71 -28t-28 -72v-555h-94v544q0 84 51.5 135.5t134.5 51.5q87 0 137 -55z" />
    <glyph glyph-name="uni018F" unicode="&#x18f;" horiz-adv-x="795" 
d="M75 385h568q-10 106 -82.5 172t-181.5 66q-139 0 -213 -79l-59 60q102 102 270 102q163 0 266 -99t103 -257t-93.5 -257t-242.5 -99t-242 99t-93 257v35zM643 309h-466q11 -104 75 -168.5t158 -64.5q95 0 158.5 64t74.5 169z" />
    <glyph glyph-name="florin" unicode="&#x192;" horiz-adv-x="581" 
d="M156 424v76h75v44q0 84 51.5 135.5t134.5 51.5q85 0 137 -55l-49 -50q-32 29 -81 29q-43 0 -71 -28t-28 -72v-55h180v-76h-180v-478q0 -79 -48 -128t-124 -49t-126 50l48 51q25 -25 71 -25q37 0 61 27t24 70v482h-75z" />
    <glyph glyph-name="uni01DD" unicode="&#x1dd;" horiz-adv-x="576" 
d="M48 278h384q-6 68 -56.5 110t-127.5 42q-90 0 -142 -50l-51 53q76 73 198 73q121 0 197 -71.5t76 -184.5q0 -114 -66.5 -185t-173.5 -71q-106 0 -172 70.5t-66 184.5v29zM431 212h-290q2 -63 42.5 -103t100.5 -40q59 0 99 39.5t48 103.5z" />
    <glyph glyph-name="AEacute" unicode="&#x1fc;" horiz-adv-x="921" 
d="M48 0l324 700h481v-83h-333v-219h304v-83h-304v-232h341v-83h-442v181h-187l-85 -181h-99zM268 264h151v323zM558 950l57 -59l-166 -125l-37 38z" />
    <glyph glyph-name="aeacute" unicode="&#x1fd;" horiz-adv-x="910" 
d="M863 222h-385q6 -68 54 -110.5t121 -42.5q85 0 135 50l51 -53q-72 -72 -191 -72q-72 0 -128 28.5t-87 79.5q-59 -106 -207 -106q-79 0 -129 39.5t-50 103.5q0 72 65 117t168 45q52 0 105 -8v11q0 124 -140 124q-72 0 -130 -40l-47 48q73 70 191 70q60 0 107.5 -25
t72.5 -68q64 93 186 93q106 0 172 -71t66 -185v-28zM480 287h289q-1 63 -41.5 103t-100.5 40q-59 0 -99 -39.5t-48 -103.5zM385 229q-40 15 -96 15q-65 0 -106.5 -27t-41.5 -69q0 -36 29.5 -57.5t75.5 -21.5q60 0 98.5 45.5t40.5 114.5zM499 750l57 -59l-166 -125l-37 38z
" />
    <glyph glyph-name="Oslashacute" unicode="&#x1fe;" horiz-adv-x="809" 
d="M221 -50h-95l62 109q-66 47 -102.5 122t-36.5 169q0 158 98.5 257t256.5 99q77 0 143 -26l41 70h94l-63 -109q67 -47 104 -122.5t37 -168.5q0 -158 -99 -257t-257 -99q-77 0 -143 26zM660 350q0 131 -87 207l-269 -461q48 -19 100 -19q113 0 184.5 76.5t71.5 196.5z
M149 350q0 -131 87 -207l269 460q-46 20 -101 20q-112 0 -183.5 -76.5t-71.5 -196.5zM448 950l57 -59l-166 -125l-37 38z" />
    <glyph glyph-name="oslashacute" unicode="&#x1ff;" 
d="M174 -50h-81l53 93q-97 72 -97 207q0 114 71.5 185t185.5 71q50 0 98 -16l35 60h81l-54 -94q98 -71 98 -206q0 -114 -71.5 -185t-186.5 -71q-56 0 -97 16zM470 250q0 78 -49 125l-173 -295q24 -10 58 -10q73 0 118.5 50t45.5 130zM142 250q0 -79 49 -126l173 295
q-27 11 -58 11q-72 0 -118 -50.5t-46 -129.5zM350 750l57 -59l-166 -125l-37 38z" />
    <glyph glyph-name="Scommaaccent" unicode="&#x218;" horiz-adv-x="572" 
d="M514 202q0 -93 -70 -150.5t-174 -57.5q-130 0 -225 101l51 53q66 -71 172 -71q63 0 104.5 33t41.5 85q0 39 -36.5 65.5t-88.5 44t-104.5 39t-89 63.5t-36.5 104q0 88 62 141.5t157 53.5q130 0 223 -101l-50 -54q-66 72 -164 72q-60 0 -94 -29.5t-34 -77.5q0 -36 26.5 -63
t65.5 -42t85.5 -33t85.5 -37t65.5 -54.5t26.5 -84.5zM239 -293l-30 32q55 56 55 181h72q0 -114 -97 -213z" />
    <glyph glyph-name="scommaaccent" unicode="&#x219;" horiz-adv-x="449" 
d="M406 146q0 -67 -55 -109.5t-132 -42.5q-102 0 -173 73l48 50q47 -47 125 -47q39 0 66.5 21t27.5 52q0 25 -26.5 42.5t-64 29.5t-75 27.5t-64 45.5t-26.5 74q0 64 48.5 104.5t119.5 40.5q101 0 169 -73l-49 -51q-44 47 -115 47q-35 0 -57 -18.5t-22 -46.5q0 -27 26.5 -46
t63.5 -31.5t74.5 -27.5t64 -43.5t26.5 -70.5zM187 -293l-30 32q55 56 55 181h72q0 -114 -97 -213z" />
    <glyph glyph-name="dotlessj" unicode="&#x237;" horiz-adv-x="286" 
d="M-88 -181l49 51q25 -25 70 -25q37 0 61 27t24 70v558h94v-554q0 -79 -47.5 -128t-124.5 -49q-76 0 -126 50z" />
    <glyph glyph-name="circumflex" unicode="&#x2c6;" horiz-adv-x="423" 
d="M51 635l163 115l163 -115l-47 -48l-116 83l-116 -83z" />
    <glyph glyph-name="caron" unicode="&#x2c7;" horiz-adv-x="423" 
d="M377 702l-163 -116l-163 116l47 48l116 -83l116 83z" />
    <glyph glyph-name="breve" unicode="&#x2d8;" horiz-adv-x="444" 
d="M47 682l46 48q49 -49 129 -49q81 0 128 49l46 -48q-68 -70 -174 -70q-107 0 -175 70z" />
    <glyph glyph-name="dotaccent" unicode="&#x2d9;" horiz-adv-x="246" 
d="M76 600v100h94v-100h-94z" />
    <glyph glyph-name="ring" unicode="&#x2da;" horiz-adv-x="290" 
d="M69 671q0 36 22 58.5t57 22.5t57 -22t22 -59q0 -36 -22 -58t-57 -22t-57 22t-22 58zM105 671q0 -19 12 -30.5t31 -11.5t30.5 11.5t11.5 30.5t-11.5 31t-30.5 12q-20 0 -31.5 -12t-11.5 -31z" />
    <glyph glyph-name="ogonek" unicode="&#x2db;" horiz-adv-x="303" 
d="M168 0h65q-9 -11 -22.5 -29.5t-36.5 -60.5t-23 -67q0 -39 38 -39q29 0 54 23l37 -39q-41 -41 -93 -41q-40 0 -66 23t-26 60q0 39 18.5 81.5t36.5 65.5z" />
    <glyph glyph-name="tilde" unicode="&#x2dc;" horiz-adv-x="482" 
d="M93 618l-39 39q59 62 120 62q28 0 77 -17.5t72 -17.5q37 0 69 31l39 -40q-57 -61 -117 -61q-28 0 -77 17t-72 17q-39 0 -72 -30z" />
    <glyph glyph-name="hungarumlaut" unicode="&#x2dd;" horiz-adv-x="549" 
d="M233 750l57 -59l-166 -125l-37 38zM461 750l57 -59l-166 -125l-36 38z" />
    <glyph glyph-name="tonos" unicode="&#x384;" horiz-adv-x="321" 
d="M182 754l56 -59l-106 -126l-37 37z" />
    <glyph glyph-name="dieresistonos" unicode="&#x385;" horiz-adv-x="528" 
d="M55 600v100h93v-100h-93zM370 600v100h93v-100h-93zM293 825l57 -59l-107 -126l-37 37z" />
    <glyph glyph-name="Alphatonos" unicode="&#x386;" horiz-adv-x="845" 
d="M372 700h102l323 -700h-98l-85 181h-382l-85 -181h-99zM423 594l-155 -330h310zM210 709l56 -59l-106 -126l-37 37z" />
    <glyph glyph-name="Epsilontonos" unicode="&#x388;" horiz-adv-x="816" 
d="M147 702l56 -59l-106 -126l-37 37zM260 0v700h484v-83h-383v-219h354v-83h-354v-232h391v-83h-492z" />
    <glyph glyph-name="Etatonos" unicode="&#x389;" horiz-adv-x="938" 
d="M146 709l57 -59l-107 -127l-36 38zM761 0v315h-400v-315h-100v700h100v-302h400v302h100v-700h-100z" />
    <glyph glyph-name="Iotatonos" unicode="&#x38a;" horiz-adv-x="438" 
d="M146 709l57 -59l-107 -127l-36 38zM361 0h-100v700h100v-700z" />
    <glyph glyph-name="Omicrontonos" unicode="&#x38c;" horiz-adv-x="919" 
d="M148 709l56 -59l-106 -126l-37 37zM159 350q0 158 98.5 257t256.5 99t257 -99t99 -257t-99 -257t-257 -99t-256.5 99t-98.5 257zM259 350q0 -120 71.5 -196.5t183.5 -76.5q113 0 184.5 76.5t71.5 196.5t-71.5 196.5t-184.5 76.5q-112 0 -183.5 -76.5t-71.5 -196.5z" />
    <glyph glyph-name="Upsilontonos" unicode="&#x38e;" horiz-adv-x="932" 
d="M147 709l56 -59l-106 -126l-37 37zM507 0v257l-276 443h104l222 -350l222 350h104l-276 -443v-257h-100z" />
    <glyph glyph-name="Omegatonos" unicode="&#x38f;" horiz-adv-x="934" 
d="M148 709l56 -59l-106 -127l-37 38zM599 0v83q82 24 131 95.5t49 171.5q0 120 -71.5 196.5t-184.5 76.5q-112 0 -183.5 -76.5t-71.5 -196.5q0 -99 49 -171t132 -96v-83h-282v83h123q-58 44 -90.5 113t-32.5 154q0 158 99 257t257 99t257 -99t99 -257q0 -85 -32.5 -154
t-90.5 -113h123v-83h-280z" />
    <glyph glyph-name="iotadieresistonos" unicode="&#x390;" horiz-adv-x="340" 
d="M259 84l49 -50q-37 -40 -98 -40q-59 0 -96.5 38.5t-37.5 99.5v368h94v-375q0 -24 14 -39.5t36 -15.5q23 0 39 14zM-82 600v100h93v-100h-93zM233 600v100h93v-100h-93zM156 825l57 -59l-107 -126l-37 37z" />
    <glyph glyph-name="Alpha" unicode="&#x391;" horiz-adv-x="845" 
d="M372 700h102l323 -700h-98l-85 181h-382l-85 -181h-99zM423 594l-155 -330h310z" />
    <glyph glyph-name="Beta" unicode="&#x392;" horiz-adv-x="629" 
d="M76 0v700h274q80 0 130.5 -48.5t50.5 -125.5q0 -52 -23 -93t-62 -62q56 -17 90.5 -65.5t34.5 -115.5q0 -84 -54.5 -137t-142.5 -53h-298zM177 83h164q56 0 90.5 33.5t34.5 86.5t-34.5 86.5t-90.5 33.5h-164v-240zM320 617h-143v-210h143q50 0 80 29.5t30 75.5t-30 75.5
t-80 29.5z" />
    <glyph glyph-name="Gamma" unicode="&#x393;" horiz-adv-x="603" 
d="M76 0v700h464v-83h-363v-617h-101z" />
    <glyph glyph-name="uni0394" unicode="&#x394;" horiz-adv-x="845" 
d="M797 0h-749l324 700h102zM423 591l-233 -508h465z" />
    <glyph glyph-name="Epsilon" unicode="&#x395;" horiz-adv-x="631" 
d="M76 0v700h484v-83h-383v-219h354v-83h-354v-232h391v-83h-492z" />
    <glyph glyph-name="Zeta" unicode="&#x396;" horiz-adv-x="749" 
d="M78 617v83h601v-51l-469 -566h475v-83h-615v51l468 566h-460z" />
    <glyph glyph-name="Eta" unicode="&#x397;" horiz-adv-x="753" 
d="M576 0v315h-399v-315h-101v700h101v-302h399v302h100v-700h-100z" />
    <glyph glyph-name="Theta" unicode="&#x398;" horiz-adv-x="809" 
d="M49 350q0 158 98.5 257t256.5 99t257 -99t99 -257t-99 -257t-257 -99t-256.5 99t-98.5 257zM149 350q0 -120 71.5 -196.5t183.5 -76.5q113 0 184.5 76.5t71.5 196.5t-71.5 196.5t-184.5 76.5q-112 0 -183.5 -76.5t-71.5 -196.5zM210 320v70h389v-70h-389z" />
    <glyph glyph-name="Iota" unicode="&#x399;" horiz-adv-x="253" 
d="M177 0h-101v700h101v-700z" />
    <glyph glyph-name="Kappa" unicode="&#x39a;" horiz-adv-x="688" 
d="M177 0h-101v700h101v-323l321 323h125l-295 -300l319 -400h-114l-271 331l-85 -93v-238z" />
    <glyph glyph-name="Lambda" unicode="&#x39b;" horiz-adv-x="845" 
d="M423 587l-264 -587h-111l324 700h102l323 -700h-110z" />
    <glyph glyph-name="Mu" unicode="&#x39c;" horiz-adv-x="946" 
d="M76 0v700h133l264 -559l264 559h133v-700h-101v550l-258 -550h-75l-259 550v-550h-101z" />
    <glyph glyph-name="Nu" unicode="&#x39d;" horiz-adv-x="764" 
d="M588 0l-411 542v-542h-101v700h101l411 -542v542h100v-700h-100z" />
    <glyph glyph-name="Xi" unicode="&#x39e;" horiz-adv-x="674" 
d="M66 0v83h542v-83h-542zM600 617h-525v83h525v-83zM571 315h-468v83h468v-83z" />
    <glyph glyph-name="Omicron" unicode="&#x39f;" horiz-adv-x="809" 
d="M49 350q0 158 98.5 257t256.5 99t257 -99t99 -257t-99 -257t-257 -99t-256.5 99t-98.5 257zM149 350q0 -120 71.5 -196.5t183.5 -76.5q113 0 184.5 76.5t71.5 196.5t-71.5 196.5t-184.5 76.5q-112 0 -183.5 -76.5t-71.5 -196.5z" />
    <glyph glyph-name="Pi" unicode="&#x3a0;" horiz-adv-x="749" 
d="M573 0v617h-396v-617h-101v700h597v-700h-100z" />
    <glyph glyph-name="Rho" unicode="&#x3a1;" horiz-adv-x="606" 
d="M76 0v700h259q98 0 160 -62t62 -161q0 -98 -62 -160t-160 -62h-158v-255h-101zM325 617h-148v-279h148q58 0 95 39t37 100q0 62 -37 101t-95 39z" />
    <glyph glyph-name="Sigma" unicode="&#x3a3;" horiz-adv-x="674" 
d="M600 617h-373l216 -260l-228 -274h393v-83h-542v41l260 316l-251 302v41h525v-83z" />
    <glyph glyph-name="Tau" unicode="&#x3a4;" horiz-adv-x="753" 
d="M56 617v83h641v-83h-270v-617h-101v617h-270z" />
    <glyph glyph-name="Upsilon" unicode="&#x3a5;" horiz-adv-x="748" 
d="M324 0v257l-276 443h104l222 -350l222 350h104l-276 -443v-257h-100z" />
    <glyph glyph-name="Phi" unicode="&#x3a6;" horiz-adv-x="801" 
d="M351 0v66q-135 0 -219.5 79t-84.5 205t84.5 205t219.5 79v66h100v-66q135 0 219.5 -79t84.5 -205t-84.5 -205t-219.5 -79v-66h-100zM451 551v-402q90 0 146.5 55.5t56.5 144.5q0 90 -56.5 146t-146.5 56zM351 149v402q-89 0 -146.5 -56.5t-57.5 -144.5t57.5 -144.5
t146.5 -56.5z" />
    <glyph glyph-name="Chi" unicode="&#x3a7;" horiz-adv-x="767" 
d="M157 0h-112l279 357l-266 343h113l211 -272l214 272h113l-267 -343l281 -357h-114l-227 286z" />
    <glyph glyph-name="Psi" unicode="&#x3a8;" horiz-adv-x="787" 
d="M342 0v187q-118 0 -192 64t-74 167v282h101v-275q0 -68 46 -111.5t119 -43.5v430h100v-430q76 0 123.5 43t47.5 112v54q0 138 -57 192l46 48q112 -112 112 -240v-61q0 -103 -75.5 -167t-196.5 -64v-187h-100z" />
    <glyph glyph-name="uni03A9" unicode="&#x3a9;" horiz-adv-x="822" 
d="M486 0v83q83 24 131.5 95.5t48.5 171.5q0 120 -71 196.5t-184 76.5q-112 0 -183.5 -76.5t-71.5 -196.5q0 -99 49 -171t131 -96v-83h-287v83h129q-123 93 -123 267q0 158 99 257t257 99t257 -99t99 -257q0 -85 -32.5 -154t-91.5 -113h130v-83h-287z" />
    <glyph glyph-name="Iotadieresis" unicode="&#x3aa;" horiz-adv-x="246" 
d="M177 0h-101v700h101v-700zM-22 775v100h93v-100h-93zM181 775v100h94v-100h-94z" />
    <glyph glyph-name="Upsilondieresis" unicode="&#x3ab;" horiz-adv-x="748" 
d="M324 0v257l-276 443h104l222 -350l222 350h104l-276 -443v-257h-100zM212 800v100h94v-100h-94zM441 800v100h93v-100h-93z" />
    <glyph glyph-name="alphatonos" unicode="&#x3ac;" horiz-adv-x="594" 
d="M428 0v100q-25 -48 -72.5 -76t-107.5 -28q-89 0 -144 67.5t-55 176.5q0 118 79 192t205 74q112 0 188 -36v-470h-93zM428 197v217q-51 16 -111 16q-77 0 -126 -53t-49 -137q0 -75 40.5 -121.5t104.5 -46.5q60 0 99.5 36.5t41.5 88.5zM315 754l56 -59l-106 -126l-37 37z
" />
    <glyph glyph-name="epsilontonos" unicode="&#x3ad;" horiz-adv-x="483" 
d="M264 70q86 0 127 43l42 -43q-76 -76 -192 -76q-88 0 -142 36.5t-54 96.5q0 45 28 79.5t75 47.5q-44 15 -68 46t-24 71q0 61 49 98t130 37q116 0 189 -71l-40 -43q-45 38 -121 38q-50 0 -81.5 -20.5t-31.5 -52.5t25 -51.5t65 -19.5h80v-69h-95q-39 0 -62.5 -20.5
t-23.5 -52.5t35 -53t90 -21zM266 754l56 -59l-106 -126l-37 37z" />
    <glyph glyph-name="etatonos" unicode="&#x3ae;" 
d="M443 0v297q0 60 -35 96.5t-91 36.5q-62 0 -103.5 -49.5t-43.5 -118.5v-262h-94v500h94v-117q27 56 76 89.5t110 33.5q80 0 130 -53.5t50 -139.5v-313h-93zM324 754l56 -59l-106 -126l-37 37z" />
    <glyph glyph-name="iotatonos" unicode="&#x3af;" horiz-adv-x="340" 
d="M259 84l49 -50q-37 -40 -98 -40q-59 0 -96.5 38.5t-37.5 99.5v368h94v-375q0 -24 14 -39.5t36 -15.5q23 0 39 14zM139 754l56 -59l-106 -126l-37 37z" />
    <glyph glyph-name="upsilondieresistonos" unicode="&#x3b0;" horiz-adv-x="616" 
d="M405 464l53 54q39 -37 64 -96t25 -123v-74q0 -103 -65.5 -167t-169.5 -64t-170 64t-66 167v275h94v-275q0 -68 39.5 -111.5t102.5 -43.5t102 43.5t39 111.5v74q0 114 -48 165zM98 600v100h93v-100h-93zM413 600v100h93v-100h-93zM336 825l57 -59l-107 -126l-37 37z" />
    <glyph glyph-name="alpha" unicode="&#x3b1;" horiz-adv-x="594" 
d="M428 0v100q-25 -48 -72.5 -76t-107.5 -28q-89 0 -144 67.5t-55 176.5q0 118 79 192t205 74q112 0 188 -36v-470h-93zM428 197v217q-51 16 -111 16q-77 0 -126 -53t-49 -137q0 -75 40.5 -121.5t104.5 -46.5q60 0 99.5 36.5t41.5 88.5z" />
    <glyph glyph-name="beta" unicode="&#x3b2;" horiz-adv-x="578" 
d="M76 548q0 82 59.5 132.5t154.5 50.5q96 0 155.5 -48.5t59.5 -126.5q0 -57 -33.5 -99.5t-92.5 -61.5q69 -17 109.5 -69.5t40.5 -127.5q0 -90 -64.5 -146t-168.5 -56q-70 0 -126 25v-171h-94v698zM253 357v69h22q61 0 98.5 32t37.5 82q0 51 -33.5 83t-87.5 32
q-53 0 -86.5 -34.5t-33.5 -88.5v-440q51 -20 116 -20q67 0 108 39.5t41 101.5q0 64 -36.5 104t-96.5 40h-49z" />
    <glyph glyph-name="gamma" unicode="&#x3b3;" horiz-adv-x="636" 
d="M269 -225v225l-221 500h92l176 -398l177 398h92l-222 -500v-225h-94z" />
    <glyph glyph-name="delta" unicode="&#x3b4;" horiz-adv-x="609" 
d="M107 649v76h409v-76h-278q7 -3 18.5 -8.5t45 -25.5t64.5 -42t68 -57.5t64 -73.5t45.5 -88.5t18.5 -103.5q0 -114 -71.5 -185t-186.5 -71q-114 0 -185.5 71t-71.5 185t69.5 185t181.5 71q29 0 50 -7q-47 44 -107 81.5t-97 53.5zM468 250q0 60 -42 132q-45 48 -122 48
q-72 0 -118 -50.5t-46 -129.5t46 -129.5t118 -50.5q73 0 118.5 50t45.5 130z" />
    <glyph glyph-name="epsilon" unicode="&#x3b5;" horiz-adv-x="483" 
d="M264 70q86 0 127 43l42 -43q-76 -76 -192 -76q-88 0 -142 36.5t-54 96.5q0 45 28 79.5t75 47.5q-44 15 -68 46t-24 71q0 61 49 98t130 37q116 0 189 -71l-40 -43q-45 38 -121 38q-50 0 -81.5 -20.5t-31.5 -52.5t25 -51.5t65 -19.5h80v-69h-95q-39 0 -62.5 -20.5
t-23.5 -52.5t35 -53t90 -21z" />
    <glyph glyph-name="zeta" unicode="&#x3b6;" horiz-adv-x="523" 
d="M481 725v-76q-14 -10 -37 -28t-81 -71t-103 -103.5t-81.5 -115t-36.5 -116.5q0 -145 292 -145v-70q0 -41 -28 -90t-66 -87l-34 35q54 54 56 140q-148 10 -230.5 63.5t-82.5 153.5q0 60 32 126.5t77.5 119t91.5 96.5t78 68l32 24h-270v76h391z" />
    <glyph glyph-name="eta" unicode="&#x3b7;" 
d="M443 0v297q0 60 -35 96.5t-91 36.5q-62 0 -103.5 -49.5t-43.5 -118.5v-262h-94v500h94v-117q27 56 76 89.5t110 33.5q80 0 130 -53.5t50 -139.5v-313h-93z" />
    <glyph glyph-name="theta" unicode="&#x3b8;" horiz-adv-x="593" 
d="M49 362q0 164 68.5 266.5t178.5 102.5t179 -102.5t69 -266.5t-69 -266t-179 -102t-178.5 102.5t-68.5 265.5zM296 70q65 0 107 71.5t47 186.5h-308q6 -116 48 -187t106 -71zM296 655q-63 0 -105.5 -70t-48.5 -184h308q-6 114 -47.5 184t-106.5 70z" />
    <glyph glyph-name="iota" unicode="&#x3b9;" horiz-adv-x="340" 
d="M259 84l49 -50q-37 -40 -98 -40q-59 0 -96.5 38.5t-37.5 99.5v368h94v-375q0 -24 14 -39.5t36 -15.5q23 0 39 14z" />
    <glyph glyph-name="kappa" unicode="&#x3ba;" horiz-adv-x="570" 
d="M170 0h-94v500h94v-232l219 232h111l-190 -203l216 -297h-104l-171 235l-81 -84v-151z" />
    <glyph glyph-name="lambda" unicode="&#x3bb;" horiz-adv-x="633" 
d="M309 643l276 -643h-92l-169 392l-190 -392h-92l238 499l-46 112q-19 44 -69 44q-39 0 -60 -22l-50 52q44 46 114 46q50 0 86.5 -23.5t53.5 -64.5z" />
    <glyph glyph-name="uni03BC" unicode="&#x3bc;" 
d="M170 500v-293q0 -61 35 -99t91 -38q63 0 104 50t43 121v259h93v-500h-93v118q-27 -57 -75.5 -90.5t-111.5 -33.5q-55 0 -88 36v-255h-92v725h94z" />
    <glyph glyph-name="nu" unicode="&#x3bd;" horiz-adv-x="636" 
d="M364 0h-95l-221 500h92l176 -398l177 398h92z" />
    <glyph glyph-name="xi" unicode="&#x3be;" horiz-adv-x="495" 
d="M280 655q-51 0 -82.5 -32t-31.5 -83q0 -50 38 -82t98 -32h83v-69h-110q-60 0 -96.5 -40t-36.5 -104q0 -73 77.5 -108t214.5 -35v-70q0 -41 -28 -90t-66 -87l-34 35q54 54 56 140q-147 9 -230 58.5t-83 141.5q0 75 40 127.5t109 69.5q-58 19 -91.5 61.5t-33.5 99.5
q0 78 57 126.5t150 48.5q99 0 174 -73l-52 -52q-49 49 -122 49z" />
    <glyph glyph-name="omicron" unicode="&#x3bf;" 
d="M49 250q0 114 71.5 185t185.5 71q115 0 186.5 -71t71.5 -185t-71.5 -185t-186.5 -71q-114 0 -185.5 71t-71.5 185zM142 250q0 -79 46 -129.5t118 -50.5q73 0 118.5 50t45.5 130t-45.5 130t-118.5 50q-72 0 -118 -50.5t-46 -129.5z" />
    <glyph glyph-name="pi" unicode="&#x3c0;" horiz-adv-x="603" 
d="M433 0v424h-263v-424h-94v500h450v-500h-93z" />
    <glyph glyph-name="rho" unicode="&#x3c1;" horiz-adv-x="618" 
d="M76 -225v497q0 104 69 169t179 65q109 0 177 -71t68 -185q0 -113 -71.5 -183.5t-186.5 -70.5q-82 0 -141 33v-254h-94zM170 272v-173q57 -27 133 -27t124 49.5t48 128.5q0 80 -42 130t-109 50t-110.5 -44.5t-43.5 -113.5z" />
    <glyph glyph-name="uni03C2" unicode="&#x3c2;" horiz-adv-x="533" 
d="M340 -177l-34 35q54 54 56 140q-147 11 -230 73.5t-83 178.5q0 114 71.5 185t185.5 71t187 -73l-51 -52q-47 49 -130 49q-76 0 -123 -50t-47 -130q0 -93 77.5 -136.5t214.5 -43.5v-70q0 -41 -28 -90t-66 -87z" />
    <glyph glyph-name="sigma" unicode="&#x3c3;" horiz-adv-x="633" 
d="M49 250q0 111 71.5 180.5t185.5 69.5h291v-76h-111q78 -65 78 -174q0 -114 -71.5 -185t-186.5 -71q-114 0 -185.5 71t-71.5 185zM142 250q0 -79 46 -129.5t118 -50.5q73 0 118.5 50t45.5 130q0 77 -45.5 125.5t-118.5 48.5q-72 0 -118 -49t-46 -125z" />
    <glyph glyph-name="tau" unicode="&#x3c4;" horiz-adv-x="586" 
d="M428 84l50 -50q-37 -40 -99 -40q-59 0 -96 38.5t-37 99.5v292h-190v76h474v-76h-190v-299q0 -24 14 -39.5t35 -15.5q25 0 39 14z" />
    <glyph glyph-name="upsilon" unicode="&#x3c5;" horiz-adv-x="616" 
d="M405 464l53 54q39 -37 64 -96t25 -123v-74q0 -103 -65.5 -167t-169.5 -64t-170 64t-66 167v275h94v-275q0 -68 39.5 -111.5t102.5 -43.5t102 43.5t39 111.5v74q0 114 -48 165z" />
    <glyph glyph-name="phi" unicode="&#x3c6;" horiz-adv-x="720" 
d="M144 250q0 -77 47 -126t122 -49v426h94q117 0 190.5 -69.5t73.5 -181.5t-73.5 -181.5t-190.5 -69.5v-224h-94v224q-118 0 -191 69.5t-73 181.5q0 142 114 234l61 -64q-80 -62 -80 -170zM407 425v-350q74 0 121 49t47 126t-47 126t-121 49z" />
    <glyph glyph-name="chi" unicode="&#x3c7;" horiz-adv-x="604" 
d="M149 0h-106l203 256l-193 244h107l141 -181l142 181h107l-194 -244l205 -256h-107l-153 192z" />
    <glyph glyph-name="psi" unicode="&#x3c8;" horiz-adv-x="715" 
d="M312 -225v219q-104 0 -170 64t-66 167v275h94v-275q0 -68 39.5 -111.5t102.5 -43.5v545h94v-545q64 0 105 43.5t41 111.5v75q0 113 -48 164l52 54q39 -36 64 -95t25 -123v-75q0 -103 -66.5 -167t-172.5 -64v-219h-94z" />
    <glyph glyph-name="omega" unicode="&#x3c9;" horiz-adv-x="803" 
d="M170 300v-129q0 -44 26 -72.5t67 -28.5q40 0 65.5 28.5t25.5 72.5v246h94v-246q1 -45 26.5 -73t65.5 -28q41 0 67 28.5t26 72.5v129q0 113 -48 164l52 54q39 -36 64 -95t25 -123v-129q0 -79 -50.5 -128t-131.5 -49q-96 0 -143 66q-47 -66 -142 -66q-81 0 -132 49t-51 128
v129q0 64 25 122.5t64 95.5l53 -55q-48 -51 -48 -163z" />
    <glyph glyph-name="iotadieresis" unicode="&#x3ca;" horiz-adv-x="340" 
d="M259 84l49 -50q-37 -40 -98 -40q-59 0 -96.5 38.5t-37.5 99.5v368h94v-375q0 -24 14 -39.5t36 -15.5q23 0 39 14zM-37 600v100h94v-100h-94zM192 600v100h93v-100h-93z" />
    <glyph glyph-name="upsilondieresis" unicode="&#x3cb;" horiz-adv-x="616" 
d="M405 464l53 54q39 -37 64 -96t25 -123v-74q0 -103 -65.5 -167t-169.5 -64t-170 64t-66 167v275h94v-275q0 -68 39.5 -111.5t102.5 -43.5t102 43.5t39 111.5v74q0 114 -48 165zM146 600v100h94v-100h-94zM375 600v100h93v-100h-93z" />
    <glyph glyph-name="omicrontonos" unicode="&#x3cc;" 
d="M49 250q0 114 71.5 185t185.5 71q115 0 186.5 -71t71.5 -185t-71.5 -185t-186.5 -71q-114 0 -185.5 71t-71.5 185zM142 250q0 -79 46 -129.5t118 -50.5q73 0 118.5 50t45.5 130t-45.5 130t-118.5 50q-72 0 -118 -50.5t-46 -129.5zM324 754l56 -59l-106 -126l-37 37z" />
    <glyph glyph-name="upsilontonos" unicode="&#x3cd;" horiz-adv-x="616" 
d="M405 464l53 54q39 -37 64 -96t25 -123v-74q0 -103 -65.5 -167t-169.5 -64t-170 64t-66 167v275h94v-275q0 -68 39.5 -111.5t102.5 -43.5t102 43.5t39 111.5v74q0 114 -48 165zM326 754l56 -59l-106 -126l-37 37z" />
    <glyph glyph-name="omegatonos" unicode="&#x3ce;" horiz-adv-x="803" 
d="M170 300v-129q0 -44 26 -72.5t67 -28.5q40 0 65.5 28.5t25.5 72.5v246h94v-246q1 -45 26.5 -73t65.5 -28q41 0 67 28.5t26 72.5v129q0 113 -48 164l52 54q39 -36 64 -95t25 -123v-129q0 -79 -50.5 -128t-131.5 -49q-96 0 -143 66q-47 -66 -142 -66q-81 0 -132 49t-51 128
v129q0 64 25 122.5t64 95.5l53 -55q-48 -51 -48 -163zM420 754l56 -59l-106 -126l-37 37z" />
    <glyph glyph-name="uni0400" unicode="&#x400;" horiz-adv-x="631" 
d="M76 0v700h484v-83h-383v-219h354v-83h-354v-232h391v-83h-492zM214 891l56 59l147 -146l-37 -38z" />
    <glyph glyph-name="afii10023" unicode="&#x401;" horiz-adv-x="631" 
d="M76 0v700h484v-83h-383v-219h354v-83h-354v-232h391v-83h-492zM154 800v100h94v-100h-94zM383 800v100h93v-100h-93z" />
    <glyph glyph-name="afii10051" unicode="&#x402;" horiz-adv-x="877" 
d="M677 -258l-40 41q62 62 62 217v244q0 56 -35 91t-91 35q-62 0 -103 -47.5t-43 -114.5v-208h-101v617h-270v83h641v-83h-270v-289q26 58 75 91.5t111 33.5q83 0 135 -54t52 -140v-259q0 -133 -123 -258z" />
    <glyph glyph-name="afii10052" unicode="&#x403;" horiz-adv-x="603" 
d="M76 0v700h464v-83h-363v-617h-101zM345 950l57 -59l-166 -125l-37 38z" />
    <glyph glyph-name="afii10053" unicode="&#x404;" horiz-adv-x="722" 
d="M573 398v-83h-422q10 -107 81 -172.5t179 -65.5q129 0 197 79l59 -61q-99 -101 -262 -101q-158 0 -257 99t-99 257t99.5 257t257.5 99t261 -101l-59 -61q-70 79 -197 79q-104 0 -174.5 -62t-84.5 -163h421z" />
    <glyph glyph-name="afii10054" unicode="&#x405;" horiz-adv-x="572" 
d="M514 202q0 -93 -70 -150.5t-174 -57.5q-130 0 -225 101l51 53q66 -71 172 -71q63 0 104.5 33t41.5 85q0 33 -26.5 57.5t-65.5 38t-85.5 32t-85.5 38.5t-65.5 59t-26.5 91q0 88 62 141.5t157 53.5q130 0 223 -101l-50 -54q-66 72 -164 72q-60 0 -94 -29.5t-34 -77.5
q0 -36 26.5 -63.5t65.5 -42t85.5 -33t85.5 -37.5t65.5 -54.5t26.5 -83.5z" />
    <glyph glyph-name="afii10055" unicode="&#x406;" horiz-adv-x="253" 
d="M177 0h-101v700h101v-700z" />
    <glyph glyph-name="afii10056" unicode="&#x407;" horiz-adv-x="246" 
d="M177 0h-101v700h101v-700zM-22 775v100h93v-100h-93zM181 775v100h94v-100h-94z" />
    <glyph glyph-name="afii10057" unicode="&#x408;" horiz-adv-x="577" 
d="M401 250v450h100v-450q0 -114 -72.5 -185t-188.5 -71q-117 0 -190 73l57 60q45 -50 127 -50q74 0 120.5 48.5t46.5 124.5z" />
    <glyph glyph-name="afii10058" unicode="&#x409;" horiz-adv-x="1162" 
d="M619 0v617h-290q0 -149 -5 -248.5t-16.5 -176t-33 -117.5t-52 -61t-76.5 -20q-64 0 -113 45l54 58q26 -20 53 -20t43.5 29t26.5 103.5t14 189.5t4 301h492v-262h175q97 0 157.5 -61t60.5 -158t-60.5 -158t-157.5 -61h-276zM720 83h165q57 0 92.5 38t35.5 98t-35.5 98
t-92.5 38h-165v-272z" />
    <glyph glyph-name="afii10059" unicode="&#x40a;" horiz-adv-x="1119" 
d="M576 0v315h-399v-315h-101v700h101v-302h399v302h100v-262h176q97 0 157.5 -61t60.5 -158t-60.5 -158t-157.5 -61h-276zM676 83h165q57 0 93 38t36 98t-36 98t-93 38h-165v-272z" />
    <glyph glyph-name="afii10060" unicode="&#x40b;" horiz-adv-x="877" 
d="M699 0v244q0 56 -35 91t-91 35q-61 0 -102.5 -48t-43.5 -114v-208h-101v617h-270v83h641v-83h-270v-285q28 56 76 88.5t110 32.5q83 0 135 -54t52 -140v-259h-101z" />
    <glyph glyph-name="afii10061" unicode="&#x40c;" horiz-adv-x="688" 
d="M177 0h-101v700h101v-323l321 323h125l-295 -300l319 -400h-114l-271 331l-85 -93v-238zM388 950l57 -59l-166 -125l-37 38z" />
    <glyph glyph-name="uni040D" unicode="&#x40d;" horiz-adv-x="764" 
d="M588 542l-411 -542h-101v700h101v-542l411 542h100v-700h-100v542zM280 891l56 59l147 -146l-37 -38z" />
    <glyph glyph-name="afii10062" unicode="&#x40e;" horiz-adv-x="756" 
d="M38 50l56 57q29 -30 88 -30q62 0 96 59l48 80l-278 484h104l226 -388l226 388h104l-348 -604q-55 -102 -173 -102q-90 0 -149 56zM203 882l46 48q49 -49 129 -49q81 0 128 49l46 -48q-68 -70 -174 -70q-107 0 -175 70z" />
    <glyph glyph-name="afii10145" unicode="&#x40f;" horiz-adv-x="749" 
d="M324 0h-248v700h101v-617h396v617h100v-700h-248v-175h-101v175z" />
    <glyph glyph-name="afii10017" unicode="&#x410;" horiz-adv-x="845" 
d="M372 700h102l323 -700h-98l-85 181h-382l-85 -181h-99zM423 594l-155 -330h310z" />
    <glyph glyph-name="afii10018" unicode="&#x411;" horiz-adv-x="619" 
d="M76 0v700h440v-83h-339v-205h185q91 0 148 -57.5t57 -148.5t-57 -148.5t-148 -57.5h-286zM177 83h176q51 0 83 34.5t32 88.5t-32 88.5t-83 34.5h-176v-246z" />
    <glyph glyph-name="afii10019" unicode="&#x412;" horiz-adv-x="629" 
d="M76 0v700h274q80 0 130.5 -48.5t50.5 -125.5q0 -52 -23 -93t-62 -62q56 -17 90.5 -65.5t34.5 -115.5q0 -84 -54.5 -137t-142.5 -53h-298zM177 83h164q56 0 90.5 33.5t34.5 86.5t-34.5 86.5t-90.5 33.5h-164v-240zM320 617h-143v-210h143q50 0 80 29.5t30 75.5t-30 75.5
t-80 29.5z" />
    <glyph glyph-name="afii10020" unicode="&#x413;" horiz-adv-x="603" 
d="M76 0v700h464v-83h-363v-617h-101z" />
    <glyph glyph-name="afii10021" unicode="&#x414;" horiz-adv-x="910" 
d="M76 -175v258h97q39 22 53 156.5t14 460.5h492v-617h101v-258h-100v175h-556v-175h-101zM278 83h353v534h-290q0 -223 -14 -350t-49 -184z" />
    <glyph glyph-name="afii10022" unicode="&#x415;" horiz-adv-x="631" 
d="M76 0v700h484v-83h-383v-219h354v-83h-354v-232h391v-83h-492z" />
    <glyph glyph-name="afii10024" unicode="&#x416;" horiz-adv-x="1062" 
d="M581 0h-100v238l-78 85l-244 -323h-114l292 393l-273 307h121l296 -328v328h100v-328l297 328h120l-273 -307l292 -393h-114l-244 323l-78 -85v-238z" />
    <glyph glyph-name="afii10025" unicode="&#x417;" horiz-adv-x="605" 
d="M185 323v84h112q49 0 79.5 29.5t30.5 75.5q0 49 -35 80t-92 31q-105 0 -162 -73l-53 55q85 101 227 101q95 0 155 -50t60 -130q0 -53 -23 -94t-62 -61q57 -17 91 -65.5t34 -115.5q0 -87 -69.5 -141.5t-181.5 -54.5q-153 0 -251 101l52 54q69 -72 197 -72q67 0 108 35
t41 91q0 53 -34.5 86.5t-91.5 33.5h-132z" />
    <glyph glyph-name="afii10026" unicode="&#x418;" horiz-adv-x="764" 
d="M588 542l-411 -542h-101v700h101v-542l411 542h100v-700h-100v542z" />
    <glyph glyph-name="afii10027" unicode="&#x419;" horiz-adv-x="764" 
d="M588 542l-411 -542h-101v700h101v-542l411 542h100v-700h-100v542zM201 848l47 48q48 -48 134 -48q87 0 135 48l46 -48q-68 -70 -181 -70t-181 70z" />
    <glyph glyph-name="afii10028" unicode="&#x41a;" horiz-adv-x="688" 
d="M177 0h-101v700h101v-323l321 323h125l-295 -300l319 -400h-114l-271 331l-85 -93v-238z" />
    <glyph glyph-name="afii10029" unicode="&#x41b;" horiz-adv-x="796" 
d="M228 700h492v-700h-101v617h-290q0 -149 -5 -248.5t-16.5 -176t-33 -117.5t-52 -61t-76.5 -20q-64 0 -113 45l54 58q26 -20 53 -20t43.5 29t26.5 103.5t14 189.5t4 301z" />
    <glyph glyph-name="afii10030" unicode="&#x41c;" horiz-adv-x="946" 
d="M76 0v700h133l264 -559l264 559h133v-700h-101v550l-258 -550h-75l-259 550v-550h-101z" />
    <glyph glyph-name="afii10031" unicode="&#x41d;" horiz-adv-x="753" 
d="M576 0v315h-399v-315h-101v700h101v-302h399v302h100v-700h-100z" />
    <glyph glyph-name="afii10032" unicode="&#x41e;" horiz-adv-x="809" 
d="M49 350q0 158 98.5 257t256.5 99t257 -99t99 -257t-99 -257t-257 -99t-256.5 99t-98.5 257zM149 350q0 -120 71.5 -196.5t183.5 -76.5q113 0 184.5 76.5t71.5 196.5t-71.5 196.5t-184.5 76.5q-112 0 -183.5 -76.5t-71.5 -196.5z" />
    <glyph glyph-name="afii10033" unicode="&#x41f;" horiz-adv-x="749" 
d="M573 0v617h-396v-617h-101v700h597v-700h-100z" />
    <glyph glyph-name="afii10034" unicode="&#x420;" horiz-adv-x="606" 
d="M76 0v700h259q98 0 160 -62t62 -161q0 -98 -62 -160t-160 -62h-158v-255h-101zM325 617h-148v-279h148q58 0 95 39t37 100q0 62 -37 101t-95 39z" />
    <glyph glyph-name="afii10035" unicode="&#x421;" horiz-adv-x="722" 
d="M608 156l59 -61q-99 -101 -262 -101q-158 0 -257 99t-99 257t99.5 257t257.5 99t261 -101l-59 -61q-70 79 -197 79q-117 0 -189.5 -76t-72.5 -197t72.5 -197t189.5 -76q129 0 197 79z" />
    <glyph glyph-name="afii10036" unicode="&#x422;" horiz-adv-x="753" 
d="M56 617v83h641v-83h-270v-617h-101v617h-270z" />
    <glyph glyph-name="afii10037" unicode="&#x423;" horiz-adv-x="756" 
d="M38 50l56 57q29 -30 88 -30q62 0 96 59l48 80l-278 484h104l226 -388l226 388h104l-348 -604q-55 -102 -173 -102q-90 0 -149 56z" />
    <glyph glyph-name="afii10038" unicode="&#x424;" horiz-adv-x="801" 
d="M451 0h-100v66q-135 0 -219.5 79t-84.5 205t84.5 205t219.5 79v66h100v-66q135 0 219.5 -79t84.5 -205t-84.5 -205t-219.5 -79v-66zM451 551v-402q90 0 146.5 55.5t56.5 144.5q0 90 -56.5 146t-146.5 56zM351 149v402q-89 0 -146.5 -56.5t-57.5 -144.5t57.5 -144.5
t146.5 -56.5z" />
    <glyph glyph-name="afii10039" unicode="&#x425;" horiz-adv-x="767" 
d="M157 0h-112l279 357l-266 343h113l211 -272l214 272h113l-267 -343l281 -357h-114l-227 286z" />
    <glyph glyph-name="afii10040" unicode="&#x426;" horiz-adv-x="851" 
d="M177 700v-617h374v617h100v-617h124v-258h-101v175h-598v700h101z" />
    <glyph glyph-name="afii10041" unicode="&#x427;" horiz-adv-x="694" 
d="M177 700v-230q0 -66 43 -106t111 -40q81 0 133 52t52 125v199h101v-700h-101v365q-33 -58 -92.5 -91.5t-136.5 -33.5q-95 -1 -153 57t-58 152v251h101z" />
    <glyph glyph-name="afii10042" unicode="&#x428;" horiz-adv-x="1109" 
d="M605 700v-617h328v617h100v-700h-957v700h101v-617h327v617h101z" />
    <glyph glyph-name="afii10043" unicode="&#x429;" horiz-adv-x="1233" 
d="M76 0v700h101v-617h327v617h101v-617h328v617h100v-617h123v-258h-100v175h-980z" />
    <glyph glyph-name="afii10044" unicode="&#x42a;" horiz-adv-x="802" 
d="M76 617v83h284v-262h175q97 0 157.5 -61t60.5 -158t-60.5 -158t-157.5 -61h-276v617h-183zM360 83h164q57 0 93 38t36 98t-36 98t-93 38h-164v-272z" />
    <glyph glyph-name="afii10045" unicode="&#x42b;" horiz-adv-x="867" 
d="M76 0v700h101v-262h175q97 0 157.5 -61t60.5 -158t-60.5 -158t-157.5 -61h-276zM177 83h164q58 0 93.5 38t35.5 98t-35.5 98t-93.5 38h-164v-272zM790 0h-100v700h100v-700z" />
    <glyph glyph-name="afii10046" unicode="&#x42c;" horiz-adv-x="619" 
d="M76 0v700h101v-262h175q97 0 157.5 -61t60.5 -158t-60.5 -158t-157.5 -61h-276zM177 83h164q58 0 93.5 38t35.5 98t-35.5 98t-93.5 38h-164v-272z" />
    <glyph glyph-name="afii10047" unicode="&#x42d;" horiz-adv-x="722" 
d="M54 95l59 61q70 -79 198 -79q107 0 178 65.5t81 172.5h-359v83h357q-13 101 -83 163t-174 62q-130 0 -198 -79l-59 61q99 101 262 101q159 0 258 -99t99 -257t-100 -257t-258 -99t-261 101z" />
    <glyph glyph-name="afii10048" unicode="&#x42e;" horiz-adv-x="1042" 
d="M657 -6q-141 0 -232 88.5t-102 232.5h-146v-315h-101v700h101v-302h147q14 139 105 223.5t228 84.5q149 0 242.5 -99t93.5 -257t-93.5 -257t-242.5 -99zM422 350q0 -120 66 -196.5t169 -76.5q104 0 170 76.5t66 196.5t-66 196.5t-170 76.5q-103 0 -169 -76.5t-66 -196.5z
" />
    <glyph glyph-name="afii10049" unicode="&#x42f;" horiz-adv-x="629" 
d="M47 0l210 292q-84 5 -135.5 61t-51.5 143q0 91 56.5 147.5t147.5 56.5h279v-700h-101v292h-86l-210 -292h-109zM452 617h-167q-50 0 -82.5 -34t-32.5 -87t32.5 -87t82.5 -34h167v242z" />
    <glyph glyph-name="afii10065" unicode="&#x430;" horiz-adv-x="556" 
d="M389 0v100q-25 -48 -69.5 -76t-102.5 -28q-74 0 -121 40t-47 104q0 73 65.5 118t169.5 45q51 0 105 -8v24q0 50 -33 80.5t-86 30.5q-95 0 -152 -42l-46 48q78 70 193 70q97 0 157.5 -51t60.5 -133v-322h-94zM389 232q-42 13 -96 13q-67 0 -109 -27t-42 -70
q0 -35 30 -56.5t77 -21.5q61 0 100.5 47t39.5 115z" />
    <glyph glyph-name="afii10066" unicode="&#x431;" 
d="M564 250q0 -114 -69.5 -185t-180.5 -71q-109 0 -177.5 71t-68.5 185v100q0 91 22.5 154t57 92.5t80.5 49t88 26.5t85 22.5t66 38.5l52 -53q-36 -36 -89 -55t-97 -26.5t-84.5 -23.5t-64 -60.5t-23.5 -123.5q27 52 76 82.5t110 30.5q96 0 156.5 -70.5t60.5 -183.5zM162 249
q0 -79 42.5 -128.5t111.5 -50.5q68 0 111.5 50t43.5 129t-43.5 129t-111.5 50t-111 -50t-43 -129z" />
    <glyph glyph-name="afii10067" unicode="&#x432;" horiz-adv-x="530" 
d="M316 500q62 0 100.5 -36t38.5 -95q0 -77 -65 -110q42 -13 66.5 -46t24.5 -78q0 -60 -40.5 -97.5t-106.5 -37.5h-258v500h240zM170 222v-146h138q36 0 58 20.5t22 52.5q0 33 -22.5 53t-59.5 20h-136zM170 424v-137h115q35 0 55.5 19t20.5 49q0 31 -21 50t-55 19h-115z" />
    <glyph glyph-name="afii10068" unicode="&#x433;" horiz-adv-x="486" 
d="M430 500v-76h-260v-424h-94v500h354z" />
    <glyph glyph-name="afii10069" unicode="&#x434;" horiz-adv-x="722" 
d="M56 76h49q29 0 48 37.5t30.5 133.5t11.5 253h384v-424h86v-229h-93v153h-422v-153h-94v229zM289 424q0 -259 -61 -348h257v348h-196z" />
    <glyph glyph-name="afii10070" unicode="&#x435;" horiz-adv-x="576" 
d="M527 222h-385q6 -69 54 -111t121 -42q86 0 134 50l52 -53q-74 -72 -192 -72q-116 0 -189.5 71t-73.5 185q0 113 67 184.5t173 71.5t172.5 -71t66.5 -185v-28zM143 287h290q-2 63 -42.5 103t-100.5 40q-58 0 -98.5 -39.5t-48.5 -103.5z" />
    <glyph glyph-name="afii10072" unicode="&#x436;" horiz-adv-x="843" 
d="M468 0h-93v145l-84 91l-154 -236h-98l194 301l-171 199h107l206 -234v234h93v-234l206 234h107l-171 -199l194 -301h-98l-154 236l-84 -91v-145z" />
    <glyph glyph-name="afii10073" unicode="&#x437;" horiz-adv-x="487" 
d="M217 68q56 0 91.5 22.5t35.5 55.5t-27.5 54.5t-71.5 21.5h-102v69h82q43 0 70 19.5t27 49.5q0 31 -30.5 51.5t-78.5 20.5q-73 0 -116 -40l-41 43q69 71 179 71q82 0 131.5 -36.5t49.5 -95.5q0 -38 -21.5 -68.5t-58.5 -46.5q46 -13 74 -48t28 -81q0 -61 -56 -98.5
t-148 -37.5q-114 0 -187 76l42 43q20 -20 55 -32.5t73 -12.5z" />
    <glyph glyph-name="afii10074" unicode="&#x438;" horiz-adv-x="609" 
d="M76 0v500h94v-362l273 362h93v-500h-93v362l-273 -362h-94z" />
    <glyph glyph-name="afii10075" unicode="&#x439;" horiz-adv-x="609" 
d="M76 0v500h94v-362l273 362h93v-500h-93v362l-273 -362h-94zM130 668l46 48q49 -49 130 -49q83 0 130 49l46 -48q-68 -70 -176 -70t-176 70z" />
    <glyph glyph-name="afii10076" unicode="&#x43a;" horiz-adv-x="570" 
d="M170 0h-94v500h94v-232l219 232h111l-190 -203l216 -297h-104l-171 235l-81 -84v-151z" />
    <glyph glyph-name="afii10077" unicode="&#x43b;" horiz-adv-x="657" 
d="M199 500h382v-500h-94v424h-194q0 -234 -34.5 -332t-126.5 -98q-55 0 -100 45l49 51q20 -20 44 -20q44 0 59 91t15 339z" />
    <glyph glyph-name="afii10078" unicode="&#x43c;" horiz-adv-x="745" 
d="M76 0v500h108l188 -355l189 355h108v-500h-94v357l-176 -357h-53l-176 357v-357h-94z" />
    <glyph glyph-name="afii10079" unicode="&#x43d;" horiz-adv-x="608" 
d="M438 0v218h-268v-218h-94v500h94v-205h268v205h93v-500h-93z" />
    <glyph glyph-name="afii10080" unicode="&#x43e;" 
d="M49 250q0 114 71.5 185t185.5 71q115 0 186.5 -71t71.5 -185t-71.5 -185t-186.5 -71q-114 0 -185.5 71t-71.5 185zM142 250q0 -79 46 -129.5t118 -50.5q73 0 118.5 50t45.5 130t-45.5 130t-118.5 50q-72 0 -118 -50.5t-46 -129.5z" />
    <glyph glyph-name="afii10081" unicode="&#x43f;" horiz-adv-x="603" 
d="M433 0v424h-263v-424h-94v500h450v-500h-93z" />
    <glyph glyph-name="afii10082" unicode="&#x440;" horiz-adv-x="596" 
d="M76 -225v725h93v-119q25 57 72 90t108 33q88 0 143 -70.5t55 -183.5t-67.5 -183.5t-176.5 -70.5q-76 0 -134 32v-253h-93zM169 268v-168q56 -29 124 -29q71 0 115.5 50t44.5 129q0 80 -39.5 129t-103.5 49q-60 0 -99.5 -47t-41.5 -113z" />
    <glyph glyph-name="afii10083" unicode="&#x441;" horiz-adv-x="533" 
d="M442 119l51 -52q-71 -73 -188 -73q-114 0 -185 71t-71 185t71.5 185t185.5 71t187 -73l-51 -52q-47 49 -130 49q-76 0 -123 -50t-47 -130t47 -130t123 -50q84 0 130 49z" />
    <glyph glyph-name="afii10084" unicode="&#x442;" horiz-adv-x="586" 
d="M56 424v76h474v-76h-190v-424h-94v424h-190z" />
    <glyph glyph-name="afii10085" unicode="&#x443;" horiz-adv-x="633" 
d="M585 500l-267 -593q-60 -138 -159 -138q-75 0 -121 46l48 49q20 -19 66 -19q29 0 49 24t41 70l28 62l-222 499h91l176 -392l178 392h92z" />
    <glyph glyph-name="afii10086" unicode="&#x444;" horiz-adv-x="720" 
d="M407 -225h-94v224q-118 0 -191 69.5t-73 181.5t73 181.5t191 69.5v224h94v-224q117 0 190.5 -69.5t73.5 -181.5t-73.5 -181.5t-190.5 -69.5v-224zM407 425v-350q74 0 121 49t47 126t-47 126t-121 49zM313 75v350q-75 0 -122 -49t-47 -126t47 -126t122 -49z" />
    <glyph glyph-name="afii10087" unicode="&#x445;" horiz-adv-x="604" 
d="M149 0h-106l203 256l-193 244h107l141 -181l142 181h107l-194 -244l205 -256h-107l-153 192z" />
    <glyph glyph-name="afii10088" unicode="&#x446;" horiz-adv-x="683" 
d="M76 0v500h94v-424h258v424h93v-424h105v-229h-93v153h-457z" />
    <glyph glyph-name="afii10089" unicode="&#x447;" horiz-adv-x="589" 
d="M167 500v-141q0 -56 32 -90.5t84 -34.5q59 0 97 44t38 106v116h93v-500h-93v259q-58 -102 -171 -102q-78 0 -126 53t-48 137v153h94z" />
    <glyph glyph-name="afii10090" unicode="&#x448;" horiz-adv-x="849" 
d="M471 500v-424h208v424h94v-500h-697v500h94v-424h208v424h93z" />
    <glyph glyph-name="afii10091" unicode="&#x449;" horiz-adv-x="928" 
d="M76 0v500h94v-424h208v424h93v-424h208v424h94v-424h98v-229h-93v153h-702z" />
    <glyph glyph-name="afii10092" unicode="&#x44a;" horiz-adv-x="673" 
d="M56 424v76h257v-175h147q73 0 118.5 -45t45.5 -118q0 -72 -45.5 -117t-118.5 -45h-240v424h-164zM313 249v-173h126q40 0 66 24t26 62t-26 62.5t-66 24.5h-126z" />
    <glyph glyph-name="afii10093" unicode="&#x44b;" horiz-adv-x="753" 
d="M677 0h-94v500h94v-500zM170 500v-175h146q74 0 119.5 -45t45.5 -118q0 -72 -46 -117t-119 -45h-240v500h94zM170 249v-173h125q41 0 66.5 24t25.5 62t-25.5 62.5t-66.5 24.5h-125z" />
    <glyph glyph-name="afii10094" unicode="&#x44c;" horiz-adv-x="530" 
d="M170 500v-175h146q74 0 119.5 -45t45.5 -118q0 -72 -46 -117t-119 -45h-240v500h94zM170 249v-173h125q41 0 66.5 24t25.5 62t-25.5 62.5t-66.5 24.5h-125z" />
    <glyph glyph-name="afii10095" unicode="&#x44d;" horiz-adv-x="533" 
d="M148 222v69h237q-11 63 -55.5 101t-109.5 38q-81 0 -130 -49l-51 52q73 73 188 73q114 0 185 -71.5t71 -184.5q0 -114 -71.5 -185t-185.5 -71q-115 0 -187 72l51 53q48 -50 130 -50q69 0 114.5 42t52.5 111h-239z" />
    <glyph glyph-name="afii10096" unicode="&#x44e;" horiz-adv-x="798" 
d="M170 0h-94v500h94v-205h98q13 95 77.5 153t161.5 58q107 0 174.5 -71t67.5 -185t-67.5 -185t-174.5 -71q-100 0 -165.5 61.5t-74.5 162.5h-97v-218zM360 250q0 -80 41 -130t106 -50q66 0 107 50t41 130t-41 130t-107 50q-65 0 -106 -50t-41 -130z" />
    <glyph glyph-name="afii10097" unicode="&#x44f;" horiz-adv-x="543" 
d="M46 0l138 196q-57 10 -91 50t-34 96q0 70 47 114t121 44h240l1 -500h-94l-1 192h-95l-132 -192h-100zM374 261v163h-126q-42 0 -68.5 -23t-26.5 -59q0 -35 26.5 -58t68.5 -23h126z" />
    <glyph glyph-name="uni0450" unicode="&#x450;" horiz-adv-x="576" 
d="M527 222h-385q6 -69 54 -111t121 -42q86 0 134 50l52 -53q-74 -72 -192 -72q-116 0 -189.5 71t-73.5 185q0 113 67 184.5t173 71.5t172.5 -71t66.5 -185v-28zM143 287h290q-2 63 -42.5 103t-100.5 40q-58 0 -98.5 -39.5t-48.5 -103.5zM186 691l56 59l147 -146l-37 -38z
" />
    <glyph glyph-name="afii10071" unicode="&#x451;" horiz-adv-x="576" 
d="M527 222h-385q6 -69 54 -111t121 -42q86 0 134 50l52 -53q-74 -72 -192 -72q-116 0 -189.5 71t-73.5 185q0 113 67 184.5t173 71.5t172.5 -71t66.5 -185v-28zM143 287h290q-2 63 -42.5 103t-100.5 40q-58 0 -98.5 -39.5t-48.5 -103.5zM126 600v100h94v-100h-94zM355 600
v100h93v-100h-93z" />
    <glyph glyph-name="afii10099" unicode="&#x452;" horiz-adv-x="673" 
d="M473 -258l-39 41q69 71 69 217v297q0 60 -35 96.5t-91 36.5q-63 0 -104 -49.5t-43 -118.5v-262h-94v584h-83v58h83v83h94v-83h256v-58h-256v-202q26 57 75 90.5t111 33.5q80 0 130 -53.5t50 -139.5v-313q0 -135 -123 -258z" />
    <glyph glyph-name="afii10100" unicode="&#x453;" horiz-adv-x="486" 
d="M430 500v-76h-260v-424h-94v500h354zM287 750l57 -59l-166 -125l-37 38z" />
    <glyph glyph-name="afii10101" unicode="&#x454;" horiz-adv-x="529" 
d="M442 119l51 -52q-71 -73 -188 -73q-114 0 -185 71t-71 185t71.5 185t185.5 71t187 -73l-51 -52q-47 49 -130 49q-65 0 -110 -38t-57 -101h260v-69h-262q8 -69 54 -110.5t115 -41.5q84 0 130 49z" />
    <glyph glyph-name="afii10102" unicode="&#x455;" horiz-adv-x="456" 
d="M406 146q0 -67 -55 -109.5t-132 -42.5q-102 0 -173 73l48 50q47 -47 125 -47q39 0 66.5 21t27.5 52q0 25 -26.5 42.5t-64 29.5t-75 27.5t-64 45.5t-26.5 74q0 64 48.5 104.5t119.5 40.5q101 0 169 -73l-49 -51q-44 47 -115 47q-35 0 -57 -18.5t-22 -46.5q0 -27 26.5 -46
t63.5 -31.5t74.5 -27.5t64 -43.5t26.5 -70.5z" />
    <glyph glyph-name="afii10103" unicode="&#x456;" horiz-adv-x="246" 
d="M170 0h-94v500h94v-500zM76 600v100h94v-100h-94z" />
    <glyph glyph-name="afii10104" unicode="&#x457;" horiz-adv-x="246" 
d="M170 0h-94v500h94v-500zM-22 600v100h93v-100h-93zM175 600v100h93v-100h-93z" />
    <glyph glyph-name="afii10105" unicode="&#x458;" horiz-adv-x="286" 
d="M-88 -181l49 51q25 -25 70 -25q37 0 61 27t24 70v558h94v-554q0 -79 -47.5 -128t-124.5 -49q-76 0 -126 50zM116 600v100h94v-100h-94z" />
    <glyph glyph-name="afii10106" unicode="&#x459;" horiz-adv-x="961" 
d="M581 500v-175h146q74 0 119.5 -45t45.5 -118q0 -72 -46 -117t-119 -45h-240v424h-194q0 -234 -34.5 -332t-126.5 -98q-55 0 -100 45l49 51q20 -20 44 -20q44 0 59 91t15 339h382zM581 249v-173h125q40 0 66 24t26 62t-26 62.5t-66 24.5h-125z" />
    <glyph glyph-name="afii10107" unicode="&#x45a;" horiz-adv-x="912" 
d="M531 500v-175h147q74 0 119.5 -45t45.5 -118q0 -72 -46 -117t-119 -45h-240v218h-268v-218h-94v500h94v-205h268v205h93zM531 249v-173h126q40 0 66 24t26 62t-26 62.5t-66 24.5h-126z" />
    <glyph glyph-name="afii10108" unicode="&#x45b;" horiz-adv-x="673" 
d="M503 0v297q0 60 -35 96.5t-91 36.5q-63 0 -104 -49.5t-43 -118.5v-262h-94v584h-83v58h83v83h94v-83h256v-58h-256v-202q26 57 75 90.5t111 33.5q80 0 130 -53.5t50 -139.5v-313h-93z" />
    <glyph glyph-name="afii10109" unicode="&#x45c;" horiz-adv-x="560" 
d="M170 0h-94v500h94v-232l219 232h111l-190 -203l216 -297h-104l-171 235l-81 -84v-151zM324 750l57 -59l-166 -125l-37 38z" />
    <glyph glyph-name="uni045D" unicode="&#x45d;" horiz-adv-x="609" 
d="M76 0v500h94v-362l273 362h93v-500h-93v362l-273 -362h-94zM203 691l56 59l147 -146l-37 -38z" />
    <glyph glyph-name="afii10110" unicode="&#x45e;" horiz-adv-x="633" 
d="M585 500l-267 -593q-60 -138 -159 -138q-75 0 -121 46l48 49q20 -19 66 -19q29 0 49 24t41 70l28 62l-222 499h91l176 -392l178 392h92zM142 682l46 48q49 -49 129 -49q81 0 128 49l46 -48q-68 -70 -174 -70q-107 0 -175 70z" />
    <glyph glyph-name="afii10193" unicode="&#x45f;" horiz-adv-x="603" 
d="M254 0h-178v500h94v-424h263v424h93v-500h-178v-153h-94v153z" />
    <glyph glyph-name="afii10050" unicode="&#x490;" horiz-adv-x="596" 
d="M76 0v700h348v100h101v-183h-348v-617h-101z" />
    <glyph glyph-name="afii10098" unicode="&#x491;" horiz-adv-x="479" 
d="M76 0v500h245v125h93v-201h-245v-424h-93z" />
    <glyph glyph-name="afii10846" unicode="&#x4d9;" horiz-adv-x="576" 
d="M48 278h384q-6 68 -56.5 110t-127.5 42q-90 0 -142 -50l-51 53q73 73 198 73q121 0 197 -71.5t76 -184.5q0 -114 -66.5 -185t-173.5 -71q-106 0 -172 70.5t-66 184.5v29zM431 212h-290q2 -63 42.5 -103t100.5 -40q59 0 99 39.5t48 103.5z" />
    <glyph glyph-name="Wgrave" unicode="&#x1e80;" horiz-adv-x="1191" 
d="M399 0h-108l-244 700h97l199 -569l197 569h108l197 -569l199 569h97l-244 -700h-108l-195 567zM494 891l56 59l147 -146l-37 -38z" />
    <glyph glyph-name="wgrave" unicode="&#x1e81;" horiz-adv-x="904" 
d="M318 0h-88l-181 500h90l137 -376l134 376h85l132 -376l138 376h90l-182 -500h-87l-134 368zM350 691l56 59l147 -146l-37 -38z" />
    <glyph glyph-name="Wacute" unicode="&#x1e82;" horiz-adv-x="1191" 
d="M399 0h-108l-244 700h97l199 -569l197 569h108l197 -569l199 569h97l-244 -700h-108l-195 567zM639 950l57 -59l-166 -125l-37 38z" />
    <glyph glyph-name="wacute" unicode="&#x1e83;" horiz-adv-x="904" 
d="M318 0h-88l-181 500h90l137 -376l134 376h85l132 -376l138 376h90l-182 -500h-87l-134 368zM496 750l57 -59l-166 -125l-37 38z" />
    <glyph glyph-name="Wdieresis" unicode="&#x1e84;" horiz-adv-x="1191" 
d="M399 0h-108l-244 700h97l199 -569l197 569h108l197 -569l199 569h97l-244 -700h-108l-195 567zM433 800v100h94v-100h-94zM662 800v100h93v-100h-93z" />
    <glyph glyph-name="wdieresis" unicode="&#x1e85;" horiz-adv-x="904" 
d="M318 0h-88l-181 500h90l137 -376l134 376h85l132 -376l138 376h90l-182 -500h-87l-134 368zM290 600v100h94v-100h-94zM519 600v100h93v-100h-93z" />
    <glyph glyph-name="Ygrave" unicode="&#x1ef2;" horiz-adv-x="748" 
d="M324 0v257l-276 443h104l222 -350l222 350h104l-276 -443v-257h-100zM272 891l56 59l147 -146l-37 -38z" />
    <glyph glyph-name="ygrave" unicode="&#x1ef3;" horiz-adv-x="633" 
d="M585 500l-267 -593q-60 -138 -159 -138q-75 0 -121 46l48 49q20 -19 66 -19q29 0 49 24t41 70l28 62l-222 499h91l176 -392l178 392h92zM215 691l56 59l147 -146l-37 -38z" />
    <glyph glyph-name="figuredash" unicode="&#x2012;" horiz-adv-x="578" 
d="M501 322h-425v76h425v-76z" />
    <glyph glyph-name="endash" unicode="&#x2013;" horiz-adv-x="652" 
d="M576 252h-500v76h500v-76z" />
    <glyph glyph-name="emdash" unicode="&#x2014;" horiz-adv-x="1003" 
d="M926 252h-850v76h850v-76z" />
    <glyph glyph-name="quoteleft" unicode="&#x2018;" horiz-adv-x="293" 
d="M199 715l40 -42q-69 -69 -69 -240h-94q0 155 123 282z" />
    <glyph glyph-name="quoteright" unicode="&#x2019;" horiz-adv-x="293" 
d="M94 421l-40 42q69 69 69 240h94q0 -155 -123 -282z" />
    <glyph glyph-name="quotesinglbase" unicode="&#x201a;" horiz-adv-x="246" 
d="M47 -160l-40 42q69 69 69 240h94q0 -155 -123 -282z" />
    <glyph glyph-name="quotereversed" unicode="&#x201b;" horiz-adv-x="293" 
d="M235 466l-39 -42q-123 125 -123 276h94q0 -165 68 -234z" />
    <glyph glyph-name="quotedblleft" unicode="&#x201c;" horiz-adv-x="502" 
d="M199 715l40 -42q-69 -69 -69 -240h-94q0 155 123 282zM408 715l39 -42q-68 -69 -68 -240h-94q0 155 123 282z" />
    <glyph glyph-name="quotedblright" unicode="&#x201d;" horiz-adv-x="502" 
d="M94 421l-40 42q69 69 69 240h94q0 -155 -123 -282zM302 421l-39 42q69 71 69 240h93q0 -157 -123 -282z" />
    <glyph glyph-name="quotedblbase" unicode="&#x201e;" horiz-adv-x="455" 
d="M47 -160l-40 42q69 69 69 240h94q0 -155 -123 -282zM256 -160l-40 42q69 69 69 240h94q0 -155 -123 -282z" />
    <glyph glyph-name="uni201F" unicode="&#x201f;" horiz-adv-x="502" 
d="M444 466l-39 -42q-123 125 -123 276h93q0 -164 69 -234zM235 466l-39 -42q-123 125 -123 276h94q0 -165 68 -234z" />
    <glyph glyph-name="dagger" unicode="&#x2020;" horiz-adv-x="490" 
d="M48 459v76h150v190h94v-190h150v-76h-150v-559h-94v559h-150z" />
    <glyph glyph-name="daggerdbl" unicode="&#x2021;" horiz-adv-x="490" 
d="M48 90v76h150v293h-150v76h150v190h94v-190h150v-76h-150v-293h150v-76h-150v-190h-94v190h-150z" />
    <glyph glyph-name="bullet" unicode="&#x2022;" horiz-adv-x="311" 
d="M49 322q0 47 30 77.5t78 30.5q47 0 75 -30.5t28 -77.5q0 -46 -28 -75.5t-75 -29.5q-48 0 -78 30t-30 75z" />
    <glyph glyph-name="ellipsis" unicode="&#x2026;" horiz-adv-x="693" 
d="M76 0v122h94v-122h-94zM300 0v122h94v-122h-94zM523 0v122h94v-122h-94z" />
    <glyph glyph-name="perthousand" unicode="&#x2030;" horiz-adv-x="1330" 
d="M306 0h-101l418 725h101zM49 562q0 74 46.5 120t120.5 46t120 -46t46 -120q0 -73 -46 -119t-120 -46t-120.5 46t-46.5 119zM128 562q0 -41 24.5 -67.5t63.5 -26.5q38 0 63 26.5t25 67.5q0 42 -25 68.5t-63 26.5q-39 0 -63.5 -26.5t-24.5 -68.5zM544 162q0 74 46.5 120
t120.5 46t120.5 -46t46.5 -120q0 -73 -46.5 -119t-120.5 -46t-120.5 46t-46.5 119zM623 162q0 -41 25 -67.5t63 -26.5q39 0 64 26.5t25 67.5q0 42 -25 68.5t-64 26.5q-38 0 -63 -26.5t-25 -68.5zM948 162q0 74 46.5 120t120.5 46t120.5 -46t46.5 -120q0 -73 -46.5 -119
t-120.5 -46t-120.5 46t-46.5 119zM1027 162q0 -41 25 -67.5t63 -26.5q39 0 64 26.5t25 67.5q0 42 -25 68.5t-64 26.5q-38 0 -63 -26.5t-25 -68.5z" />
    <glyph glyph-name="guilsinglleft" unicode="&#x2039;" horiz-adv-x="408" 
d="M276 64l-210 211l210 211l57 -59l-153 -152l153 -152z" />
    <glyph glyph-name="guilsinglright" unicode="&#x203a;" horiz-adv-x="408" 
d="M132 486l210 -211l-210 -211l-57 59l153 152l-153 152z" />
    <glyph glyph-name="fraction" unicode="&#x2044;" horiz-adv-x="520" 
d="M63 -100h-81l476 825h81z" />
    <glyph glyph-name="Euro" unicode="&#x20ac;" horiz-adv-x="809" 
d="M54 230v70h84q-3 24 -3 48q0 26 3 51h-84v71h98q34 108 124.5 172t215.5 64q158 0 262 -101l-59 -61q-71 79 -198 79q-84 0 -146.5 -41t-90.5 -112h321v-71h-342q-4 -23 -4 -50q0 -28 4 -49h342v-70h-321q27 -71 90 -112.5t147 -41.5q128 0 198 79l59 -60
q-99 -101 -262 -101q-126 0 -216.5 63.5t-123.5 172.5h-98z" />
    <glyph glyph-name="afii61352" unicode="&#x2116;" horiz-adv-x="1183" 
d="M588 0l-411 542v-542h-101v700h101l411 -542v542h100v-700h-100zM783 529q0 78 49 126.5t126 48.5q79 0 128 -48.5t49 -126.5t-49 -127t-128 -49q-77 0 -126 49t-49 127zM850 529q0 -53 30.5 -87t77.5 -34q49 0 79.5 33.5t30.5 87.5q0 53 -30.5 86.5t-79.5 33.5
q-47 0 -77.5 -33.5t-30.5 -86.5zM1131 191h-344v59h344v-59z" />
    <glyph glyph-name="trademark" unicode="&#x2122;" horiz-adv-x="909" 
d="M55 645v55h327v-55h-130v-295h-68v295h-129zM442 350v350h78l130 -247l131 247h77v-350h-67v246l-121 -246h-39l-121 246v-246h-68z" />
    <glyph glyph-name="Omega" unicode="&#x2126;" horiz-adv-x="809" 
d="M480 0v83q82 24 131 95.5t49 171.5q0 120 -71.5 196.5t-184.5 76.5q-112 0 -183.5 -76.5t-71.5 -196.5q0 -99 49.5 -171t131.5 -96v-83h-281v83h122q-58 44 -90 113t-32 154q0 158 98.5 257t256.5 99t257 -99t99 -257q0 -174 -123 -267h123v-83h-280z" />
    <glyph glyph-name="arrowleft" unicode="&#x2190;" horiz-adv-x="1072" 
d="M399 -3l-354 354l354 353l60 -63l-248 -245h793v-90h-793l249 -246z" />
    <glyph glyph-name="arrowup" unicode="&#x2191;" horiz-adv-x="796" 
d="M355 -203v786l-249 -246l-61 64l354 354l353 -354l-61 -63l-249 245v-786h-87z" />
    <glyph glyph-name="arrowright" unicode="&#x2192;" horiz-adv-x="1072" 
d="M68 306v90h793l-249 245l61 63l354 -353l-354 -354l-62 63l250 246h-793z" />
    <glyph glyph-name="arrowdown" unicode="&#x2193;" horiz-adv-x="796" 
d="M399 -208l-354 354l61 64l249 -246v786h87v-786l249 245l61 -63z" />
    <glyph glyph-name="uni2196" unicode="&#x2196;" horiz-adv-x="821" 
d="M68 200v500h500v-90h-352l561 -555l-62 -64l-560 556v-347h-87z" />
    <glyph glyph-name="uni2197" unicode="&#x2197;" horiz-adv-x="821" 
d="M253 610v90h500v-500h-87v347l-560 -556l-61 64l560 555h-352z" />
    <glyph glyph-name="uni2198" unicode="&#x2198;" horiz-adv-x="821" 
d="M253 0v90h352l-560 555l61 64l560 -556v347h87v-500h-500z" />
    <glyph glyph-name="uni2199" unicode="&#x2199;" horiz-adv-x="821" 
d="M68 0v500h87v-347l560 556l62 -64l-561 -555h352v-90h-500z" />
    <glyph glyph-name="Delta" unicode="&#x2206;" horiz-adv-x="845" 
d="M797 0h-749l324 700h102zM423 591l-233 -508h465z" />
    <glyph glyph-name="product" unicode="&#x220f;" horiz-adv-x="749" 
d="M573 0v617h-396v-617h-101v700h597v-700h-100z" />
    <glyph glyph-name="summation" unicode="&#x2211;" horiz-adv-x="674" 
d="M600 617h-373l216 -260l-228 -274h393v-83h-542v41l260 316l-251 302v41h525v-83z" />
    <glyph glyph-name="minus" unicode="&#x2212;" horiz-adv-x="578" 
d="M501 322h-425v76h425v-76z" />
    <glyph glyph-name="CR" horiz-adv-x="257" 
 />
    <glyph glyph-name="afii10069.alt" horiz-adv-x="746" 
d="M69 76h68l191 424h95l188 -424h71v-229h-94v153h-425v-153h-94v229zM376 398l-147 -322h292z" />
    <glyph glyph-name="afii10021.alt" horiz-adv-x="968" 
d="M59 83h85l288 617h102l286 -617h87v-258h-100v175h-647v-175h-101v258zM483 591l-233 -508h465z" />
    <glyph glyph-name="afii10029.alt" horiz-adv-x="845" 
d="M423 587l-264 -587h-111l324 700h102l323 -700h-110z" />
    <glyph glyph-name="afii10058.alt" horiz-adv-x="1102" 
d="M423 587l-264 -587h-111l324 700h102l122 -262h233q97 0 157.5 -61t60.5 -158t-60.5 -158t-157.5 -61h-142zM818 355h-186l128 -272h58q57 0 93 38t36 98t-36 98t-93 38z" />
    <glyph glyph-name="commaaccent" horiz-adv-x="259" 
d="M91 -293l-30 32q55 56 55 181h72q0 -114 -97 -213z" />
    <glyph glyph-name="afii10077.alt" horiz-adv-x="636" 
d="M270 500h94l221 -500h-93l-175 395l-174 -395h-95z" />
    <glyph glyph-name="y.alt" 
d="M443 0v116q-28 -56 -76.5 -89t-110.5 -33q-80 0 -130 55.5t-50 143.5v307h94v-293q0 -61 35 -99t91 -38q64 0 105.5 51.5t41.5 123.5v255h93v-500q0 -103 -73 -167t-189 -64q-122 0 -200 73l48 50q57 -47 153 -47q74 0 121 43.5t47 111.5z" />
    <glyph glyph-name="yacute.alt" 
d="M443 0v116q-28 -56 -76.5 -89t-110.5 -33q-80 0 -130 55.5t-50 143.5v307h94v-293q0 -61 35 -99t91 -38q64 0 105.5 51.5t41.5 123.5v255h93v-500q0 -103 -73 -167t-189 -64q-122 0 -200 73l48 50q57 -47 153 -47q74 0 121 43.5t47 111.5zM350 750l57 -59l-166 -125
l-37 38z" />
    <glyph glyph-name="afii10106.alt" horiz-adv-x="840" 
d="M48 0l222 500h94l79 -175h178q73 0 118.5 -45t45.5 -118q0 -72 -45.5 -117t-118.5 -45h-129l-175 395l-174 -395h-95zM474 249l79 -173h47q40 0 66 24t26 62t-26 62.5t-66 24.5h-126z" />
    <glyph glyph-name="ycircumflex.alt" 
d="M443 0v116q-28 -56 -76.5 -89t-110.5 -33q-80 0 -130 55.5t-50 143.5v307h94v-293q0 -61 35 -99t91 -38q64 0 105.5 51.5t41.5 123.5v255h93v-500q0 -103 -73 -167t-189 -64q-122 0 -200 73l48 50q57 -47 153 -47q74 0 121 43.5t47 111.5zM143 635l163 115l163 -115
l-47 -48l-116 83l-116 -83z" />
    <glyph glyph-name="ydieresis.alt" 
d="M443 0v116q-28 -56 -76.5 -89t-110.5 -33q-80 0 -130 55.5t-50 143.5v307h94v-293q0 -61 35 -99t91 -38q62 0 103.5 49.5t43.5 118.5v262h93v-500q0 -103 -73 -167t-189 -64q-122 0 -200 73l48 50q57 -47 153 -47q74 0 121 43.5t47 111.5zM144 600v100h94v-100h-94z
M373 600v100h93v-100h-93z" />
    <glyph glyph-name="ygrave.alt" 
d="M443 0v116q-28 -56 -76.5 -89t-110.5 -33q-80 0 -130 55.5t-50 143.5v307h94v-293q0 -61 35 -99t91 -38q64 0 105.5 51.5t41.5 123.5v255h93v-500q0 -103 -73 -167t-189 -64q-122 0 -200 73l48 50q57 -47 153 -47q74 0 121 43.5t47 111.5zM205 691l56 59l147 -146
l-37 -38z" />
    <glyph glyph-name="zero.slash" horiz-adv-x="644" 
d="M140 -25h-71l62 106q-82 99 -82 269q0 160 73.5 258t197.5 98q83 0 144 -46l38 65h71l-63 -109q82 -97 82 -266q0 -160 -74 -258t-198 -98q-82 0 -143 44zM146 349q0 -101 39 -170l236 404q-42 44 -101 44q-78 0 -126 -77.5t-48 -200.5zM495 349q0 101 -39 170l-236 -404
q42 -42 100 -42q79 0 127 77t48 199z" />
    <glyph glyph-name="Asmall" horiz-adv-x="720" 
d="M312 539h97l256 -539h-93l-63 131h-298l-62 -131h-94zM360 443l-114 -237h230z" />
    <glyph glyph-name="Bsmall" horiz-adv-x="567" 
d="M92 0v539h229q65 0 105.5 -37.5t40.5 -96.5q0 -83 -64 -119q44 -13 70 -50.5t26 -89.5q0 -65 -43.5 -105.5t-114.5 -40.5h-249zM187 75h121q42 0 67.5 24t25.5 60q0 37 -25.5 61t-67.5 24h-121v-169zM292 464h-105v-146h105q36 0 58 21t22 53q0 31 -22 51.5t-58 20.5z
" />
    <glyph glyph-name="Csmall" horiz-adv-x="627" 
d="M506 126l56 -55q-81 -78 -211 -78q-128 0 -207.5 76.5t-79.5 198.5t80 198.5t208 76.5q127 0 210 -78l-56 -55q-50 58 -149 58q-88 0 -143 -55.5t-55 -144.5t55 -144.5t143 -55.5q99 0 149 58z" />
    <glyph glyph-name="Dsmall" horiz-adv-x="666" 
d="M92 0v539h224q125 0 203.5 -75t78.5 -195q0 -119 -78.5 -194t-203.5 -75h-224zM503 269q0 86 -52.5 140.5t-134.5 54.5h-129v-389h129q82 0 134.5 54.5t52.5 139.5z" />
    <glyph glyph-name="Esmall" horiz-adv-x="573" 
d="M92 0v539h392v-75h-297v-153h273v-75h-273v-161h305v-75h-400z" />
    <glyph glyph-name="Fsmall" horiz-adv-x="567" 
d="M92 0v539h392v-75h-297v-161h273v-75h-273v-228h-95z" />
    <glyph glyph-name="Gsmall" horiz-adv-x="658" 
d="M329 226v75h233v-230q-81 -78 -211 -78q-128 0 -207.5 76t-79.5 199q0 122 80.5 198.5t207.5 76.5t210 -78l-56 -55q-50 58 -149 58q-88 0 -143 -56t-55 -144q0 -89 55 -144.5t143 -55.5q63 0 110 27v131h-138z" />
    <glyph glyph-name="Hsmall" horiz-adv-x="677" 
d="M486 0v236h-299v-236h-95v539h95v-228h299v228h95v-539h-95z" />
    <glyph glyph-name="Ismall" horiz-adv-x="282" 
d="M187 0h-95v539h95v-539z" />
    <glyph glyph-name="Jsmall" horiz-adv-x="526" 
d="M335 191v347h95v-347q0 -88 -58 -143t-152 -55q-93 0 -154 56l54 55q31 -36 94 -36q53 0 87 34t34 89z" />
    <glyph glyph-name="Ksmall" horiz-adv-x="624" 
d="M187 0h-95v539h95v-235l242 235h117l-232 -229l249 -310h-107l-204 247l-65 -69v-178z" />
    <glyph glyph-name="Lsmall" horiz-adv-x="570" 
d="M92 0v539h95v-464h312v-75h-407z" />
    <glyph glyph-name="Msmall" horiz-adv-x="834" 
d="M92 0v539h126l197 -410l197 410h127v-539h-96v404l-193 -404h-68l-195 404v-404h-95z" />
    <glyph glyph-name="Nsmall" horiz-adv-x="685" 
d="M495 0l-308 396v-396h-95v539h95l308 -396v396h94v-539h-94z" />
    <glyph glyph-name="Osmall" horiz-adv-x="707" 
d="M64 268q0 122 79.5 198.5t207.5 76.5q127 0 207 -77t80 -198q0 -122 -80 -198.5t-207 -76.5q-128 0 -207.5 76.5t-79.5 198.5zM159 268q0 -87 54 -143.5t138 -56.5q85 0 138.5 56.5t53.5 143.5t-53.5 143.5t-138.5 56.5q-84 0 -138 -56.5t-54 -143.5z" />
    <glyph glyph-name="Psmall" horiz-adv-x="559" 
d="M92 0v539h217q80 0 131 -48.5t51 -125.5q0 -78 -51 -126.5t-131 -48.5h-122v-190h-95zM298 464h-111v-199h111q43 0 70.5 28t27.5 72q0 43 -27.5 71t-70.5 28z" />
    <glyph glyph-name="Qsmall" horiz-adv-x="706" 
d="M63 267q0 122 80 198t207 76q128 0 208 -76.5t80 -197.5q0 -102 -59 -175l55 -51l-54 -54q-10 9 -57 53q-70 -49 -173 -49q-128 0 -207.5 76.5t-79.5 199.5zM374 184l17 17l21 21l17 17l84 -81q30 49 30 109q0 87 -54 143t-139 56q-83 0 -137.5 -56t-54.5 -143
q0 -88 54 -144.5t138 -56.5q65 0 114 33q-8 6 -47.5 44t-42.5 41z" />
    <glyph glyph-name="Rsmall" horiz-adv-x="574" 
d="M490 379q0 -64 -39 -107.5t-103 -51.5l168 -220h-105l-166 219h-58v-219h-95v539h231q74 0 120.5 -44.5t46.5 -115.5zM312 464h-125v-169h125q36 0 59.5 23.5t23.5 60.5t-23.5 61t-59.5 24z" />
    <glyph glyph-name="Ssmall" horiz-adv-x="510" 
d="M442 156q0 -72 -58.5 -117.5t-142.5 -45.5q-104 0 -180 78l49 47q48 -50 129 -50q47 0 77.5 23t30.5 59q0 28 -28 47.5t-68.5 32.5t-81 29.5t-68.5 49.5t-28 81q0 69 50.5 111t127.5 42q104 0 179 -78l-47 -48q-51 51 -122 51q-45 0 -69 -20.5t-24 -53.5q0 -31 28 -52.5
t68.5 -35t81 -29t68.5 -46t28 -75.5z" />
    <glyph glyph-name="Tsmall" horiz-adv-x="673" 
d="M74 464v75h523v-75h-214v-464h-95v464h-214z" />
    <glyph glyph-name="Usmall" horiz-adv-x="689" 
d="M498 236v302h95v-302q0 -114 -68 -178.5t-183 -64.5t-182.5 64.5t-67.5 178.5v302h95v-302q0 -76 43 -122t112 -46q70 0 113 46t43 122z" />
    <glyph glyph-name="Vsmall" horiz-adv-x="710" 
d="M404 0h-98l-255 539h98l206 -444q19 44 101.5 218t103.5 226h101z" />
    <glyph glyph-name="Wsmall" horiz-adv-x="985" 
d="M349 0h-103l-192 539h91l150 -420l148 420h103l147 -420l150 420h91l-192 -539h-103l-145 419z" />
    <glyph glyph-name="Xsmall" horiz-adv-x="676" 
d="M169 0h-106l220 275l-209 264h107l157 -199l160 199h107l-210 -264l220 -275h-107l-170 210z" />
    <glyph glyph-name="Ysmall" horiz-adv-x="632" 
d="M268 0v195l-217 344h98l167 -260l168 260h98l-218 -344v-195h-96z" />
    <glyph glyph-name="Zsmall" horiz-adv-x="657" 
d="M92 464v75h484v-45l-357 -419h362v-75h-495v45l356 419h-350z" />
    <glyph glyph-name="Aacutesmall" horiz-adv-x="720" 
d="M312 539h97l256 -539h-93l-63 131h-298l-62 -131h-94zM360 443l-114 -237h230zM405 770l57 -59l-166 -125l-37 38z" />
    <glyph glyph-name="Cacute.small" horiz-adv-x="627" 
d="M506 126l56 -55q-81 -78 -211 -78q-128 0 -207.5 76.5t-79.5 198.5t80 198.5t208 76.5q127 0 210 -78l-56 -55q-50 58 -149 58q-88 0 -143 -55.5t-55 -144.5t55 -144.5t143 -55.5q99 0 149 58zM373 770l57 -59l-166 -125l-37 38z" />
    <glyph glyph-name="Dcaron.small" horiz-adv-x="666" 
d="M92 0v539h224q125 0 203.5 -75t78.5 -195q0 -119 -78.5 -194t-203.5 -75h-224zM503 269q0 86 -52.5 140.5t-134.5 54.5h-129v-389h129q82 0 134.5 54.5t52.5 139.5zM480 722l-163 -116l-163 116l47 48l116 -83l116 83z" />
    <glyph glyph-name="Eacutesmall" horiz-adv-x="573" 
d="M92 0v539h392v-75h-297v-153h273v-75h-273v-161h305v-75h-400zM341 770l57 -59l-166 -125l-37 38z" />
    <glyph glyph-name="Gbreve.small" horiz-adv-x="658" 
d="M329 226v75h233v-230q-81 -78 -211 -78q-128 0 -207.5 76t-79.5 199q0 122 80.5 198.5t207.5 76.5t210 -78l-56 -55q-50 58 -149 58q-88 0 -143 -56t-55 -144q0 -89 55 -144.5t143 -55.5q63 0 110 27v131h-138zM157 702l46 48q49 -49 129 -49q81 0 128 49l46 -48
q-68 -70 -174 -70q-107 0 -175 70z" />
    <glyph glyph-name="Hcircumflex.small" horiz-adv-x="677" 
d="M486 0v236h-299v-236h-95v539h95v-228h299v228h95v-539h-95zM172 655l163 115l163 -115l-47 -48l-116 83l-116 -83z" />
    <glyph glyph-name="Iacutesmall" horiz-adv-x="282" 
d="M187 0h-95v539h95v-539zM186 770l57 -59l-166 -125l-37 38z" />
    <glyph glyph-name="Jcircumflex.small" horiz-adv-x="526" 
d="M335 191v347h95v-347q0 -88 -58 -143t-152 -55q-93 0 -154 56l54 55q31 -36 94 -36q53 0 87 34t34 89zM220 655l163 115l163 -115l-47 -48l-116 83l-116 -83z" />
    <glyph glyph-name="Kcommaaccent.small" horiz-adv-x="624" 
d="M187 0h-95v539h95v-235l242 235h117l-232 -229l249 -310h-107l-204 247l-65 -69v-178zM261 -293l-30 32q55 56 55 181h72q0 -114 -97 -213z" />
    <glyph glyph-name="Lacute.small" horiz-adv-x="570" 
d="M92 0v539h95v-464h312v-75h-407zM349 770l57 -59l-166 -125l-37 38z" />
    <glyph glyph-name="Nacute.small" horiz-adv-x="685" 
d="M495 0l-308 396v-396h-95v539h95l308 -396v396h94v-539h-94zM386 770l57 -59l-166 -125l-37 38z" />
    <glyph glyph-name="Oacutesmall" horiz-adv-x="707" 
d="M64 268q0 122 79.5 198.5t207.5 76.5q127 0 207 -77t80 -198q0 -122 -80 -198.5t-207 -76.5q-128 0 -207.5 76.5t-79.5 198.5zM159 268q0 -87 54 -143.5t138 -56.5q85 0 138.5 56.5t53.5 143.5t-53.5 143.5t-138.5 56.5q-84 0 -138 -56.5t-54 -143.5zM395 770l57 -59
l-166 -125l-37 38z" />
    <glyph glyph-name="Racute.small" horiz-adv-x="574" 
d="M490 379q0 -64 -39 -107.5t-103 -51.5l168 -220h-105l-166 219h-58v-219h-95v539h231q74 0 120.5 -44.5t46.5 -115.5zM312 464h-125v-169h125q36 0 59.5 23.5t23.5 60.5t-23.5 61t-59.5 24zM335 770l57 -59l-166 -125l-37 38z" />
    <glyph glyph-name="Sacute.small" horiz-adv-x="510" 
d="M442 156q0 -72 -58.5 -117.5t-142.5 -45.5q-104 0 -180 78l49 47q48 -50 129 -50q47 0 77.5 23t30.5 59q0 28 -28 47.5t-68.5 32.5t-81 29.5t-68.5 49.5t-28 81q0 69 50.5 111t127.5 42q104 0 179 -78l-47 -48q-51 51 -122 51q-45 0 -69 -20.5t-24 -53.5q0 -31 28 -52.5
t68.5 -35t81 -29t68.5 -46t28 -75.5zM299 770l57 -59l-166 -125l-37 38z" />
    <glyph glyph-name="Tcaron.small" horiz-adv-x="673" 
d="M74 464v75h523v-75h-214v-464h-95v464h-214zM498 722l-163 -116l-163 116l47 48l116 -83l116 83z" />
    <glyph glyph-name="Uacutesmall" horiz-adv-x="689" 
d="M498 236v302h95v-302q0 -114 -68 -178.5t-183 -64.5t-182.5 64.5t-67.5 178.5v302h95v-302q0 -76 43 -122t112 -46q70 0 113 46t43 122zM385 770l57 -59l-166 -125l-37 38z" />
    <glyph glyph-name="Wacute.small" horiz-adv-x="985" 
d="M349 0h-103l-192 539h91l150 -420l148 420h103l147 -420l150 420h91l-192 -539h-103l-145 419zM539 770l57 -59l-166 -125l-37 38z" />
    <glyph glyph-name="Yacutesmall" horiz-adv-x="632" 
d="M268 0v195l-217 344h98l167 -260l168 260h98l-218 -344v-195h-96zM360 770l57 -59l-166 -125l-37 38z" />
    <glyph glyph-name="Zacute.small" horiz-adv-x="657" 
d="M92 464v75h484v-45l-357 -419h362v-75h-495v45l356 419h-350zM377 770l57 -59l-166 -125l-37 38z" />
    <glyph glyph-name="Abreve.small" horiz-adv-x="720" 
d="M312 539h97l256 -539h-93l-63 131h-298l-62 -131h-94zM360 443l-114 -237h230zM185 702l46 48q49 -49 129 -49q81 0 128 49l46 -48q-68 -70 -174 -70q-107 0 -175 70z" />
    <glyph glyph-name="Acircumflexsmall" horiz-adv-x="720" 
d="M312 539h97l256 -539h-93l-63 131h-298l-62 -131h-94zM360 443l-114 -237h230zM197 655l163 115l163 -115l-47 -48l-116 83l-116 -83z" />
    <glyph glyph-name="Adieresissmall" horiz-adv-x="720" 
d="M312 539h97l256 -539h-93l-63 131h-298l-62 -131h-94zM360 443l-114 -237h230zM199 620v100h94v-100h-94zM428 620v100h93v-100h-93z" />
    <glyph glyph-name="Agravesmall" horiz-adv-x="720" 
d="M312 539h97l256 -539h-93l-63 131h-298l-62 -131h-94zM360 443l-114 -237h230zM259 711l56 59l147 -146l-37 -38z" />
    <glyph glyph-name="Amacron.small" horiz-adv-x="720" 
d="M312 539h97l256 -539h-93l-63 131h-298l-62 -131h-94zM360 443l-114 -237h230zM523 658h-327v62h327v-62z" />
    <glyph glyph-name="Aogonek.small" horiz-adv-x="720" 
d="M600 0h-28l-63 131h-298l-62 -131h-94l257 539h97l256 -539q-9 -11 -22.5 -29.5t-36.5 -60.5t-23 -67q0 -39 38 -39q29 0 54 23l37 -39q-41 -41 -93 -41q-40 0 -66 23t-26 60q0 39 18.5 81.5t36.5 65.5zM360 443l-114 -237h230z" />
    <glyph glyph-name="Aringsmall" horiz-adv-x="720" 
d="M312 539h97l256 -539h-93l-63 131h-298l-62 -131h-94zM360 443l-114 -237h230zM281 691q0 36 22 58.5t57 22.5t57 -22t22 -59q0 -36 -22 -58t-57 -22t-57 22t-22 58zM317 691q0 -19 12 -30.5t31 -11.5t30.5 11.5t11.5 30.5t-11.5 31t-30.5 12q-20 0 -31.5 -12t-11.5 -31z
" />
    <glyph glyph-name="Atildesmall" horiz-adv-x="720" 
d="M312 539h97l256 -539h-93l-63 131h-298l-62 -131h-94zM360 443l-114 -237h230zM210 638l-39 39q59 62 120 62q28 0 77 -17.5t72 -17.5q37 0 69 31l39 -40q-57 -61 -117 -61q-28 0 -77 17t-72 17q-39 0 -72 -30z" />
    <glyph glyph-name="Ccaron.small" horiz-adv-x="627" 
d="M506 126l56 -55q-81 -78 -211 -78q-128 0 -207.5 76.5t-79.5 198.5t80 198.5t208 76.5q127 0 210 -78l-56 -55q-50 58 -149 58q-88 0 -143 -55.5t-55 -144.5t55 -144.5t143 -55.5q99 0 149 58zM494 722l-163 -116l-163 116l47 48l116 -83l116 83z" />
    <glyph glyph-name="Ccedillasmall" horiz-adv-x="627" 
d="M254 -159q5 6 17 17l17 18q26 -28 53 -28q19 0 30 8.5t11 21.5t-10.5 22.5t-23 16.5t-23 27t-11.5 51q-113 11 -181.5 85.5t-68.5 187.5q0 122 80 198.5t208 76.5q127 0 210 -78l-56 -55q-50 58 -149 58q-88 0 -143 -55.5t-55 -144.5t55 -144.5t143 -55.5q99 0 149 58
l56 -55q-77 -74 -196 -78q1 -26 12 -41t23.5 -20t23 -19.5t10.5 -40.5q0 -33 -25.5 -53.5t-65.5 -20.5q-52 0 -90 43z" />
    <glyph glyph-name="Ccircumflex.small" horiz-adv-x="627" 
d="M506 126l56 -55q-81 -78 -211 -78q-128 0 -207.5 76.5t-79.5 198.5t80 198.5t208 76.5q127 0 210 -78l-56 -55q-50 58 -149 58q-88 0 -143 -55.5t-55 -144.5t55 -144.5t143 -55.5q99 0 149 58zM168 655l163 115l163 -115l-47 -48l-116 83l-116 -83z" />
    <glyph glyph-name="Cdotaccent.small" horiz-adv-x="627" 
d="M506 126l56 -55q-81 -78 -211 -78q-128 0 -207.5 76.5t-79.5 198.5t80 198.5t208 76.5q127 0 210 -78l-56 -55q-50 58 -149 58q-88 0 -143 -55.5t-55 -144.5t55 -144.5t143 -55.5q99 0 149 58zM282 620v100h94v-100h-94z" />
    <glyph glyph-name="Ebreve.small" horiz-adv-x="573" 
d="M92 0v539h392v-75h-297v-153h273v-75h-273v-161h305v-75h-400zM117 702l46 48q49 -49 129 -49q81 0 128 49l46 -48q-68 -70 -174 -70q-107 0 -175 70z" />
    <glyph glyph-name="Ecaron.small" horiz-adv-x="573" 
d="M92 0v539h392v-75h-297v-153h273v-75h-273v-161h305v-75h-400zM453 722l-163 -116l-163 116l47 48l116 -83l116 83z" />
    <glyph glyph-name="Ecircumflexsmall" horiz-adv-x="573" 
d="M92 0v539h392v-75h-297v-153h273v-75h-273v-161h305v-75h-400zM134 655l163 115l163 -115l-47 -48l-116 83l-116 -83z" />
    <glyph glyph-name="Edieresissmall" horiz-adv-x="573" 
d="M92 0v539h392v-75h-297v-153h273v-75h-273v-161h305v-75h-400zM130 620v100h94v-100h-94zM359 620v100h93v-100h-93z" />
    <glyph glyph-name="Edotaccent.small" horiz-adv-x="573" 
d="M92 0v539h392v-75h-297v-153h273v-75h-273v-161h305v-75h-400zM243 620v100h94v-100h-94z" />
    <glyph glyph-name="Egravesmall" horiz-adv-x="573" 
d="M92 0v539h392v-75h-297v-153h273v-75h-273v-161h305v-75h-400zM190 711l56 59l147 -146l-37 -38z" />
    <glyph glyph-name="Emacron.small" horiz-adv-x="573" 
d="M92 0v539h392v-75h-297v-153h273v-75h-273v-161h305v-75h-400zM450 658h-327v62h327v-62z" />
    <glyph glyph-name="Eogonek.small" horiz-adv-x="573" 
d="M92 0v539h392v-75h-297v-153h273v-75h-273v-161h305v-75q-9 -11 -22.5 -29.5t-36.5 -60.5t-23 -67q0 -39 38 -39q29 0 54 23l37 -39q-41 -41 -93 -41q-40 0 -66 23t-26 60q0 39 18 81.5t36 65.5l19 23h-335z" />
    <glyph glyph-name="Gcircumflex.small" horiz-adv-x="658" 
d="M329 226v75h233v-230q-81 -78 -211 -78q-128 0 -207.5 76t-79.5 199q0 122 80.5 198.5t207.5 76.5t210 -78l-56 -55q-50 58 -149 58q-88 0 -143 -56t-55 -144q0 -89 55 -144.5t143 -55.5q63 0 110 27v131h-138zM165 655l163 115l163 -115l-47 -48l-116 83l-116 -83z" />
    <glyph glyph-name="Gcommaaccent.small" horiz-adv-x="658" 
d="M329 226v75h233v-230q-81 -78 -211 -78q-128 0 -207.5 76t-79.5 199q0 122 80.5 198.5t207.5 76.5t210 -78l-56 -55q-50 58 -149 58q-88 0 -143 -56t-55 -144q0 -89 55 -144.5t143 -55.5q63 0 110 27v131h-138zM292 -293l-30 32q55 56 55 181h72q0 -114 -97 -213z" />
    <glyph glyph-name="Gdotaccent.small" horiz-adv-x="658" 
d="M329 226v75h233v-230q-81 -78 -211 -78q-128 0 -207.5 76t-79.5 199q0 122 80.5 198.5t207.5 76.5t210 -78l-56 -55q-50 58 -149 58q-88 0 -143 -56t-55 -144q0 -89 55 -144.5t143 -55.5q63 0 110 27v131h-138zM285 620v100h94v-100h-94z" />
    <glyph glyph-name="Ibreve.small" horiz-adv-x="282" 
d="M187 0h-95v539h95v-539zM-35 702l46 48q49 -49 129 -49q81 0 128 49l46 -48q-68 -70 -174 -70q-107 0 -175 70z" />
    <glyph glyph-name="Icircumflexsmall" horiz-adv-x="282" 
d="M187 0h-95v539h95v-539zM-23 655l163 115l163 -115l-47 -48l-116 83l-116 -83z" />
    <glyph glyph-name="Idieresissmall" horiz-adv-x="282" 
d="M187 0h-95v539h95v-539zM-20 620v100h94v-100h-94zM209 620v100h93v-100h-93z" />
    <glyph glyph-name="Idotaccent.small" horiz-adv-x="282" 
d="M187 0h-95v539h95v-539zM90 620v100h94v-100h-94z" />
    <glyph glyph-name="Igravesmall" horiz-adv-x="282" 
d="M187 0h-95v539h95v-539zM38 711l56 59l147 -146l-37 -38z" />
    <glyph glyph-name="Imacron.small" horiz-adv-x="282" 
d="M187 0h-95v539h95v-539zM302 658h-327v62h327v-62z" />
    <glyph glyph-name="Iogonek.small" horiz-adv-x="282" 
d="M122 0h-30v539h95v-539q-9 -11 -22.5 -29.5t-36.5 -60.5t-23 -67q0 -39 38 -39q29 0 54 23l37 -39q-41 -41 -93 -41q-40 0 -66 23t-26 60q0 39 18.5 81.5t36.5 65.5z" />
    <glyph glyph-name="Itilde.small" horiz-adv-x="282" 
d="M187 0h-95v539h95v-539zM-11 638l-39 39q59 62 120 62q28 0 77 -17.5t72 -17.5q37 0 69 31l39 -40q-57 -61 -117 -61q-28 0 -77 17t-72 17q-39 0 -72 -30z" />
    <glyph glyph-name="Lcaron.small" horiz-adv-x="570" 
d="M92 0v539h95v-464h312v-75h-407zM467 722l-163 -116l-163 116l47 48l116 -83l116 83z" />
    <glyph glyph-name="Lcommaaccent.small" horiz-adv-x="570" 
d="M92 0v539h95v-464h312v-75h-407zM252 -293l-30 32q55 56 55 181h72q0 -114 -97 -213z" />
    <glyph glyph-name="Ldot.small" horiz-adv-x="570" 
d="M92 0v539h95v-464h312v-75h-407zM403 239v122h94v-122h-94z" />
    <glyph glyph-name="Ncaron.small" horiz-adv-x="685" 
d="M495 0l-308 396v-396h-95v539h95l308 -396v396h94v-539h-94zM505 722l-163 -116l-163 116l47 48l116 -83l116 83z" />
    <glyph glyph-name="Ncommaaccent.small" horiz-adv-x="685" 
d="M495 0l-308 396v-396h-95v539h95l308 -396v396h94v-539h-94zM307 -293l-30 32q55 56 55 181h72q0 -114 -97 -213z" />
    <glyph glyph-name="Ntildesmall" horiz-adv-x="685" 
d="M495 0l-308 396v-396h-95v539h95l308 -396v396h94v-539h-94zM193 638l-39 39q59 62 120 62q28 0 77 -17.5t72 -17.5q37 0 69 31l39 -40q-57 -61 -117 -61q-28 0 -77 17t-72 17q-39 0 -72 -30z" />
    <glyph glyph-name="Obreve.small" horiz-adv-x="707" 
d="M64 268q0 122 79.5 198.5t207.5 76.5q127 0 207 -77t80 -198q0 -122 -80 -198.5t-207 -76.5q-128 0 -207.5 76.5t-79.5 198.5zM159 268q0 -87 54 -143.5t138 -56.5q85 0 138.5 56.5t53.5 143.5t-53.5 143.5t-138.5 56.5q-84 0 -138 -56.5t-54 -143.5zM175 702l46 48
q49 -49 129 -49q81 0 128 49l46 -48q-68 -70 -174 -70q-107 0 -175 70z" />
    <glyph glyph-name="Ocircumflexsmall" horiz-adv-x="707" 
d="M64 268q0 122 79.5 198.5t207.5 76.5q127 0 207 -77t80 -198q0 -122 -80 -198.5t-207 -76.5q-128 0 -207.5 76.5t-79.5 198.5zM159 268q0 -87 54 -143.5t138 -56.5q85 0 138.5 56.5t53.5 143.5t-53.5 143.5t-138.5 56.5q-84 0 -138 -56.5t-54 -143.5zM185 655l163 115
l163 -115l-47 -48l-116 83l-116 -83z" />
    <glyph glyph-name="Odieresissmall" horiz-adv-x="707" 
d="M64 268q0 122 79.5 198.5t207.5 76.5q127 0 207 -77t80 -198q0 -122 -80 -198.5t-207 -76.5q-128 0 -207.5 76.5t-79.5 198.5zM159 268q0 -87 54 -143.5t138 -56.5q85 0 138.5 56.5t53.5 143.5t-53.5 143.5t-138.5 56.5q-84 0 -138 -56.5t-54 -143.5zM187 620v100h94
v-100h-94zM416 620v100h93v-100h-93z" />
    <glyph glyph-name="Ogravesmall" horiz-adv-x="707" 
d="M64 268q0 122 79.5 198.5t207.5 76.5q127 0 207 -77t80 -198q0 -122 -80 -198.5t-207 -76.5q-128 0 -207.5 76.5t-79.5 198.5zM159 268q0 -87 54 -143.5t138 -56.5q85 0 138.5 56.5t53.5 143.5t-53.5 143.5t-138.5 56.5q-84 0 -138 -56.5t-54 -143.5zM248 711l56 59
l147 -146l-37 -38z" />
    <glyph glyph-name="Ohungarumlaut.small" horiz-adv-x="707" 
d="M64 268q0 122 79.5 198.5t207.5 76.5q127 0 207 -77t80 -198q0 -122 -80 -198.5t-207 -76.5q-128 0 -207.5 76.5t-79.5 198.5zM159 268q0 -87 54 -143.5t138 -56.5q85 0 138.5 56.5t53.5 143.5t-53.5 143.5t-138.5 56.5q-84 0 -138 -56.5t-54 -143.5zM304 770l57 -59
l-166 -125l-37 38zM532 770l57 -59l-166 -125l-36 38z" />
    <glyph glyph-name="Omacron.small" horiz-adv-x="707" 
d="M64 268q0 122 79.5 198.5t207.5 76.5q127 0 207 -77t80 -198q0 -122 -80 -198.5t-207 -76.5q-128 0 -207.5 76.5t-79.5 198.5zM159 268q0 -87 54 -143.5t138 -56.5q85 0 138.5 56.5t53.5 143.5t-53.5 143.5t-138.5 56.5q-84 0 -138 -56.5t-54 -143.5zM511 658h-327v62
h327v-62z" />
    <glyph glyph-name="Otildesmall" horiz-adv-x="707" 
d="M64 268q0 122 79.5 198.5t207.5 76.5q127 0 207 -77t80 -198q0 -122 -80 -198.5t-207 -76.5q-128 0 -207.5 76.5t-79.5 198.5zM159 268q0 -87 54 -143.5t138 -56.5q85 0 138.5 56.5t53.5 143.5t-53.5 143.5t-138.5 56.5q-84 0 -138 -56.5t-54 -143.5zM200 638l-39 39
q59 62 120 62q28 0 77 -17.5t72 -17.5q37 0 69 31l39 -40q-57 -61 -117 -61q-28 0 -77 17t-72 17q-39 0 -72 -30z" />
    <glyph glyph-name="Rcaron.small" horiz-adv-x="574" 
d="M490 379q0 -64 -39 -107.5t-103 -51.5l168 -220h-105l-166 219h-58v-219h-95v539h231q74 0 120.5 -44.5t46.5 -115.5zM312 464h-125v-169h125q36 0 59.5 23.5t23.5 60.5t-23.5 61t-59.5 24zM449 722l-163 -116l-163 116l47 48l116 -83l116 83z" />
    <glyph glyph-name="Rcommaaccent.small" horiz-adv-x="574" 
d="M490 379q0 -64 -39 -107.5t-103 -51.5l168 -220h-105l-166 219h-58v-219h-95v539h231q74 0 120.5 -44.5t46.5 -115.5zM312 464h-125v-169h125q36 0 59.5 23.5t23.5 60.5t-23.5 61t-59.5 24zM239 -293l-30 32q55 56 55 181h72q0 -114 -97 -213z" />
    <glyph glyph-name="Scaronsmall" horiz-adv-x="510" 
d="M442 156q0 -72 -58.5 -117.5t-142.5 -45.5q-104 0 -180 78l49 47q48 -50 129 -50q47 0 77.5 23t30.5 59q0 28 -28 47.5t-68.5 32.5t-81 29.5t-68.5 49.5t-28 81q0 69 50.5 111t127.5 42q104 0 179 -78l-47 -48q-51 51 -122 51q-45 0 -69 -20.5t-24 -53.5q0 -31 28 -52.5
t68.5 -35t81 -29t68.5 -46t28 -75.5zM417 722l-163 -116l-163 116l47 48l116 -83l116 83z" />
    <glyph glyph-name="Scedilla.small" horiz-adv-x="510" 
d="M158 -159q6 6 17 17.5t17 17.5q26 -28 53 -28q19 0 30 8.5t11 21.5t-10 22.5t-22.5 16t-23.5 26.5t-12 51q-89 7 -157 77l49 47q48 -50 129 -50q47 0 77.5 23t30.5 59q0 28 -28 47.5t-68.5 32.5t-81 29.5t-68.5 49.5t-28 81q0 69 50.5 111t127.5 42q104 0 179 -78
l-47 -48q-51 51 -122 51q-45 0 -69 -20.5t-24 -53.5q0 -31 28 -52.5t68.5 -35t81 -29t68.5 -46t28 -75.5q0 -66 -49 -109.5t-123 -51.5q1 -27 12 -42.5t23.5 -20t23 -19.5t10.5 -41q0 -33 -25.5 -53.5t-65.5 -20.5q-52 0 -90 43z" />
    <glyph glyph-name="Scircumflex.small" horiz-adv-x="510" 
d="M442 156q0 -72 -58.5 -117.5t-142.5 -45.5q-104 0 -180 78l49 47q48 -50 129 -50q47 0 77.5 23t30.5 59q0 28 -28 47.5t-68.5 32.5t-81 29.5t-68.5 49.5t-28 81q0 69 50.5 111t127.5 42q104 0 179 -78l-47 -48q-51 51 -122 51q-45 0 -69 -20.5t-24 -53.5q0 -31 28 -52.5
t68.5 -35t81 -29t68.5 -46t28 -75.5zM90 655l163 115l163 -115l-47 -48l-116 83l-116 -83z" />
    <glyph glyph-name="Scommaaccent.small" horiz-adv-x="510" 
d="M442 156q0 -72 -58.5 -117.5t-142.5 -45.5q-104 0 -180 78l49 47q48 -50 129 -50q47 0 77.5 23t30.5 59q0 28 -28 47.5t-68.5 32.5t-81 29.5t-68.5 49.5t-28 81q0 69 50.5 111t127.5 42q104 0 179 -78l-47 -48q-51 51 -122 51q-45 0 -69 -20.5t-24 -53.5q0 -31 28 -52.5
t68.5 -35t81 -29t68.5 -46t28 -75.5zM185 -293l-30 32q55 56 55 181h72q0 -114 -97 -213z" />
    <glyph glyph-name="Tcommaaccent.small" horiz-adv-x="673" 
d="M74 464v75h523v-75h-214v-464h-95v464h-214zM275 -293l-30 32q55 56 55 181h72q0 -114 -97 -213z" />
    <glyph glyph-name="Ubreve.small" horiz-adv-x="689" 
d="M498 236v302h95v-302q0 -114 -68 -178.5t-183 -64.5t-182.5 64.5t-67.5 178.5v302h95v-302q0 -76 43 -122t112 -46q70 0 113 46t43 122zM166 702l46 48q49 -49 129 -49q81 0 128 49l46 -48q-68 -70 -174 -70q-107 0 -175 70z" />
    <glyph glyph-name="Ucircumflexsmall" horiz-adv-x="689" 
d="M498 236v302h95v-302q0 -114 -68 -178.5t-183 -64.5t-182.5 64.5t-67.5 178.5v302h95v-302q0 -76 43 -122t112 -46q70 0 113 46t43 122zM178 655l163 115l163 -115l-47 -48l-116 83l-116 -83z" />
    <glyph glyph-name="Udieresissmall" horiz-adv-x="689" 
d="M498 236v302h95v-302q0 -114 -68 -178.5t-183 -64.5t-182.5 64.5t-67.5 178.5v302h95v-302q0 -76 43 -122t112 -46q70 0 113 46t43 122zM182 620v100h94v-100h-94zM411 620v100h93v-100h-93z" />
    <glyph glyph-name="Uhungarumlaut.small" horiz-adv-x="689" 
d="M498 236v302h95v-302q0 -114 -68 -178.5t-183 -64.5t-182.5 64.5t-67.5 178.5v302h95v-302q0 -76 43 -122t112 -46q70 0 113 46t43 122zM297 770l57 -59l-166 -125l-37 38zM525 770l57 -59l-166 -125l-36 38z" />
    <glyph glyph-name="Ugravesmall" horiz-adv-x="689" 
d="M498 236v302h95v-302q0 -114 -68 -178.5t-183 -64.5t-182.5 64.5t-67.5 178.5v302h95v-302q0 -76 43 -122t112 -46q70 0 113 46t43 122zM240 711l56 59l147 -146l-37 -38z" />
    <glyph glyph-name="Umacron.small" horiz-adv-x="689" 
d="M498 236v302h95v-302q0 -114 -68 -178.5t-183 -64.5t-182.5 64.5t-67.5 178.5v302h95v-302q0 -76 43 -122t112 -46q70 0 113 46t43 122zM505 658h-327v62h327v-62z" />
    <glyph glyph-name="Uogonek.small" horiz-adv-x="689" 
d="M498 236v302h95v-302q0 -97 -49.5 -158.5t-136.5 -78.5q-9 -11 -24 -31.5t-36 -60t-21 -64.5q0 -39 38 -39q29 0 54 23l37 -39q-41 -41 -93 -41q-40 0 -66 23t-26 60q0 81 67 163q-113 2 -179 66t-66 177v302h95v-302q0 -76 43 -122t112 -46q70 0 113 46t43 122z" />
    <glyph glyph-name="Uring.small" horiz-adv-x="689" 
d="M498 236v302h95v-302q0 -114 -68 -178.5t-183 -64.5t-182.5 64.5t-67.5 178.5v302h95v-302q0 -76 43 -122t112 -46q70 0 113 46t43 122zM262 691q0 36 22 58.5t57 22.5t57 -22t22 -59q0 -36 -22 -58t-57 -22t-57 22t-22 58zM298 691q0 -19 12 -30.5t31 -11.5t30.5 11.5
t11.5 30.5t-11.5 31t-30.5 12t-31 -12t-12 -31z" />
    <glyph glyph-name="Utilde.small" horiz-adv-x="689" 
d="M498 236v302h95v-302q0 -114 -68 -178.5t-183 -64.5t-182.5 64.5t-67.5 178.5v302h95v-302q0 -76 43 -122t112 -46q70 0 113 46t43 122zM192 638l-39 39q59 62 120 62q28 0 77 -17.5t72 -17.5q37 0 69 31l39 -40q-57 -61 -117 -61q-28 0 -77 17t-72 17q-39 0 -72 -30z
" />
    <glyph glyph-name="Wcircumflex.small" horiz-adv-x="985" 
d="M349 0h-103l-192 539h91l150 -420l148 420h103l147 -420l150 420h91l-192 -539h-103l-145 419zM330 655l163 115l163 -115l-47 -48l-116 83l-116 -83z" />
    <glyph glyph-name="Wdieresis.small" horiz-adv-x="985" 
d="M349 0h-103l-192 539h91l150 -420l148 420h103l147 -420l150 420h91l-192 -539h-103l-145 419zM333 620v100h94v-100h-94zM562 620v100h93v-100h-93z" />
    <glyph glyph-name="Wgrave.small" horiz-adv-x="985" 
d="M349 0h-103l-192 539h91l150 -420l148 420h103l147 -420l150 420h91l-192 -539h-103l-145 419zM393 711l56 59l147 -146l-37 -38z" />
    <glyph glyph-name="Ycircumflex.small" horiz-adv-x="632" 
d="M268 0v195l-217 344h98l167 -260l168 260h98l-218 -344v-195h-96zM152 655l163 115l163 -115l-47 -48l-116 83l-116 -83z" />
    <glyph glyph-name="Ydieresissmall" horiz-adv-x="632" 
d="M268 0v195l-217 344h98l167 -260l168 260h98l-218 -344v-195h-96zM155 620v100h94v-100h-94zM384 620v100h93v-100h-93z" />
    <glyph glyph-name="Ygrave.small" horiz-adv-x="632" 
d="M268 0v195l-217 344h98l167 -260l168 260h98l-218 -344v-195h-96zM214 711l56 59l147 -146l-37 -38z" />
    <glyph glyph-name="Zcaronsmall" horiz-adv-x="617" 
d="M475 722l-163 -116l-163 116l47 48l116 -83l116 83zM72 464v75h484v-45l-357 -419h362v-75h-495v45l356 419h-350z" />
    <glyph glyph-name="Zdotaccent.small" horiz-adv-x="617" 
d="M72 464v75h484v-45l-357 -419h362v-75h-495v45l356 419h-350zM262 620v100h94v-100h-94z" />
    <glyph glyph-name="OEsmall" horiz-adv-x="1017" 
d="M546 0v65q-74 -71 -196 -71q-128 0 -207.5 76.5t-79.5 198.5t79.5 198.5t207.5 76.5q121 0 196 -72v67h390v-75h-298v-153h274v-75h-274v-162h305v-74h-397zM158 269q0 -88 54.5 -144t137.5 -56q85 0 139 56t54 144t-54 144t-139 56q-83 0 -137.5 -56t-54.5 -144z" />
    <glyph glyph-name="AEsmall" horiz-adv-x="796" 
d="M358 0v130h-147l-63 -130h-93l256 539h400v-75h-258v-153h234v-75h-234v-161h265v-75h-360zM245 206h113v235z" />
    <glyph glyph-name="AEacute.small" horiz-adv-x="796" 
d="M358 0v130h-147l-63 -130h-93l256 539h400v-75h-258v-153h234v-75h-234v-161h265v-75h-360zM245 206h113v235zM498 770l57 -59l-166 -125l-37 38z" />
    <glyph glyph-name="Oslashsmall" horiz-adv-x="702" 
d="M211 -50h-89l51 86q-109 77 -109 222q0 122 79.5 198.5t207.5 76.5q59 0 109 -18l31 51h89l-51 -86q109 -77 109 -222q0 -122 -80 -198.5t-207 -76.5q-61 0 -110 18zM543 258q0 91 -59 145l-202 -334q31 -11 69 -11q85 0 138.5 56.5t53.5 143.5zM159 258q0 -90 58 -145
l203 333q-32 12 -69 12q-84 0 -138 -56.5t-54 -143.5z" />
    <glyph glyph-name="Oslashacute.small" horiz-adv-x="702" 
d="M211 -50h-89l51 86q-109 77 -109 222q0 122 79.5 198.5t207.5 76.5q59 0 109 -18l31 51h89l-51 -86q109 -77 109 -222q0 -122 -80 -198.5t-207 -76.5q-61 0 -110 18zM543 258q0 91 -59 145l-202 -334q31 -11 69 -11q85 0 138.5 56.5t53.5 143.5zM159 258q0 -90 58 -145
l203 333q-32 12 -69 12q-84 0 -138 -56.5t-54 -143.5zM392 764l57 -59l-166 -125l-37 38z" />
    <glyph glyph-name="ampersandsmall" horiz-adv-x="622" 
d="M285 542q64 0 104 -33.5t40 -88.5q0 -31 -11 -55.5t-34 -43t-43 -30t-52 -26.5q48 -61 131 -126q38 54 38 128h75q0 -106 -51 -175l75 -48l-55 -55q-31 19 -75 50q-69 -47 -170 -47q-81 0 -133.5 44t-52.5 114q0 93 101 146q-34 62 -34 115q0 58 41 94.5t106 36.5z
M160 150q0 -40 27.5 -65t69.5 -25q61 0 106 27q-87 69 -146 142q-57 -35 -57 -79zM226 411q0 -37 21 -81q46 20 70 39.5t24 50.5q0 24 -15 39t-40 15q-26 0 -43 -17.5t-17 -45.5z" />
    <glyph glyph-name="w.alt" horiz-adv-x="898" 
d="M728 197v102q0 119 -42 165l53 54q37 -35 60 -94t23 -125v-102q0 -90 -58.5 -146.5t-151.5 -56.5q-104 0 -163 68q-59 -68 -163 -68q-93 0 -151.5 56.5t-58.5 146.5v303h94v-303q0 -56 32.5 -91.5t83.5 -35.5q52 0 84 35.5t32 91.5v95q0 119 -29 164l53 55
q31 -36 50.5 -94.5t19.5 -124.5v-95q0 -56 32.5 -91.5t83.5 -35.5q52 0 84 35.5t32 91.5z" />
    <glyph glyph-name="wacute.alt" horiz-adv-x="898" 
d="M728 197v102q0 119 -42 165l53 54q37 -35 60 -94t23 -125v-102q0 -90 -58.5 -146.5t-151.5 -56.5q-104 0 -163 68q-59 -68 -163 -68q-93 0 -151.5 56.5t-58.5 146.5v303h94v-303q0 -56 32.5 -91.5t83.5 -35.5q52 0 84 35.5t32 91.5v95q0 119 -29 164l53 55
q31 -36 50.5 -94.5t19.5 -124.5v-95q0 -56 32.5 -91.5t83.5 -35.5q52 0 84 35.5t32 91.5zM493 750l57 -59l-166 -125l-37 38z" />
    <glyph glyph-name="wcircumflex.alt" horiz-adv-x="898" 
d="M728 197v102q0 119 -42 165l53 54q37 -35 60 -94t23 -125v-102q0 -90 -58.5 -146.5t-151.5 -56.5q-104 0 -163 68q-59 -68 -163 -68q-93 0 -151.5 56.5t-58.5 146.5v303h94v-303q0 -56 32.5 -91.5t83.5 -35.5q52 0 84 35.5t32 91.5v95q0 119 -29 164l53 55
q31 -36 50.5 -94.5t19.5 -124.5v-95v-6q1 -54 33.5 -87.5t82.5 -33.5q52 0 84 35.5t32 91.5zM284 635l163 115l163 -115l-47 -48l-116 83l-116 -83z" />
    <glyph glyph-name="wdieresis.alt" horiz-adv-x="898" 
d="M728 197v102q0 119 -42 165l53 54q37 -35 60 -94t23 -125v-102q0 -90 -58.5 -146.5t-151.5 -56.5q-104 0 -163 68q-59 -68 -163 -68q-93 0 -151.5 56.5t-58.5 146.5v303h94v-303q0 -56 32.5 -91.5t83.5 -35.5q50 0 82 33.5t34 87.5v6v95q0 119 -29 164l53 55
q31 -36 50.5 -94.5t19.5 -124.5v-95q0 -56 32.5 -91.5t83.5 -35.5q52 0 84 35.5t32 91.5zM287 600v100h94v-100h-94zM516 600v100h93v-100h-93z" />
    <glyph glyph-name="wgrave.alt" horiz-adv-x="898" 
d="M728 197v102q0 119 -42 165l53 54q37 -35 60 -94t23 -125v-102q0 -90 -58.5 -146.5t-151.5 -56.5q-104 0 -163 68q-59 -68 -163 -68q-93 0 -151.5 56.5t-58.5 146.5v303h94v-303q0 -56 32.5 -91.5t83.5 -35.5q52 0 84 35.5t32 91.5v95q0 119 -29 164l53 55
q31 -36 50.5 -94.5t19.5 -124.5v-95v-6q1 -54 33.5 -87.5t82.5 -33.5q52 0 84 35.5t32 91.5zM347 691l56 59l147 -146l-37 -38z" />
    <glyph glyph-name="Dcroat.small" horiz-adv-x="749" 
d="M172 0v236h-80v75h80v228h224q125 0 203.5 -75t78.5 -195q0 -119 -78.5 -194t-203.5 -75h-224zM436 236h-169v-161h129q82 0 134.5 54.5t52.5 139.5q0 86 -52.5 140.5t-134.5 54.5h-129v-153h169v-75z" />
    <glyph glyph-name="Ethsmall" horiz-adv-x="749" 
d="M172 0v236h-80v75h80v228h224q125 0 203.5 -75t78.5 -195q0 -119 -78.5 -194t-203.5 -75h-224zM436 236h-169v-161h129q82 0 134.5 54.5t52.5 139.5q0 86 -52.5 140.5t-134.5 54.5h-129v-153h169v-75z" />
    <glyph glyph-name="Eng.small" horiz-adv-x="685" 
d="M466 -258l-39 41q68 69 68 217l-308 395v-395h-95v539h95l308 -396v396h94v-539q0 -135 -123 -258z" />
    <glyph glyph-name="Thornsmall" horiz-adv-x="562" 
d="M92 0v539h95v-86h122q80 0 131 -48.5t51 -126.5q0 -77 -51 -125.5t-131 -48.5h-122v-104h-95zM298 377h-111v-198h111q43 0 70.5 28t27.5 71t-27.5 71t-70.5 28z" />
    <glyph glyph-name="W.alt" horiz-adv-x="1191" 
d="M370 0l-323 700h105l270 -595l123 268l-149 327h101l97 -211l96 211h103l-150 -327l123 -268l269 595h106l-324 -700h-99l-124 263l-125 -263h-99z" />
    <glyph glyph-name="Wacute.alt" horiz-adv-x="1191" 
d="M377 0l-323 700h105l269 -595l124 268l-150 327h102l96 -211l97 211h103l-151 -327l124 -268l269 595h106l-324 -700h-99l-125 263l-124 -263h-99zM639 950l57 -59l-166 -126q-24 26 -37 38z" />
    <glyph glyph-name="Wcircumflex.alt" horiz-adv-x="1191" 
d="M377 0l-323 700h105l269 -595l124 268l-150 327h102l96 -211l97 211h103l-151 -327l124 -268l269 595h106l-324 -700h-99l-125 263l-124 -263h-99zM432 835l163 115l163 -115l-47 -49l-116 83l-116 -83z" />
    <glyph glyph-name="Wdieresis.alt" horiz-adv-x="1191" 
d="M377 0l-323 700h105l269 -595l124 268l-150 327h102l96 -211l97 211h103l-151 -327l124 -268l269 595h106l-324 -700h-99l-125 263l-124 -263h-99zM434 800v100h93v-100h-93zM662 800v100h94v-100h-94z" />
    <glyph glyph-name="Wgrave.alt" horiz-adv-x="1191" 
d="M377 0l-323 700h105l269 -595l124 268l-150 327h102l96 -211l97 211h103l-151 -327l124 -268l269 595h106l-324 -700h-99l-125 263l-124 -263h-99zM493 891l57 59l147 -147q-13 -12 -37 -38z" />
    <glyph glyph-name="Wsmall.alt" horiz-adv-x="985" 
d="M404 0h-94l-256 539h99l206 -444l89 189l-120 255h95l71 -150q8 17 22 47t25.5 55t21.5 48h98l-121 -255l90 -189l204 444h101l-258 -539h-93l-90 183z" />
    <glyph glyph-name="Wacute.smallalt" horiz-adv-x="985" 
d="M404 0h-94l-256 539h99l206 -444l89 189l-120 255h95l71 -150q8 17 22 47t25.5 55t21.5 48h98l-121 -255l90 -189l204 444h101l-258 -539h-93l-90 183zM539 770l57 -59l-166 -125l-37 38z" />
    <glyph glyph-name="Wcircumflex.smallalt" horiz-adv-x="985" 
d="M404 0h-94l-256 539h99l206 -444l89 189l-120 255h95l71 -150q8 17 22 47t25.5 55t21.5 48h98l-121 -255l90 -189l204 444h101l-258 -539h-93l-90 183zM330 655l163 115l163 -115l-47 -48l-116 83l-116 -83z" />
    <glyph glyph-name="Wdieresis.smallalt" horiz-adv-x="985" 
d="M404 0h-94l-256 539h99l206 -444l89 189l-120 255h95l71 -150q8 17 22 47t25.5 55t21.5 48h98l-121 -255l90 -189l204 444h101l-258 -539h-93l-90 183zM333 620v100h94v-100h-94zM562 620v100h93v-100h-93z" />
    <glyph glyph-name="Wgrave.smallalt" horiz-adv-x="985" 
d="M404 0h-94l-256 539h99l206 -444l89 189l-120 255h95l71 -150q8 17 22 47t25.5 55t21.5 48h98l-121 -255l90 -189l204 444h101l-258 -539h-93l-90 183zM393 711l56 59l147 -146l-37 -38z" />
    <glyph glyph-name="a.alt" horiz-adv-x="594" 
d="M428 0v100q-25 -48 -72.5 -76t-107.5 -28q-89 0 -144 67.5t-55 176.5q0 118 79 192t205 74q112 0 188 -36v-470h-93zM428 197v217q-51 16 -111 16q-77 0 -126 -53t-49 -137q0 -75 40.5 -121.5t104.5 -46.5q60 0 99.5 36.5t41.5 88.5z" />
    <glyph glyph-name="aacute.alt" horiz-adv-x="594" 
d="M428 0v100q-25 -48 -72.5 -76t-107.5 -28q-89 0 -144 67.5t-55 176.5q0 118 79 192t205 74q112 0 188 -36v-470h-93zM428 197v217q-51 16 -111 16q-77 0 -126 -53t-49 -137q0 -75 40.5 -121.5t104.5 -46.5q60 0 99.5 36.5t41.5 88.5zM350 750l57 -59l-166 -125l-37 38z
" />
    <glyph glyph-name="abreve.alt" horiz-adv-x="594" 
d="M428 0v100q-25 -48 -72.5 -76t-107.5 -28q-89 0 -144 67.5t-55 176.5q0 118 79 192t205 74q112 0 188 -36v-470h-93zM428 197v217q-51 16 -111 16q-77 0 -126 -53t-49 -137q0 -75 40.5 -121.5t104.5 -46.5q60 0 99.5 36.5t41.5 88.5zM133 682l46 48q49 -49 129 -49
q81 0 128 49l46 -48q-68 -70 -174 -70q-107 0 -175 70z" />
    <glyph glyph-name="acircumflex.alt" horiz-adv-x="594" 
d="M428 0v100q-25 -48 -72.5 -76t-107.5 -28q-89 0 -144 67.5t-55 176.5q0 118 79 192t205 74q112 0 188 -36v-470h-93zM428 197v217q-51 16 -111 16q-77 0 -126 -53t-49 -137q0 -75 40.5 -121.5t104.5 -46.5q60 0 99.5 36.5t41.5 88.5zM141 635l163 115l163 -115l-47 -48
l-116 83l-116 -83z" />
    <glyph glyph-name="adieresis.alt" horiz-adv-x="594" 
d="M428 0v100q-25 -48 -72.5 -76t-107.5 -28q-89 0 -144 67.5t-55 176.5q0 118 79 192t205 74q112 0 188 -36v-470h-93zM428 197v217q-51 16 -111 16q-77 0 -126 -53t-49 -137q0 -75 40.5 -121.5t104.5 -46.5q60 0 99.5 36.5t41.5 88.5zM140 600v100h94v-100h-94zM369 600
v100h93v-100h-93z" />
    <glyph glyph-name="agrave.alt" horiz-adv-x="594" 
d="M428 0v100q-25 -48 -72.5 -76t-107.5 -28q-89 0 -144 67.5t-55 176.5q0 118 79 192t205 74q112 0 188 -36v-470h-93zM428 197v217q-51 16 -111 16q-77 0 -126 -53t-49 -137q0 -75 40.5 -121.5t104.5 -46.5q60 0 99.5 36.5t41.5 88.5zM203 691l56 59l147 -146l-37 -38z
" />
    <glyph glyph-name="amacron.alt" horiz-adv-x="594" 
d="M428 0v100q-25 -48 -72.5 -76t-107.5 -28q-89 0 -144 67.5t-55 176.5q0 118 79 192t205 74q112 0 188 -36v-470h-93zM428 197v217q-51 16 -111 16q-77 0 -126 -53t-49 -137q0 -75 40.5 -121.5t104.5 -46.5q60 0 99.5 36.5t41.5 88.5zM471 638h-327v62h327v-62z" />
    <glyph glyph-name="aogonek.alt" horiz-adv-x="594" 
d="M428 0v100q-25 -48 -72.5 -76t-107.5 -28q-89 0 -144 67.5t-55 176.5q0 118 79 192t205 74q112 0 188 -36v-470q-9 -11 -22.5 -29.5t-36.5 -60.5t-23 -67q0 -39 38 -39q29 0 54 23l37 -39q-41 -41 -93 -41q-40 0 -66 23t-26 60q0 39 18.5 81.5t36.5 65.5l18 23h-28z
M428 197v217q-51 16 -111 16q-77 0 -126 -53t-49 -137q0 -75 40.5 -121.5t104.5 -46.5q60 0 99.5 36.5t41.5 88.5z" />
    <glyph glyph-name="aring.alt" horiz-adv-x="594" 
d="M428 0v100q-25 -48 -72.5 -76t-107.5 -28q-89 0 -144 67.5t-55 176.5q0 118 79 192t205 74q112 0 188 -36v-470h-93zM428 197v217q-51 16 -111 16q-77 0 -126 -53t-49 -137q0 -75 40.5 -121.5t104.5 -46.5q60 0 99.5 36.5t41.5 88.5zM226 671q0 36 22 58.5t57 22.5
t57 -22t22 -59q0 -36 -22 -58t-57 -22t-57 22t-22 58zM262 671q0 -19 12 -30.5t31 -11.5t30.5 11.5t11.5 30.5t-11.5 31t-30.5 12t-31 -12t-12 -31z" />
    <glyph glyph-name="atilde.alt" horiz-adv-x="594" 
d="M428 0v100q-25 -48 -72.5 -76t-107.5 -28q-89 0 -144 67.5t-55 176.5q0 118 79 192t205 74q112 0 188 -36v-470h-93zM428 197v217q-51 16 -111 16q-77 0 -126 -53t-49 -137q0 -75 40.5 -121.5t104.5 -46.5q60 0 99.5 36.5t41.5 88.5zM153 618l-39 39q59 62 120 62
q28 0 77 -17.5t72 -17.5q37 0 69 31l39 -40q-57 -61 -117 -61q-28 0 -77 17t-72 17q-39 0 -72 -30z" />
    <glyph glyph-name="K.alt" horiz-adv-x="688" 
d="M177 0h-101v700h101v-300h103l241 300h113l-268 -340l281 -360h-114l-255 317h-101v-317z" />
    <glyph glyph-name="Kcommaaccent.alt" horiz-adv-x="688" 
d="M177 0h-101v700h101v-300h103l241 300h113l-268 -340l281 -360h-114l-255 317h-101v-317zM310 -293l-30 32q55 56 55 181h72q0 -114 -97 -213z" />
    <glyph glyph-name="k.alt" horiz-adv-x="570" 
d="M76 0v725h94v-428h80l158 203h101l-186 -238l209 -262h-107l-180 220h-75v-220h-94z" />
    <glyph glyph-name="kcommaaccent.alt" horiz-adv-x="570" 
d="M76 0v725h94v-428h80l158 203h101l-186 -238l209 -262h-107l-180 220h-75v-220h-94zM251 -293l-30 32q55 56 55 181h72q0 -114 -97 -213z" />
    <glyph glyph-name="IJ.small" horiz-adv-x="721" 
d="M187 0h-95v539h95v-539zM534 191v347h95v-347q0 -88 -58 -143t-152 -55q-93 0 -154 56l54 55q31 -36 94 -36q53 0 87 34t34 89z" />
    <glyph glyph-name="Hbar.small" horiz-adv-x="777" 
d="M713 388h-80v-388h-95v236h-299v-236h-95v388h-80v69h80v82h95v-82h299v82h95v-82h80v-69zM239 311h299v77h-299v-77z" />
    <glyph glyph-name="Ksmall.alt" horiz-adv-x="624" 
d="M187 0h-95v539h95v-225h74l185 225h107l-214 -258l224 -281h-106l-198 239h-72v-239z" />
    <glyph glyph-name="Kcommaaccent.smallalt" horiz-adv-x="624" 
d="M187 0h-95v539h95v-225h74l185 225h107l-214 -258l224 -281h-106l-198 239h-72v-239zM261 -293l-30 32q55 56 55 181h72q0 -114 -97 -213z" />
    <glyph glyph-name="Lslashsmall" horiz-adv-x="660" 
d="M397 341l-119 -65v-201h311v-75h-407v221l-84 -44l-34 59l118 64v239h96v-183l84 45z" />
    <glyph glyph-name="Tbar.small" horiz-adv-x="659" 
d="M526 278h-149v-278h-95v278h-149v68h149v118h-214v75h523v-75h-214v-118h149v-68z" />
    <glyph glyph-name="v.alt" horiz-adv-x="616" 
d="M453 225v74q0 119 -42 165l53 54q37 -35 60 -94t23 -125v-74q0 -103 -65.5 -167t-169.5 -64t-170 64t-66 167v275h94v-275q0 -68 39.5 -111.5t102.5 -43.5t102 43.5t39 111.5z" />
    <glyph glyph-name="i.alt" horiz-adv-x="340" 
d="M76 600v100h94v-100h-94zM259 84l49 -50q-37 -40 -98 -40q-59 0 -96.5 38.5t-37.5 99.5v368h94v-375q0 -24 14 -39.5t36 -15.5q23 0 39 14z" />
    <glyph glyph-name="iacute.alt" horiz-adv-x="340" 
d="M259 84l49 -50q-37 -40 -98 -40q-59 0 -96.5 38.5t-37.5 99.5v368h94v-375q0 -24 14 -39.5t36 -15.5q23 0 39 14zM169 750l57 -59l-166 -125l-37 38z" />
    <glyph glyph-name="ibreve.alt" horiz-adv-x="340" 
d="M259 84l49 -50q-37 -40 -98 -40q-59 0 -96.5 38.5t-37.5 99.5v368h94v-375q0 -24 14 -39.5t36 -15.5q23 0 39 14zM-51 682l46 48q49 -49 129 -49q81 0 128 49l46 -48q-68 -70 -174 -70q-107 0 -175 70z" />
    <glyph glyph-name="icircumflex.alt" horiz-adv-x="340" 
d="M259 84l49 -50q-37 -40 -98 -40q-59 0 -96.5 38.5t-37.5 99.5v368h94v-375q0 -24 14 -39.5t36 -15.5q23 0 39 14zM-40 635l163 115l163 -115l-47 -48l-116 83l-116 -83z" />
    <glyph glyph-name="idieresis.alt" horiz-adv-x="340" 
d="M259 84l49 -50q-37 -40 -98 -40q-59 0 -96.5 38.5t-37.5 99.5v368h94v-375q0 -24 14 -39.5t36 -15.5q23 0 39 14zM-37 600v100h94v-100h-94zM192 600v100h93v-100h-93z" />
    <glyph glyph-name="igrave.alt" horiz-adv-x="340" 
d="M259 84l49 -50q-37 -40 -98 -40q-59 0 -96.5 38.5t-37.5 99.5v368h94v-375q0 -24 14 -39.5t36 -15.5q23 0 39 14zM23 691l56 59l147 -146l-37 -38z" />
    <glyph glyph-name="imacron.alt" horiz-adv-x="340" 
d="M259 84l49 -50q-37 -40 -98 -40q-59 0 -96.5 38.5t-37.5 99.5v368h94v-375q0 -24 14 -39.5t36 -15.5q23 0 39 14zM287 638h-327v62h327v-62z" />
    <glyph glyph-name="iogonek.alt" horiz-adv-x="340" 
d="M259 84l49 -50q-3 -3 -4 -5q-11 -13 -26 -34t-34 -58t-19 -61q0 -39 38 -39q29 0 54 23l37 -39q-41 -41 -93 -41q-40 0 -66 23t-26 60q0 61 44 131h-3q-59 0 -96.5 38.5t-37.5 99.5v368h94v-375q0 -24 14 -39.5t36 -15.5q23 0 39 14zM76 600v100h94v-100h-94z" />
    <glyph glyph-name="itilde.alt" horiz-adv-x="340" 
d="M259 84l49 -50q-37 -40 -98 -40q-59 0 -96.5 38.5t-37.5 99.5v368h94v-375q0 -24 14 -39.5t36 -15.5q23 0 39 14zM-26 618l-39 39q59 62 120 62q28 0 77 -17.5t72 -17.5q37 0 69 31l39 -40q-57 -61 -117 -61q-28 0 -77 17t-72 17q-39 0 -72 -30z" />
    <glyph glyph-name="ij.alt" horiz-adv-x="585" 
d="M76 600v100h94v-100h-94zM259 84l49 -50q-37 -40 -98 -40q-59 0 -96.5 38.5t-37.5 99.5v368h94v-375q0 -24 14 -39.5t36 -15.5q23 0 39 14zM210 -181l49 51q25 -25 70 -25q37 0 61 27t24 70v558h94v-554q0 -79 -47.5 -128t-124.5 -49q-76 0 -126 50zM414 600v100h94v-100
h-94z" />
    <glyph glyph-name="dotlessi.alt" horiz-adv-x="340" 
d="M259 84l49 -50q-37 -40 -98 -40q-59 0 -96.5 38.5t-37.5 99.5v368h94v-375q0 -24 14 -39.5t36 -15.5q23 0 39 14z" />
    <glyph glyph-name="zero.fitted" horiz-adv-x="616" 
d="M49 350q0 160 70 258t188 98t188 -98t70 -258t-70 -258t-188 -98t-188 98t-70 258zM146 349q0 -122 44.5 -199t116.5 -77q73 0 117 77t44 199q0 124 -44 201t-117 77q-72 0 -116.5 -77.5t-44.5 -200.5z" />
    <glyph glyph-name="one.fitted" horiz-adv-x="616" 
d="M106 0v80h185v514l-181 -100l-41 74l222 132h97v-620h152v-80h-434z" />
    <glyph glyph-name="two.fitted" horiz-adv-x="616" 
d="M75 0v80q14 9 38 26t85 67t107.5 97.5t84.5 110t38 113.5q0 59 -36.5 96t-101.5 37q-101 0 -170 -72l-52 53q95 98 230 98q98 0 162.5 -55.5t64.5 -146.5q0 -60 -34 -125.5t-82 -116.5t-96.5 -93.5t-82.5 -65.5l-34 -23h345v-80h-466z" />
    <glyph glyph-name="three.fitted" horiz-adv-x="616" 
d="M304 -6q-147 0 -241 97l54 56q60 -74 181 -74q67 0 110 36.5t43 93.5q0 58 -42.5 94t-109.5 36h-51v77h52q58 0 94 30t36 78t-36.5 78.5t-94.5 30.5q-113 0 -173 -75l-53 56q89 98 232 98q99 0 160.5 -49t61.5 -127q0 -55 -33.5 -96t-91.5 -62q68 -21 107 -69t39 -112
q0 -88 -67.5 -142.5t-176.5 -54.5z" />
    <glyph glyph-name="four.fitted" horiz-adv-x="616" 
d="M416 0v131h-367v50l353 519h111v-494h53v-75h-53v-131h-97zM163 206h253v361z" />
    <glyph glyph-name="five.fitted" horiz-adv-x="616" 
d="M103 344v356h384v-80h-287v-196h101q103 0 167.5 -62t64.5 -160q0 -94 -66 -151t-167 -57q-142 0 -240 98l51 53q70 -72 178 -72q69 0 108 36.5t39 95.5q0 64 -39.5 101.5t-103.5 37.5h-190z" />
    <glyph glyph-name="six.fitted" 
d="M319 627q-68 0 -113.5 -65.5t-53.5 -174.5q61 53 149 53q114 0 185 -62t71 -159q0 -100 -66.5 -162.5t-172.5 -62.5q-120 0 -191.5 98.5t-71.5 257.5q0 160 71.5 258t192.5 98q119 0 195 -73l-52 -53q-52 47 -143 47zM316 73q64 0 104 40.5t40 105.5q0 61 -45.5 101.5
t-116.5 40.5q-46 0 -85 -19t-61 -53q9 -100 53.5 -158t110.5 -58z" />
    <glyph glyph-name="seven.fitted" horiz-adv-x="616" 
d="M63 620v80h484v-51l-301 -649h-98l288 620h-373z" />
    <glyph glyph-name="eight.fitted" horiz-adv-x="616" 
d="M83 530q0 78 62.5 127t163.5 49t163.5 -49t62.5 -127q0 -55 -33 -96.5t-91 -61.5q67 -21 106.5 -69t39.5 -112q0 -88 -69 -142.5t-179 -54.5q-111 0 -180 54.5t-69 142.5q0 64 39.5 112t106.5 69q-58 20 -90.5 61.5t-32.5 96.5zM157 204q0 -57 42.5 -94t108.5 -37
q67 0 109.5 37t42.5 94q0 58 -42.5 95.5t-109.5 37.5q-66 0 -108.5 -37.5t-42.5 -95.5zM180 515q0 -48 36 -78.5t93 -30.5q58 0 93.5 30.5t35.5 78.5q0 50 -35.5 81t-93.5 31q-57 0 -93 -31.5t-36 -80.5z" />
    <glyph glyph-name="nine.fitted" 
d="M279 73q74 0 123 64t56 170q-60 -57 -149 -57q-112 0 -182 63t-70 164t65.5 165t171.5 64q120 0 190.5 -98.5t70.5 -258.5t-75.5 -258t-201.5 -98t-205 73l52 53q54 -46 154 -46zM296 626q-64 0 -103 -41.5t-39 -107.5q0 -65 44 -106.5t114 -41.5q47 0 86 21t60 58
q-9 103 -53 160.5t-109 57.5z" />
    <glyph glyph-name="oneoldstyle" horiz-adv-x="453" 
d="M46 414l209 126h97v-540h-97v434l-167 -94z" />
    <glyph glyph-name="twooldstyle" horiz-adv-x="553" 
d="M62 0v80q13 7 35 18.5t78.5 47t99.5 69t78 77.5t35 80q0 42 -33.5 68.5t-92.5 26.5q-92 0 -156 -72l-51 53q89 98 216 98q92 0 153 -41.5t61 -109.5q0 -45 -28 -93.5t-68 -86.5t-80 -69.5t-68 -48.5l-28 -17h285v-80h-436z" />
    <glyph glyph-name="threeoldstyle" horiz-adv-x="575" 
d="M286 -156q-144 0 -238 97l54 56q60 -74 178 -74q66 0 108 37t42 94q0 58 -42.5 95.5t-109.5 37.5h-45v76h46q58 0 93.5 28.5t35.5 73.5t-35 73.5t-92 28.5q-111 0 -169 -75l-54 56q87 98 229 98q97 0 157.5 -48.5t60.5 -125.5q0 -54 -33 -94.5t-91 -60.5
q68 -21 107 -68.5t39 -110.5q0 -86 -67 -140t-174 -54z" />
    <glyph glyph-name="fouroldstyle" horiz-adv-x="691" 
d="M443 -150v150h-384v51l371 489h110v-464h83v-76h-83v-150h-97zM179 76h264v332z" />
    <glyph glyph-name="fiveoldstyle" horiz-adv-x="570" 
d="M82 191v349h384v-80h-287v-189h101q103 0 167.5 -61.5t64.5 -159.5q0 -93 -66 -149.5t-167 -56.5q-142 0 -240 98l51 53q70 -72 178 -72q69 0 108 36t39 94q0 63 -39.5 100.5t-103.5 37.5h-190z" />
    <glyph glyph-name="sevenoldstyle" horiz-adv-x="641" 
d="M63 460v80h508v-51l-325 -639h-98l309 610h-394z" />
    <glyph glyph-name="eightoldstyle" horiz-adv-x="594" 
d="M71 530q0 78 63 127t163 49q101 0 164 -49t63 -127q0 -55 -33.5 -96t-91.5 -62q68 -21 107 -69t39 -112q0 -88 -69 -142.5t-179 -54.5t-179 54.5t-69 142.5q0 64 39 112t106 69q-57 20 -90 62t-33 96zM146 204q0 -57 42 -94t108 -37q67 0 109.5 37t42.5 94
q0 58 -42.5 95.5t-109.5 37.5q-66 0 -108 -37t-42 -96zM168 515q0 -48 36 -78.5t93 -30.5q58 0 94 30.5t36 78.5q0 50 -36 81t-94 31q-57 0 -93 -31.5t-36 -80.5z" />
    <glyph glyph-name="zerooldstyle" 
d="M49 270q0 123 71.5 199.5t185.5 76.5q115 0 186.5 -76.5t71.5 -199.5t-71.5 -199.5t-186.5 -76.5q-114 0 -185.5 76.5t-71.5 199.5zM142 270q0 -87 46 -142t118 -55q73 0 118.5 55t45.5 142t-45.5 142t-118.5 55q-72 0 -118 -55t-46 -142z" />
    <glyph glyph-name="zero.taboldstyle" horiz-adv-x="603" 
d="M47 270q0 123 71 199.5t184 76.5t183.5 -76.5t70.5 -199.5t-70.5 -199.5t-183.5 -76.5t-184 76.5t-71 199.5zM141 270q0 -87 45 -142t116 -55t115.5 55t44.5 142t-44.5 142t-115.5 55t-116 -55t-45 -142z" />
    <glyph glyph-name="one.taboldstyle" horiz-adv-x="603" 
d="M95 0v80h174v354l-155 -85l-41 74l196 117h97v-460h164v-80h-435z" />
    <glyph glyph-name="two.taboldstyle" horiz-adv-x="603" 
d="M81 0v80q14 7 36.5 18.5t80 47t101.5 69t80 77.5t36 80q0 42 -33.5 68.5t-93.5 26.5q-94 0 -160 -72l-51 53q89 98 220 98q93 0 154 -41.5t61 -109.5q0 -45 -29 -93.5t-70 -86.5t-82.5 -69.5t-70.5 -48.5l-29 -17h294v-80h-444z" />
    <glyph glyph-name="three.taboldstyle" horiz-adv-x="603" 
d="M302 -156q-146 0 -238 97l54 56q60 -74 177 -74q66 0 108 37t42 94q0 58 -42.5 95.5t-109.5 37.5h-44v76h46q58 0 93.5 28.5t35.5 73.5t-35.5 73.5t-91.5 28.5q-112 0 -170 -75l-53 56q87 98 229 98q97 0 157.5 -48.5t60.5 -125.5q0 -54 -33.5 -94.5t-91.5 -60.5
q68 -21 107 -68.5t39 -110.5q0 -86 -66.5 -140t-173.5 -54z" />
    <glyph glyph-name="four.taboldstyle" horiz-adv-x="603" 
d="M398 -150v150h-347v54l334 486h110v-460h53v-80h-53v-150h-97zM164 80h234v330z" />
    <glyph glyph-name="five.taboldstyle" horiz-adv-x="603" 
d="M99 191v349h384v-80h-287v-189h100q103 0 168 -61.5t65 -159.5q0 -93 -66 -149.5t-167 -56.5q-142 0 -240 98l51 53q70 -72 178 -72q69 0 108 36t39 94q0 63 -40 100.5t-104 37.5h-189z" />
    <glyph glyph-name="six.taboldstyle" horiz-adv-x="603" 
d="M317 627q-71 0 -118 -67t-55 -176q64 53 152 53q115 0 187.5 -62t72.5 -159q0 -98 -67.5 -160t-174.5 -62q-123 0 -195 96.5t-72 259.5q0 160 73.5 258t196.5 98q121 0 199 -73l-52 -53q-53 47 -147 47zM312 73q66 0 106.5 40t40.5 103q0 62 -46 101.5t-120 39.5
q-47 0 -87 -19t-62 -52q9 -101 54 -157t114 -56z" />
    <glyph glyph-name="seven.taboldstyle" horiz-adv-x="603" 
d="M60 460v80h484v-51l-308 -639h-98l293 610h-371z" />
    <glyph glyph-name="eight.taboldstyle" horiz-adv-x="603" 
d="M77 530q0 78 63 127t163 49q101 0 164 -49t63 -127q0 -55 -33.5 -96t-91.5 -62q68 -21 107 -69t39 -112q0 -88 -69 -142.5t-179 -54.5t-179 54.5t-69 142.5q0 64 39 112t106 69q-57 20 -90 62t-33 96zM152 204q0 -57 42.5 -94t107.5 -37q67 0 109.5 37t42.5 94
q0 58 -42.5 95.5t-109.5 37.5q-65 0 -107.5 -37.5t-42.5 -95.5zM174 515q0 -48 36.5 -78.5t92.5 -30.5q58 0 94 30.5t36 78.5q0 50 -36 81t-94 31q-56 0 -92.5 -31.5t-36.5 -80.5z" />
    <glyph glyph-name="nine.taboldstyle" horiz-adv-x="603" 
d="M272 -77q77 0 127.5 67t58.5 177q-62 -57 -153 -57q-113 0 -184.5 60.5t-71.5 157.5t67 157.5t174 60.5q121 0 193 -97t72 -254t-77 -254t-207 -97q-128 0 -209 73l51 53q58 -47 159 -47zM293 467q-66 0 -106.5 -38.5t-40.5 -100.5t45 -100.5t118 -38.5q48 0 88 20t61 54
q-9 96 -53.5 150t-111.5 54z" />
    <glyph glyph-name="afii10024.alt" horiz-adv-x="1036" 
d="M569 0h-101v317h-78l-235 -317h-114l264 360l-250 340h113l221 -300h79v300h101v-300h80l220 300h113l-251 -340l265 -360h-114l-235 317h-78v-317z" />
    <glyph glyph-name="afii10028.alt" horiz-adv-x="688" 
d="M177 0h-101v700h101v-300h103l241 300h113l-268 -340l281 -360h-114l-255 317h-101v-317z" />
    <glyph glyph-name="afii10065.alt" horiz-adv-x="594" 
d="M428 0v100q-25 -48 -72.5 -76t-107.5 -28q-89 0 -144 67.5t-55 176.5q0 118 79 192t205 74q112 0 188 -36v-470h-93zM428 197v217q-51 16 -111 16q-77 0 -126 -53t-49 -137q0 -75 40.5 -121.5t104.5 -46.5q60 0 99.5 36.5t41.5 88.5z" />
    <glyph glyph-name="afii10072.alt" horiz-adv-x="811" 
d="M359 0v220h-52l-162 -220h-107l193 262l-176 238h100l147 -203h57v203h93v-203h57l147 203h100l-176 -238l193 -262h-107l-162 220h-52v-220h-93z" />
    <glyph glyph-name="afii10076.alt" horiz-adv-x="570" 
d="M76 0v500h94v-203h80l158 203h103l-186 -240l207 -260h-107l-180 220h-75v-220h-94z" />
    <glyph glyph-name="afii10017.small" horiz-adv-x="704" 
d="M304 539h97l256 -539h-93l-63 131h-298l-62 -131h-94zM352 443l-115 -237h231z" />
    <glyph glyph-name="afii10018.small" horiz-adv-x="538" 
d="M77 0v539h360v-75h-265v-140h138q75 0 122 -45t47 -117t-47 -117t-122 -45h-233zM172 75h129q37 0 61 24.5t24 62.5t-24 63t-61 25h-129v-175z" />
    <glyph glyph-name="afii10019.small" horiz-adv-x="544" 
d="M77 0v539h230q65 0 105.5 -37.5t40.5 -96.5q0 -83 -65 -119q44 -13 71 -50.5t27 -89.5q0 -65 -44 -105.5t-115 -40.5h-250zM172 75h122q42 0 67.5 24t25.5 60q0 37 -25.5 61t-67.5 24h-122v-169zM277 464h-105v-146h105q36 0 58.5 20.5t22.5 53.5q0 31 -22.5 51.5
t-58.5 20.5z" />
    <glyph glyph-name="afii10020.small" horiz-adv-x="511" 
d="M77 0v539h376v-75h-281v-464h-95z" />
    <glyph glyph-name="afii10021.small" horiz-adv-x="754" 
d="M74 75h79q29 17 38 114.5t9 349.5h404v-464h80v-210h-95v135h-420v-135h-95v210zM295 464q0 -306 -45 -389h258v389h-213z" />
    <glyph glyph-name="afii10022.small" horiz-adv-x="548" 
d="M77 0v539h393v-75h-298v-153h275v-75h-275v-161h306v-75h-401z" />
    <glyph glyph-name="afii10023.small" horiz-adv-x="549" 
d="M77 0v539h393v-75h-298v-153h275v-75h-275v-161h306v-75h-401zM113 620v100h94v-100h-94zM342 620v100h93v-100h-93z" />
    <glyph glyph-name="afii10024.small" horiz-adv-x="902" 
d="M499 0h-95v178l-61 63l-181 -241h-107l227 304l-215 235h115l222 -240v240h95v-240l222 240h114l-215 -235l227 -304h-106l-182 241l-60 -63v-178z" />
    <glyph glyph-name="afii10025.small" horiz-adv-x="523" 
d="M175 244v74h81q36 0 58.5 20.5t22.5 53.5q0 34 -26 55.5t-68 21.5q-81 0 -124 -52l-50 49q70 79 185 79q79 0 128.5 -39t49.5 -101q0 -83 -65 -119q45 -13 71 -50.5t26 -89.5q0 -68 -57 -110t-150 -42q-123 0 -204 78l49 49q50 -51 153 -51q49 0 80 25t31 64
q0 37 -25.5 61t-67.5 24h-98z" />
    <glyph glyph-name="afii10026.small" horiz-adv-x="653" 
d="M480 396l-308 -396h-95v539h95v-396l308 396h95v-539h-95v396z" />
    <glyph glyph-name="afii10027.small" horiz-adv-x="653" 
d="M480 396l-308 -396h-95v539h95v-396l308 396h95v-539h-95v396zM153 702l46 48q49 -49 129 -49q81 0 128 49l46 -48q-68 -70 -174 -70q-107 0 -175 70z" />
    <glyph glyph-name="afii10028.small" horiz-adv-x="604" 
d="M172 0h-95v539h95v-235l243 235h118l-231 -227l247 -312h-107l-202 249l-68 -71v-178z" />
    <glyph glyph-name="afii10029.small" horiz-adv-x="678" 
d="M93 82q20 -13 39 -13q39 0 51.5 95t12.5 375h405v-539h-96v464h-214q0 -192 -12.5 -289t-44.5 -139t-95 -42q-55 0 -96 37z" />
    <glyph glyph-name="afii10030.small" horiz-adv-x="802" 
d="M77 0v539h127l197 -410l198 410h126v-539h-95v404l-194 -404h-69l-195 404v-404h-95z" />
    <glyph glyph-name="afii10031.small" horiz-adv-x="644" 
d="M472 0v236h-300v-236h-95v539h95v-228h300v228h95v-539h-95z" />
    <glyph glyph-name="afii10032.small" horiz-adv-x="692" 
d="M59 269q0 123 79.5 199.5t207.5 76.5q127 0 207 -76.5t80 -199.5q0 -122 -80 -198.5t-207 -76.5q-128 0 -207.5 76.5t-79.5 198.5zM154 269q0 -87 54 -143t138 -56q85 0 138.5 56t53.5 143q0 88 -53.5 144t-138.5 56q-84 0 -138 -56t-54 -144z" />
    <glyph glyph-name="afii10033.small" horiz-adv-x="639" 
d="M467 0v464h-295v-464h-95v539h485v-539h-95z" />
    <glyph glyph-name="afii10034.small" horiz-adv-x="535" 
d="M77 0v539h218q80 0 130.5 -48.5t50.5 -125.5q0 -78 -50.5 -126.5t-130.5 -48.5h-123v-190h-95zM285 464h-113v-199h113q43 0 69.5 28t26.5 72t-26.5 71.5t-69.5 27.5z" />
    <glyph glyph-name="afii10035.small" horiz-adv-x="617" 
d="M501 127l56 -54q-81 -79 -211 -79q-128 0 -207.5 76.5t-79.5 198.5q0 123 80 199.5t208 76.5q127 0 210 -78l-56 -55q-51 57 -149 57q-88 0 -143 -55.5t-55 -144.5q0 -88 55 -143.5t143 -55.5q100 0 149 57z" />
    <glyph glyph-name="afii10036.small" horiz-adv-x="650" 
d="M64 464v75h523v-75h-215v-464h-95v464h-213z" />
    <glyph glyph-name="afii10037.small" horiz-adv-x="624" 
d="M230 113l34 55l-218 371h98l169 -284l169 284h98l-257 -440q-65 -105 -160 -105q-75 0 -125 45q1 0 9 8.5t17 18t17 18.5l8 8q24 -23 67 -23q46 0 74 44z" />
    <glyph glyph-name="afii10038.small" horiz-adv-x="700" 
d="M397 0h-95v48q-108 0 -176 61.5t-68 159.5t68 160t176 62v48h95v-48q109 -1 176.5 -62.5t67.5 -159.5t-67.5 -159.5t-176.5 -61.5v-48zM302 123v292q-65 0 -106.5 -41t-41.5 -105t41.5 -105t106.5 -41zM546 268q0 65 -41.5 106t-107.5 41v-292q66 0 107.5 40.5
t41.5 104.5z" />
    <glyph glyph-name="afii10039.small" horiz-adv-x="662" 
d="M160 0h-106l221 275l-209 264h106l158 -199l159 199h107l-210 -264l221 -275h-107l-170 210z" />
    <glyph glyph-name="afii10040.small" horiz-adv-x="707" 
d="M172 539v-464h278v464h95v-464h97v-210h-95v135h-470v539h95z" />
    <glyph glyph-name="afii10041.small" horiz-adv-x="598" 
d="M172 539v-173q0 -49 33 -79.5t84 -30.5q58 0 96 37.5t40 87.5v158h96v-539h-96v271q-58 -90 -177 -90q-76 -1 -123.5 45t-47.5 120v193h95z" />
    <glyph glyph-name="afii10042.small" horiz-adv-x="929" 
d="M512 539v-464h244v464h95v-539h-774v539h95v-464h245v464h95z" />
    <glyph glyph-name="afii10043.small" horiz-adv-x="1014" 
d="M77 0v539h95v-464h245v464h95v-464h244v464h95v-464h98v-210h-95v135h-777z" />
    <glyph glyph-name="afii10044.small" horiz-adv-x="686" 
d="M77 464v75h239v-197h133q79 0 128.5 -47.5t49.5 -123.5t-49.5 -123.5t-128.5 -47.5h-228v464h-144zM316 75h122q42 0 68 27t26 69q0 43 -26 69.5t-68 26.5h-122v-192z" />
    <glyph glyph-name="afii10045.small" horiz-adv-x="745" 
d="M77 0v539h95v-197h134q78 0 128 -47.5t50 -123.5t-50 -123.5t-128 -47.5h-229zM172 75h123q42 0 68 27t26 69q0 43 -26 69.5t-68 26.5h-123v-192zM668 0h-96v539h96v-539z" />
    <glyph glyph-name="afii10046.small" horiz-adv-x="542" 
d="M77 0v539h95v-197h134q78 0 128 -47.5t50 -123.5t-50 -123.5t-128 -47.5h-229zM172 75h123q42 0 68 27t26 69q0 43 -26 69.5t-68 26.5h-123v-192z" />
    <glyph glyph-name="afii10047.small" horiz-adv-x="617" 
d="M114 411l-55 55q81 79 210 79q128 0 208 -77t80 -199t-80 -198.5t-208 -76.5q-127 0 -210 77l55 56q52 -58 150 -58q80 0 137 45.5t58 121.5h-271v75h270q-12 72 -64.5 115t-129.5 43q-98 0 -150 -58z" />
    <glyph glyph-name="afii10048.small" horiz-adv-x="884" 
d="M554 -6q-112 0 -185 66.5t-84 175.5h-113v-236h-95v539h95v-228h113q14 106 87 170t182 64q121 0 196 -76.5t75 -199.5q0 -122 -75 -198.5t-196 -76.5zM378 269q0 -87 50 -143t126 -56q78 0 127 56t49 143q0 88 -49 144t-127 56q-76 0 -126 -56.5t-50 -143.5z" />
    <glyph glyph-name="afii10049.small" horiz-adv-x="551" 
d="M379 219h-59q-18 -27 -81 -110t-80 -109h-102q17 25 80 108t83 112q-65 7 -104.5 50.5t-39.5 108.5q0 71 46 115.5t120 44.5h232v-539h-95v219zM379 464h-126q-36 0 -59 -24t-23 -61t23 -60.5t59 -23.5h126v169z" />
    <glyph glyph-name="afii10050.small" horiz-adv-x="507" 
d="M172 464v-464h-95v539h270v111h95v-186h-270z" />
    <glyph glyph-name="afii10051.small" horiz-adv-x="743" 
d="M277 0v464h-213v75h523v-75h-215v-202q22 40 59.5 63.5t84.5 23.5q67 0 108.5 -42t41.5 -109v-184q0 -117 -111 -226l-36 37q52 51 52 175v184q0 39 -26 64t-67 25q-44 0 -74 -34t-32 -75v-164h-95z" />
    <glyph glyph-name="afii10052.small" horiz-adv-x="517" 
d="M77 0v539h376v-75h-281v-464h-95zM317 770l57 -59l-166 -125l-37 38z" />
    <glyph glyph-name="afii10053.small" horiz-adv-x="615" 
d="M477 311v-75h-322q10 -75 63.5 -120.5t133.5 -45.5q100 0 149 57l56 -54q-81 -79 -211 -79q-128 0 -207.5 76.5t-79.5 198.5q0 123 80 199.5t208 76.5q127 0 210 -78l-56 -55q-51 57 -149 57q-78 0 -131 -43t-64 -115h320z" />
    <glyph glyph-name="afii10054.small" horiz-adv-x="493" 
d="M434 157q0 -72 -58.5 -117.5t-142.5 -45.5q-99 0 -180 79l48 47q50 -50 130 -50q47 0 77.5 23t30.5 59q0 28 -28 47t-68.5 32t-81 29.5t-68.5 49.5t-28 81q0 69 50.5 111.5t127.5 42.5q103 0 179 -79l-46 -48q-50 51 -123 51q-45 0 -69 -20t-24 -54q0 -31 28 -52
t68.5 -35t81 -29.5t68.5 -46t28 -75.5z" />
    <glyph glyph-name="afii10055.small" horiz-adv-x="250" 
d="M172 0h-95v539h95v-539z" />
    <glyph glyph-name="afii10056.small" horiz-adv-x="250" 
d="M172 0h-95v539h95v-539zM-27 614v100h93v-100h-93zM185 614v100h93v-100h-93z" />
    <glyph glyph-name="afii10057.small" horiz-adv-x="499" 
d="M326 192v347h95v-347q0 -88 -58 -143t-152 -55q-92 0 -154 57l54 54q32 -35 94 -35q54 0 87.5 33.5t33.5 88.5z" />
    <glyph glyph-name="afii10058.small" horiz-adv-x="970" 
d="M93 82q20 -13 39 -13q39 0 51.5 95t12.5 375h405v-197h132q80 0 129 -47.5t49 -123.5t-49.5 -123.5t-128.5 -47.5h-228v464h-214q0 -192 -12.5 -289t-44.5 -139t-95 -42q-55 0 -96 37zM601 75h122q41 0 67 27t26 69t-26 69t-67 27h-122v-192z" />
    <glyph glyph-name="afii10059.small" horiz-adv-x="937" 
d="M472 0v236h-300v-236h-95v539h95v-228h300v228h95v-197h133q79 0 128.5 -47.5t49.5 -123.5t-49.5 -123.5t-128.5 -47.5h-228zM567 75h122q42 0 68 27t26 69q0 43 -26 69.5t-68 26.5h-122v-192z" />
    <glyph glyph-name="afii10060.small" horiz-adv-x="743" 
d="M571 0v184q0 40 -26 65t-67 25q-44 0 -74 -33t-32 -77v-164h-95v464h-213v75h523v-75h-215v-203q22 41 59 64.5t85 23.5q67 0 108.5 -42t41.5 -109v-198h-95z" />
    <glyph glyph-name="afii10061.small" horiz-adv-x="604" 
d="M172 0h-95v539h95v-235l243 235h118l-231 -227l247 -312h-107l-202 249l-68 -71v-178zM338 770l57 -59l-166 -125l-37 38z" />
    <glyph glyph-name="afii10062.small" horiz-adv-x="638" 
d="M145 702l46 48q47 -49 128 -49q80 0 129 49l46 -48q-68 -70 -175 -70q-106 0 -174 70zM236 113l35 55l-219 371h99l168 -284l170 284h97l-257 -440q-64 -105 -160 -105q-74 0 -125 45q1 0 9 8.5t17.5 18t17.5 18.5l8 8q24 -23 67 -23q47 0 73 44z" />
    <glyph glyph-name="afii10145.small" horiz-adv-x="639" 
d="M271 0h-194v539h95v-464h295v464h95v-539h-196v-135h-95v135z" />
    <glyph glyph-name="uni0400.small" horiz-adv-x="549" 
d="M77 0v539h393v-75h-298v-153h275v-75h-275v-161h306v-75h-401zM178 711l56 59l147 -146l-37 -38z" />
    <glyph glyph-name="uni040D.small" horiz-adv-x="653" 
d="M480 396l-308 -396h-95v539h95v-396l308 396h95v-539h-95v396zM222 711l56 59l147 -146l-37 -38z" />
    <glyph glyph-name="afii10021.altsmall" horiz-adv-x="792" 
d="M53 75h71l223 464h98l221 -464h73v-210h-96v135h-495v-135h-95v210zM396 440l-172 -365h343z" />
    <glyph glyph-name="afii10029.altsmall" horiz-adv-x="703" 
d="M351 438l-201 -438h-104l257 539h97l257 -539h-104z" />
    <glyph glyph-name="afii10058.altsmall" horiz-adv-x="916" 
d="M351 438l-201 -438h-104l257 539h97l94 -197h185q79 0 128.5 -47.5t49.5 -123.5t-49.5 -123.5t-128.5 -47.5h-126zM669 267h-141l94 -192h47q42 0 67.5 27t25.5 69q0 43 -25.5 69.5t-67.5 26.5z" />
    <glyph glyph-name="afii10024.altsmall" horiz-adv-x="887" 
d="M491 0h-95v239h-55l-181 -239h-107l208 278l-197 261h106l170 -225h56v225h95v-225h57l169 225h106l-198 -261l209 -278h-107l-182 239h-54v-239z" />
    <glyph glyph-name="afii10028.altsmall" horiz-adv-x="604" 
d="M172 0h-95v539h95v-225h74l186 225h106l-210 -261l221 -278h-107l-197 239h-73v-239z" />
    <glyph glyph-name="uni018F.small" horiz-adv-x="686" 
d="M80 301h443q-9 74 -63.5 120t-135.5 46q-107 0 -163 -58q-8 8 -17.5 17t-20.5 20.5t-17 17.5q81 78 216 78q133 0 216 -76t83 -198t-75.5 -197.5t-195.5 -75.5t-195 75.5t-75 197.5v33zM523 233h-345q10 -74 57 -119.5t115 -45.5q70 0 117 45.5t56 119.5z" />
    <glyph glyph-name="afii10061.alt" horiz-adv-x="688" 
d="M177 0h-101v700h101v-300h103l241 300h113l-268 -340l281 -360h-114l-255 317h-101v-317zM388 950l57 -59l-166 -125l-37 38z" />
    <glyph glyph-name="afii10109.alt" horiz-adv-x="560" 
d="M76 0v500h94v-203h80l158 203h103l-186 -240l207 -260h-107l-180 220h-75v-220h-94zM324 750l57 -59l-166 -125l-37 38z" />
    <glyph glyph-name="afii10061.smallalt" horiz-adv-x="604" 
d="M172 0h-95v539h95v-225h74l186 225h106l-210 -261l221 -278h-107l-197 239h-73v-239zM338 770l57 -59l-166 -125l-37 38z" />
    <glyph glyph-name="centoldstyle" horiz-adv-x="533" 
d="M270 -100v95q-100 12 -160.5 81t-60.5 174q0 104 60.5 173.5t160.5 80.5v96h60v-95q97 -7 163 -72l-51 -52q-40 42 -112 48v-358q72 6 112 48l51 -52q-65 -65 -163 -72v-95h-60zM270 76v347q-59 -14 -93.5 -60.5t-34.5 -112.5q0 -67 34.5 -114t93.5 -60z" />
    <glyph glyph-name="dollaroldstyle" horiz-adv-x="449" 
d="M198 -100v94q-89 7 -152 73l48 50q45 -47 121 -47q38 0 64.5 21t26.5 52q0 25 -25.5 42.5t-62 30t-73.5 27.5t-62.5 45t-25.5 74q0 57 40 96t101 47v95h60v-96q79 -10 134 -70l-47 -51q-44 47 -116 47q-35 0 -56.5 -18.5t-21.5 -46.5q0 -27 25.5 -45.5t62 -31.5t73.5 -28
t62.5 -43.5t25.5 -70.5q0 -56 -40 -96t-102 -51v-99h-60z" />
    <glyph glyph-name="sixoldstyle" horiz-adv-x="606" 
d="M318 627q-71 0 -118 -67t-54 -176q63 53 151 53q115 0 187.5 -62t72.5 -159q0 -98 -67 -160t-175 -62q-122 0 -194 96.5t-72 259.5q0 160 73 258t196 98q121 0 199 -73l-52 -53q-53 47 -147 47zM313 73q66 0 106.5 40t40.5 103q0 62 -46 101.5t-120 39.5
q-47 0 -86.5 -18.5t-61.5 -52.5q8 -101 53 -157t114 -56z" />
    <glyph glyph-name="nineoldstyle" horiz-adv-x="603" 
d="M271 -77q77 0 128 67t59 177q-62 -57 -153 -57q-114 0 -185 60.5t-71 157.5t67 157.5t174 60.5q121 0 193 -97t72 -254t-77.5 -254t-206.5 -97t-210 73l52 53q57 -47 158 -47zM292 467q-66 0 -106 -38.5t-40 -100.5t45 -100.5t117 -38.5q48 0 88 20t62 54
q-10 96 -54.5 150t-111.5 54z" />
    <glyph glyph-name="Alpha.small" horiz-adv-x="707" 
d="M306 539h97l257 -539h-93l-64 131h-297l-63 -131h-93zM355 443l-115 -237h230z" />
    <glyph glyph-name="Alphatonos.small" horiz-adv-x="707" 
d="M306 539h97l257 -539h-93l-64 131h-297l-63 -131h-93zM355 443l-115 -237h230zM370 774l56 -59l-106 -126l-37 37z" />
    <glyph glyph-name="Beta.small" horiz-adv-x="544" 
d="M77 0v539h230q65 0 105.5 -37.5t40.5 -96.5q0 -83 -65 -119q44 -13 71 -50.5t27 -89.5q0 -65 -44 -105.5t-115 -40.5h-250zM172 75h122q42 0 67.5 24t25.5 60q0 37 -25.5 61t-67.5 24h-122v-169zM277 464h-105v-146h105q36 0 58.5 20.5t22.5 53.5q0 31 -22.5 51.5
t-58.5 20.5z" />
    <glyph glyph-name="Gamma.small" horiz-adv-x="510" 
d="M77 0v539h376v-75h-281v-464h-95z" />
    <glyph glyph-name="Delta.small" horiz-adv-x="703" 
d="M657 0h-611l257 539h97zM351 440l-170 -365h341z" />
    <glyph glyph-name="Epsilon.small" horiz-adv-x="538" 
d="M77 0v539h393v-75h-298v-153h275v-75h-275v-161h306v-75h-401z" />
    <glyph glyph-name="Epsilontonos.small" horiz-adv-x="538" 
d="M77 0v539h393v-75h-298v-153h275v-75h-275v-161h306v-75h-401zM296 774l56 -59l-106 -126l-37 37z" />
    <glyph glyph-name="Zeta.small" horiz-adv-x="638" 
d="M79 464v75h484v-45l-357 -419h362v-75h-495v45l356 419h-350z" />
    <glyph glyph-name="Eta.small" horiz-adv-x="644" 
d="M472 0v236h-300v-236h-95v539h95v-228h300v228h95v-539h-95z" />
    <glyph glyph-name="Etatonos.small" horiz-adv-x="644" 
d="M472 0v236h-300v-236h-95v539h95v-228h300v228h95v-539h-95zM337 774l56 -59l-106 -126l-37 37z" />
    <glyph glyph-name="Theta.small" horiz-adv-x="692" 
d="M59 269q0 123 79.5 199.5t207.5 76.5q127 0 207 -76.5t80 -199.5q0 -122 -80 -198.5t-207 -76.5q-128 0 -207.5 76.5t-79.5 198.5zM154 269q0 -87 54 -143t138 -56q85 0 138.5 56t53.5 143q0 88 -53.5 144t-138.5 56q-84 0 -138 -56t-54 -144zM198 242v62h295v-62h-295z
" />
    <glyph glyph-name="Iota.small" horiz-adv-x="250" 
d="M172 0h-95v539h95v-539z" />
    <glyph glyph-name="Iotatonos.small" horiz-adv-x="250" 
d="M172 0h-95v539h95v-539zM142 774l56 -59l-106 -126l-37 37z" />
    <glyph glyph-name="Kappa.small" horiz-adv-x="606" 
d="M172 0h-95v539h95v-235l243 235h118l-233 -229l249 -310h-107l-204 247l-66 -69v-178z" />
    <glyph glyph-name="Lambda.small" horiz-adv-x="703" 
d="M351 437l-199 -437h-106l257 539h97l257 -539h-105z" />
    <glyph glyph-name="Mu.small" horiz-adv-x="802" 
d="M77 0v539h127l197 -410l198 410h126v-539h-95v404l-194 -404h-69l-195 404v-404h-95z" />
    <glyph glyph-name="Nu.small" horiz-adv-x="653" 
d="M480 0l-308 396v-396h-95v539h95l308 -396v396h95v-539h-95z" />
    <glyph glyph-name="Xi.small" horiz-adv-x="584" 
d="M72 0v75h439v-75h-439zM505 464h-427v75h427v-75zM481 236h-379v75h379v-75z" />
    <glyph glyph-name="Omicron.small" horiz-adv-x="692" 
d="M59 269q0 123 79.5 199.5t207.5 76.5q127 0 207 -76.5t80 -199.5q0 -122 -80 -198.5t-207 -76.5q-128 0 -207.5 76.5t-79.5 198.5zM154 269q0 -87 54 -143t138 -56q85 0 138.5 56t53.5 143q0 88 -53.5 144t-138.5 56q-84 0 -138 -56t-54 -144z" />
    <glyph glyph-name="Omicrontonos.small" horiz-adv-x="692" 
d="M59 269q0 123 79.5 199.5t207.5 76.5q127 0 207 -76.5t80 -199.5q0 -122 -80 -198.5t-207 -76.5q-128 0 -207.5 76.5t-79.5 198.5zM154 269q0 -87 54 -143t138 -56q85 0 138.5 56t53.5 143q0 88 -53.5 144t-138.5 56q-84 0 -138 -56t-54 -144zM361 774l56 -59l-106 -126
l-37 37z" />
    <glyph glyph-name="Pi.small" horiz-adv-x="639" 
d="M467 0v464h-295v-464h-95v539h485v-539h-95z" />
    <glyph glyph-name="Rho.small" horiz-adv-x="535" 
d="M77 0v539h218q80 0 130.5 -48.5t50.5 -125.5q0 -78 -50.5 -126.5t-130.5 -48.5h-123v-190h-95zM285 464h-113v-199h113q43 0 69.5 28t26.5 72t-26.5 71.5t-69.5 27.5z" />
    <glyph glyph-name="Sigma.small" horiz-adv-x="580" 
d="M505 464h-280l161 -189l-173 -200h298v-75h-439v35l204 240l-198 229v35h427v-75z" />
    <glyph glyph-name="Tau.small" horiz-adv-x="650" 
d="M64 464v75h523v-75h-215v-464h-95v464h-213z" />
    <glyph glyph-name="Upsilon.small" horiz-adv-x="623" 
d="M263 0v195l-216 344h97l167 -260l168 260h98l-218 -344v-195h-96z" />
    <glyph glyph-name="Upsilondieresis.small" horiz-adv-x="623" 
d="M263 0v195l-216 344h97l167 -260l168 260h98l-218 -344v-195h-96zM150 620v100h94v-100h-94zM379 620v100h93v-100h-93z" />
    <glyph glyph-name="Upsilontonos.small" horiz-adv-x="623" 
d="M263 0v195l-216 344h97l167 -260l168 260h98l-218 -344v-195h-96zM326 774l56 -59l-106 -126l-37 37z" />
    <glyph glyph-name="Phi.small" horiz-adv-x="699" 
d="M396 0h-94v48q-109 0 -176.5 61.5t-67.5 159.5t67.5 160t176.5 62v48h94v-48q109 -1 176.5 -62.5t67.5 -159.5t-67.5 -159.5t-176.5 -61.5v-48zM302 123v292q-65 0 -107 -41t-42 -105t42 -105t107 -41zM545 268q0 65 -41.5 106t-107.5 41v-292q66 0 107.5 40.5
t41.5 104.5z" />
    <glyph glyph-name="Chi.small" horiz-adv-x="664" 
d="M160 0h-106l221 275l-209 264h106l158 -199l159 199h107l-210 -264l221 -275h-107l-170 210z" />
    <glyph glyph-name="Psi.small" horiz-adv-x="671" 
d="M470 513l43 42q91 -88 91 -182v-53q0 -79 -61 -129t-158 -50v-141h-95v141q-94 0 -153.5 50t-59.5 129v219h95v-212q0 -48 33 -79t85 -31v322h95v-322q55 0 89.5 31t34.5 79v46q0 104 -39 140z" />
    <glyph glyph-name="Omega.small" horiz-adv-x="693" 
d="M406 0v75q61 19 96.5 71t35.5 123q0 88 -53.5 144t-138.5 56q-84 0 -138 -56t-54 -144q0 -71 36 -123t96 -71v-75h-227v75h83q-83 73 -83 194q0 123 79.5 199.5t207.5 76.5q127 0 207 -76.5t80 -199.5q0 -121 -84 -194h84v-75h-227z" />
    </font>
</defs>
</svg>
