<?xml version="1.0" standalone="no"?>
<!DOCTYPE svg PUBLIC "-//W3C//DTD SVG 1.1//EN" "http://www.w3.org/Graphics/SVG/1.1/DTD/svg11.dtd" >
<svg xmlns="http://www.w3.org/2000/svg" xmlns:xlink="http://www.w3.org/1999/xlink" version="1.1">
<metadata>
Created by FontForge 20190801 at Mon Apr 16 18:51:24 2018
 By www-data
Alternate r
</metadata>
<defs>
<font id="FontspringDEMOrocgroteskcondregular" horiz-adv-x="598" >
  <font-face 
    font-family="FontspringDEMOrocgroteskcondregular"
    font-weight="400"
    font-stretch="condensed"
    units-per-em="1000"
    panose-1="0 0 5 6 0 0 0 0 0 0"
    ascent="760"
    descent="-240"
    x-height="494"
    cap-height="658"
    bbox="-64 -206 618 697"
    underline-thickness="50"
    underline-position="-130"
    unicode-range="U+000D-007E"
  />
<missing-glyph 
d="M101 197q-6 0 -9 -1v-98q2 -1 9 -1q18 0 24.5 12t6.5 38t-6.5 38t-24.5 12zM253 161v-24h-40v-38h47v-24h-76v145h76v-25h-47v-34h40zM99 73q-23 0 -36 2v143q26 4 37 4q33 0 47 -18t14 -57t-14.5 -56.5t-47.5 -17.5zM286 220h39l19 -80l19 80h40q1 -21 3.5 -78.5
t2.5 -66.5h-29q0 53 -3 104l-20 -82h-27l-20 82h-1q-2 -68 -2 -104h-28q2 84 7 145zM482 73q-29 0 -41 17.5t-12 56.5t12 57t41 18t41.5 -18t12.5 -57t-12.5 -56.5t-41.5 -17.5zM482 197q-14 0 -19 -11.5t-5 -38.5q0 -50 24 -50q15 0 20 12t5 38q0 27 -5 38.5t-20 11.5z
M472 496q34 0 48 -20t14 -43q0 -21 -16.5 -35t-35.5 -17q-104 -12 -166 -72q3 8 8.5 20.5t22.5 44.5t34.5 57t42.5 45t48 20zM139 444q26 0 52 -19.5t44 -47t32 -54.5t21 -47l7 -19q-57 72 -156 72q-24 0 -43 15t-19 37q0 26 16.5 44.5t45.5 18.5zM314 593q19 -18 24 -50
t-1.5 -64t-15.5 -62t-17 -49l-9 -18q10 93 -61 161q-17 17 -20.5 40t11.5 41q18 18 41.5 19.5t47.5 -18.5z" />
    <glyph glyph-name=".notdef" 
d="M101 197q-6 0 -9 -1v-98q2 -1 9 -1q18 0 24.5 12t6.5 38t-6.5 38t-24.5 12zM253 161v-24h-40v-38h47v-24h-76v145h76v-25h-47v-34h40zM99 73q-23 0 -36 2v143q26 4 37 4q33 0 47 -18t14 -57t-14.5 -56.5t-47.5 -17.5zM286 220h39l19 -80l19 80h40q1 -21 3.5 -78.5
t2.5 -66.5h-29q0 53 -3 104l-20 -82h-27l-20 82h-1q-2 -68 -2 -104h-28q2 84 7 145zM482 73q-29 0 -41 17.5t-12 56.5t12 57t41 18t41.5 -18t12.5 -57t-12.5 -56.5t-41.5 -17.5zM482 197q-14 0 -19 -11.5t-5 -38.5q0 -50 24 -50q15 0 20 12t5 38q0 27 -5 38.5t-20 11.5z
M472 496q34 0 48 -20t14 -43q0 -21 -16.5 -35t-35.5 -17q-104 -12 -166 -72q3 8 8.5 20.5t22.5 44.5t34.5 57t42.5 45t48 20zM139 444q26 0 52 -19.5t44 -47t32 -54.5t21 -47l7 -19q-57 72 -156 72q-24 0 -43 15t-19 37q0 26 16.5 44.5t45.5 18.5zM314 593q19 -18 24 -50
t-1.5 -64t-15.5 -62t-17 -49l-9 -18q10 93 -61 161q-17 17 -20.5 40t11.5 41q18 18 41.5 19.5t47.5 -18.5z" />
    <glyph glyph-name=".null" horiz-adv-x="0" 
 />
    <glyph glyph-name="nonmarkingreturn" horiz-adv-x="333" 
 />
    <glyph glyph-name="NULL" horiz-adv-x="0" 
 />
    <glyph glyph-name="NULL" horiz-adv-x="0" 
 />
    <glyph glyph-name="CR" unicode="&#xd;" horiz-adv-x="168" 
 />
    <glyph glyph-name="space" unicode=" " horiz-adv-x="168" 
 />
    <glyph glyph-name="exclam" unicode="!" 
d="M101 197q-6 0 -9 -1v-98q2 -1 9 -1q18 0 24.5 12t6.5 38t-6.5 38t-24.5 12zM253 161v-24h-40v-38h47v-24h-76v145h76v-25h-47v-34h40zM99 73q-23 0 -36 2v143q26 4 37 4q33 0 47 -18t14 -57t-14.5 -56.5t-47.5 -17.5zM286 220h39l19 -80l19 80h40q1 -21 3.5 -78.5
t2.5 -66.5h-29q0 53 -3 104l-20 -82h-27l-20 82h-1q-2 -68 -2 -104h-28q2 84 7 145zM482 73q-29 0 -41 17.5t-12 56.5t12 57t41 18t41.5 -18t12.5 -57t-12.5 -56.5t-41.5 -17.5zM482 197q-14 0 -19 -11.5t-5 -38.5q0 -50 24 -50q15 0 20 12t5 38q0 27 -5 38.5t-20 11.5z
M472 496q34 0 48 -20t14 -43q0 -21 -16.5 -35t-35.5 -17q-104 -12 -166 -72q3 8 8.5 20.5t22.5 44.5t34.5 57t42.5 45t48 20zM139 444q26 0 52 -19.5t44 -47t32 -54.5t21 -47l7 -19q-57 72 -156 72q-24 0 -43 15t-19 37q0 26 16.5 44.5t45.5 18.5zM314 593q19 -18 24 -50
t-1.5 -64t-15.5 -62t-17 -49l-9 -18q10 93 -61 161q-17 17 -20.5 40t11.5 41q18 18 41.5 19.5t47.5 -18.5z" />
    <glyph glyph-name="quotedbl" unicode="&#x22;" 
d="M101 197q-6 0 -9 -1v-98q2 -1 9 -1q18 0 24.5 12t6.5 38t-6.5 38t-24.5 12zM253 161v-24h-40v-38h47v-24h-76v145h76v-25h-47v-34h40zM99 73q-23 0 -36 2v143q26 4 37 4q33 0 47 -18t14 -57t-14.5 -56.5t-47.5 -17.5zM286 220h39l19 -80l19 80h40q1 -21 3.5 -78.5
t2.5 -66.5h-29q0 53 -3 104l-20 -82h-27l-20 82h-1q-2 -68 -2 -104h-28q2 84 7 145zM482 73q-29 0 -41 17.5t-12 56.5t12 57t41 18t41.5 -18t12.5 -57t-12.5 -56.5t-41.5 -17.5zM482 197q-14 0 -19 -11.5t-5 -38.5q0 -50 24 -50q15 0 20 12t5 38q0 27 -5 38.5t-20 11.5z
M472 496q34 0 48 -20t14 -43q0 -21 -16.5 -35t-35.5 -17q-104 -12 -166 -72q3 8 8.5 20.5t22.5 44.5t34.5 57t42.5 45t48 20zM139 444q26 0 52 -19.5t44 -47t32 -54.5t21 -47l7 -19q-57 72 -156 72q-24 0 -43 15t-19 37q0 26 16.5 44.5t45.5 18.5zM314 593q19 -18 24 -50
t-1.5 -64t-15.5 -62t-17 -49l-9 -18q10 93 -61 161q-17 17 -20.5 40t11.5 41q18 18 41.5 19.5t47.5 -18.5z" />
    <glyph glyph-name="numbersign" unicode="#" 
d="M101 197q-6 0 -9 -1v-98q2 -1 9 -1q18 0 24.5 12t6.5 38t-6.5 38t-24.5 12zM253 161v-24h-40v-38h47v-24h-76v145h76v-25h-47v-34h40zM99 73q-23 0 -36 2v143q26 4 37 4q33 0 47 -18t14 -57t-14.5 -56.5t-47.5 -17.5zM286 220h39l19 -80l19 80h40q1 -21 3.5 -78.5
t2.5 -66.5h-29q0 53 -3 104l-20 -82h-27l-20 82h-1q-2 -68 -2 -104h-28q2 84 7 145zM482 73q-29 0 -41 17.5t-12 56.5t12 57t41 18t41.5 -18t12.5 -57t-12.5 -56.5t-41.5 -17.5zM482 197q-14 0 -19 -11.5t-5 -38.5q0 -50 24 -50q15 0 20 12t5 38q0 27 -5 38.5t-20 11.5z
M472 496q34 0 48 -20t14 -43q0 -21 -16.5 -35t-35.5 -17q-104 -12 -166 -72q3 8 8.5 20.5t22.5 44.5t34.5 57t42.5 45t48 20zM139 444q26 0 52 -19.5t44 -47t32 -54.5t21 -47l7 -19q-57 72 -156 72q-24 0 -43 15t-19 37q0 26 16.5 44.5t45.5 18.5zM314 593q19 -18 24 -50
t-1.5 -64t-15.5 -62t-17 -49l-9 -18q10 93 -61 161q-17 17 -20.5 40t11.5 41q18 18 41.5 19.5t47.5 -18.5z" />
    <glyph glyph-name="dollar" unicode="$" 
d="M101 197q-6 0 -9 -1v-98q2 -1 9 -1q18 0 24.5 12t6.5 38t-6.5 38t-24.5 12zM253 161v-24h-40v-38h47v-24h-76v145h76v-25h-47v-34h40zM99 73q-23 0 -36 2v143q26 4 37 4q33 0 47 -18t14 -57t-14.5 -56.5t-47.5 -17.5zM286 220h39l19 -80l19 80h40q1 -21 3.5 -78.5
t2.5 -66.5h-29q0 53 -3 104l-20 -82h-27l-20 82h-1q-2 -68 -2 -104h-28q2 84 7 145zM482 73q-29 0 -41 17.5t-12 56.5t12 57t41 18t41.5 -18t12.5 -57t-12.5 -56.5t-41.5 -17.5zM482 197q-14 0 -19 -11.5t-5 -38.5q0 -50 24 -50q15 0 20 12t5 38q0 27 -5 38.5t-20 11.5z
M472 496q34 0 48 -20t14 -43q0 -21 -16.5 -35t-35.5 -17q-104 -12 -166 -72q3 8 8.5 20.5t22.5 44.5t34.5 57t42.5 45t48 20zM139 444q26 0 52 -19.5t44 -47t32 -54.5t21 -47l7 -19q-57 72 -156 72q-24 0 -43 15t-19 37q0 26 16.5 44.5t45.5 18.5zM314 593q19 -18 24 -50
t-1.5 -64t-15.5 -62t-17 -49l-9 -18q10 93 -61 161q-17 17 -20.5 40t11.5 41q18 18 41.5 19.5t47.5 -18.5z" />
    <glyph glyph-name="percent" unicode="%" 
d="M101 197q-6 0 -9 -1v-98q2 -1 9 -1q18 0 24.5 12t6.5 38t-6.5 38t-24.5 12zM253 161v-24h-40v-38h47v-24h-76v145h76v-25h-47v-34h40zM99 73q-23 0 -36 2v143q26 4 37 4q33 0 47 -18t14 -57t-14.5 -56.5t-47.5 -17.5zM286 220h39l19 -80l19 80h40q1 -21 3.5 -78.5
t2.5 -66.5h-29q0 53 -3 104l-20 -82h-27l-20 82h-1q-2 -68 -2 -104h-28q2 84 7 145zM482 73q-29 0 -41 17.5t-12 56.5t12 57t41 18t41.5 -18t12.5 -57t-12.5 -56.5t-41.5 -17.5zM482 197q-14 0 -19 -11.5t-5 -38.5q0 -50 24 -50q15 0 20 12t5 38q0 27 -5 38.5t-20 11.5z
M472 496q34 0 48 -20t14 -43q0 -21 -16.5 -35t-35.5 -17q-104 -12 -166 -72q3 8 8.5 20.5t22.5 44.5t34.5 57t42.5 45t48 20zM139 444q26 0 52 -19.5t44 -47t32 -54.5t21 -47l7 -19q-57 72 -156 72q-24 0 -43 15t-19 37q0 26 16.5 44.5t45.5 18.5zM314 593q19 -18 24 -50
t-1.5 -64t-15.5 -62t-17 -49l-9 -18q10 93 -61 161q-17 17 -20.5 40t11.5 41q18 18 41.5 19.5t47.5 -18.5z" />
    <glyph glyph-name="ampersand" unicode="&#x26;" 
d="M101 197q-6 0 -9 -1v-98q2 -1 9 -1q18 0 24.5 12t6.5 38t-6.5 38t-24.5 12zM253 161v-24h-40v-38h47v-24h-76v145h76v-25h-47v-34h40zM99 73q-23 0 -36 2v143q26 4 37 4q33 0 47 -18t14 -57t-14.5 -56.5t-47.5 -17.5zM286 220h39l19 -80l19 80h40q1 -21 3.5 -78.5
t2.5 -66.5h-29q0 53 -3 104l-20 -82h-27l-20 82h-1q-2 -68 -2 -104h-28q2 84 7 145zM482 73q-29 0 -41 17.5t-12 56.5t12 57t41 18t41.5 -18t12.5 -57t-12.5 -56.5t-41.5 -17.5zM482 197q-14 0 -19 -11.5t-5 -38.5q0 -50 24 -50q15 0 20 12t5 38q0 27 -5 38.5t-20 11.5z
M472 496q34 0 48 -20t14 -43q0 -21 -16.5 -35t-35.5 -17q-104 -12 -166 -72q3 8 8.5 20.5t22.5 44.5t34.5 57t42.5 45t48 20zM139 444q26 0 52 -19.5t44 -47t32 -54.5t21 -47l7 -19q-57 72 -156 72q-24 0 -43 15t-19 37q0 26 16.5 44.5t45.5 18.5zM314 593q19 -18 24 -50
t-1.5 -64t-15.5 -62t-17 -49l-9 -18q10 93 -61 161q-17 17 -20.5 40t11.5 41q18 18 41.5 19.5t47.5 -18.5z" />
    <glyph glyph-name="quotesingle" unicode="'" 
d="M101 197q-6 0 -9 -1v-98q2 -1 9 -1q18 0 24.5 12t6.5 38t-6.5 38t-24.5 12zM253 161v-24h-40v-38h47v-24h-76v145h76v-25h-47v-34h40zM99 73q-23 0 -36 2v143q26 4 37 4q33 0 47 -18t14 -57t-14.5 -56.5t-47.5 -17.5zM286 220h39l19 -80l19 80h40q1 -21 3.5 -78.5
t2.5 -66.5h-29q0 53 -3 104l-20 -82h-27l-20 82h-1q-2 -68 -2 -104h-28q2 84 7 145zM482 73q-29 0 -41 17.5t-12 56.5t12 57t41 18t41.5 -18t12.5 -57t-12.5 -56.5t-41.5 -17.5zM482 197q-14 0 -19 -11.5t-5 -38.5q0 -50 24 -50q15 0 20 12t5 38q0 27 -5 38.5t-20 11.5z
M472 496q34 0 48 -20t14 -43q0 -21 -16.5 -35t-35.5 -17q-104 -12 -166 -72q3 8 8.5 20.5t22.5 44.5t34.5 57t42.5 45t48 20zM139 444q26 0 52 -19.5t44 -47t32 -54.5t21 -47l7 -19q-57 72 -156 72q-24 0 -43 15t-19 37q0 26 16.5 44.5t45.5 18.5zM314 593q19 -18 24 -50
t-1.5 -64t-15.5 -62t-17 -49l-9 -18q10 93 -61 161q-17 17 -20.5 40t11.5 41q18 18 41.5 19.5t47.5 -18.5z" />
    <glyph glyph-name="parenleft" unicode="(" 
d="M101 197q-6 0 -9 -1v-98q2 -1 9 -1q18 0 24.5 12t6.5 38t-6.5 38t-24.5 12zM253 161v-24h-40v-38h47v-24h-76v145h76v-25h-47v-34h40zM99 73q-23 0 -36 2v143q26 4 37 4q33 0 47 -18t14 -57t-14.5 -56.5t-47.5 -17.5zM286 220h39l19 -80l19 80h40q1 -21 3.5 -78.5
t2.5 -66.5h-29q0 53 -3 104l-20 -82h-27l-20 82h-1q-2 -68 -2 -104h-28q2 84 7 145zM482 73q-29 0 -41 17.5t-12 56.5t12 57t41 18t41.5 -18t12.5 -57t-12.5 -56.5t-41.5 -17.5zM482 197q-14 0 -19 -11.5t-5 -38.5q0 -50 24 -50q15 0 20 12t5 38q0 27 -5 38.5t-20 11.5z
M472 496q34 0 48 -20t14 -43q0 -21 -16.5 -35t-35.5 -17q-104 -12 -166 -72q3 8 8.5 20.5t22.5 44.5t34.5 57t42.5 45t48 20zM139 444q26 0 52 -19.5t44 -47t32 -54.5t21 -47l7 -19q-57 72 -156 72q-24 0 -43 15t-19 37q0 26 16.5 44.5t45.5 18.5zM314 593q19 -18 24 -50
t-1.5 -64t-15.5 -62t-17 -49l-9 -18q10 93 -61 161q-17 17 -20.5 40t11.5 41q18 18 41.5 19.5t47.5 -18.5z" />
    <glyph glyph-name="parenright" unicode=")" 
d="M101 197q-6 0 -9 -1v-98q2 -1 9 -1q18 0 24.5 12t6.5 38t-6.5 38t-24.5 12zM253 161v-24h-40v-38h47v-24h-76v145h76v-25h-47v-34h40zM99 73q-23 0 -36 2v143q26 4 37 4q33 0 47 -18t14 -57t-14.5 -56.5t-47.5 -17.5zM286 220h39l19 -80l19 80h40q1 -21 3.5 -78.5
t2.5 -66.5h-29q0 53 -3 104l-20 -82h-27l-20 82h-1q-2 -68 -2 -104h-28q2 84 7 145zM482 73q-29 0 -41 17.5t-12 56.5t12 57t41 18t41.5 -18t12.5 -57t-12.5 -56.5t-41.5 -17.5zM482 197q-14 0 -19 -11.5t-5 -38.5q0 -50 24 -50q15 0 20 12t5 38q0 27 -5 38.5t-20 11.5z
M472 496q34 0 48 -20t14 -43q0 -21 -16.5 -35t-35.5 -17q-104 -12 -166 -72q3 8 8.5 20.5t22.5 44.5t34.5 57t42.5 45t48 20zM139 444q26 0 52 -19.5t44 -47t32 -54.5t21 -47l7 -19q-57 72 -156 72q-24 0 -43 15t-19 37q0 26 16.5 44.5t45.5 18.5zM314 593q19 -18 24 -50
t-1.5 -64t-15.5 -62t-17 -49l-9 -18q10 93 -61 161q-17 17 -20.5 40t11.5 41q18 18 41.5 19.5t47.5 -18.5z" />
    <glyph glyph-name="asterisk" unicode="*" 
d="M101 197q-6 0 -9 -1v-98q2 -1 9 -1q18 0 24.5 12t6.5 38t-6.5 38t-24.5 12zM253 161v-24h-40v-38h47v-24h-76v145h76v-25h-47v-34h40zM99 73q-23 0 -36 2v143q26 4 37 4q33 0 47 -18t14 -57t-14.5 -56.5t-47.5 -17.5zM286 220h39l19 -80l19 80h40q1 -21 3.5 -78.5
t2.5 -66.5h-29q0 53 -3 104l-20 -82h-27l-20 82h-1q-2 -68 -2 -104h-28q2 84 7 145zM482 73q-29 0 -41 17.5t-12 56.5t12 57t41 18t41.5 -18t12.5 -57t-12.5 -56.5t-41.5 -17.5zM482 197q-14 0 -19 -11.5t-5 -38.5q0 -50 24 -50q15 0 20 12t5 38q0 27 -5 38.5t-20 11.5z
M472 496q34 0 48 -20t14 -43q0 -21 -16.5 -35t-35.5 -17q-104 -12 -166 -72q3 8 8.5 20.5t22.5 44.5t34.5 57t42.5 45t48 20zM139 444q26 0 52 -19.5t44 -47t32 -54.5t21 -47l7 -19q-57 72 -156 72q-24 0 -43 15t-19 37q0 26 16.5 44.5t45.5 18.5zM314 593q19 -18 24 -50
t-1.5 -64t-15.5 -62t-17 -49l-9 -18q10 93 -61 161q-17 17 -20.5 40t11.5 41q18 18 41.5 19.5t47.5 -18.5z" />
    <glyph glyph-name="plus" unicode="+" 
d="M101 197q-6 0 -9 -1v-98q2 -1 9 -1q18 0 24.5 12t6.5 38t-6.5 38t-24.5 12zM253 161v-24h-40v-38h47v-24h-76v145h76v-25h-47v-34h40zM99 73q-23 0 -36 2v143q26 4 37 4q33 0 47 -18t14 -57t-14.5 -56.5t-47.5 -17.5zM286 220h39l19 -80l19 80h40q1 -21 3.5 -78.5
t2.5 -66.5h-29q0 53 -3 104l-20 -82h-27l-20 82h-1q-2 -68 -2 -104h-28q2 84 7 145zM482 73q-29 0 -41 17.5t-12 56.5t12 57t41 18t41.5 -18t12.5 -57t-12.5 -56.5t-41.5 -17.5zM482 197q-14 0 -19 -11.5t-5 -38.5q0 -50 24 -50q15 0 20 12t5 38q0 27 -5 38.5t-20 11.5z
M472 496q34 0 48 -20t14 -43q0 -21 -16.5 -35t-35.5 -17q-104 -12 -166 -72q3 8 8.5 20.5t22.5 44.5t34.5 57t42.5 45t48 20zM139 444q26 0 52 -19.5t44 -47t32 -54.5t21 -47l7 -19q-57 72 -156 72q-24 0 -43 15t-19 37q0 26 16.5 44.5t45.5 18.5zM314 593q19 -18 24 -50
t-1.5 -64t-15.5 -62t-17 -49l-9 -18q10 93 -61 161q-17 17 -20.5 40t11.5 41q18 18 41.5 19.5t47.5 -18.5z" />
    <glyph glyph-name="comma" unicode="," horiz-adv-x="207" 
d="M31 -115v42q24 5 34.5 20.5t11.5 50.5v2h-32v110h76v-79q0 -73 -21 -105.5t-69 -40.5z" />
    <glyph glyph-name="hyphen" unicode="-" 
d="M101 197q-6 0 -9 -1v-98q2 -1 9 -1q18 0 24.5 12t6.5 38t-6.5 38t-24.5 12zM253 161v-24h-40v-38h47v-24h-76v145h76v-25h-47v-34h40zM99 73q-23 0 -36 2v143q26 4 37 4q33 0 47 -18t14 -57t-14.5 -56.5t-47.5 -17.5zM286 220h39l19 -80l19 80h40q1 -21 3.5 -78.5
t2.5 -66.5h-29q0 53 -3 104l-20 -82h-27l-20 82h-1q-2 -68 -2 -104h-28q2 84 7 145zM482 73q-29 0 -41 17.5t-12 56.5t12 57t41 18t41.5 -18t12.5 -57t-12.5 -56.5t-41.5 -17.5zM482 197q-14 0 -19 -11.5t-5 -38.5q0 -50 24 -50q15 0 20 12t5 38q0 27 -5 38.5t-20 11.5z
M472 496q34 0 48 -20t14 -43q0 -21 -16.5 -35t-35.5 -17q-104 -12 -166 -72q3 8 8.5 20.5t22.5 44.5t34.5 57t42.5 45t48 20zM139 444q26 0 52 -19.5t44 -47t32 -54.5t21 -47l7 -19q-57 72 -156 72q-24 0 -43 15t-19 37q0 26 16.5 44.5t45.5 18.5zM314 593q19 -18 24 -50
t-1.5 -64t-15.5 -62t-17 -49l-9 -18q10 93 -61 161q-17 17 -20.5 40t11.5 41q18 18 41.5 19.5t47.5 -18.5z" />
    <glyph glyph-name="period" unicode="." horiz-adv-x="207" 
d="M65 0v110h76v-110h-76z" />
    <glyph glyph-name="slash" unicode="/" 
d="M101 197q-6 0 -9 -1v-98q2 -1 9 -1q18 0 24.5 12t6.5 38t-6.5 38t-24.5 12zM253 161v-24h-40v-38h47v-24h-76v145h76v-25h-47v-34h40zM99 73q-23 0 -36 2v143q26 4 37 4q33 0 47 -18t14 -57t-14.5 -56.5t-47.5 -17.5zM286 220h39l19 -80l19 80h40q1 -21 3.5 -78.5
t2.5 -66.5h-29q0 53 -3 104l-20 -82h-27l-20 82h-1q-2 -68 -2 -104h-28q2 84 7 145zM482 73q-29 0 -41 17.5t-12 56.5t12 57t41 18t41.5 -18t12.5 -57t-12.5 -56.5t-41.5 -17.5zM482 197q-14 0 -19 -11.5t-5 -38.5q0 -50 24 -50q15 0 20 12t5 38q0 27 -5 38.5t-20 11.5z
M472 496q34 0 48 -20t14 -43q0 -21 -16.5 -35t-35.5 -17q-104 -12 -166 -72q3 8 8.5 20.5t22.5 44.5t34.5 57t42.5 45t48 20zM139 444q26 0 52 -19.5t44 -47t32 -54.5t21 -47l7 -19q-57 72 -156 72q-24 0 -43 15t-19 37q0 26 16.5 44.5t45.5 18.5zM314 593q19 -18 24 -50
t-1.5 -64t-15.5 -62t-17 -49l-9 -18q10 93 -61 161q-17 17 -20.5 40t11.5 41q18 18 41.5 19.5t47.5 -18.5z" />
    <glyph glyph-name="zero" unicode="0" horiz-adv-x="392" 
d="M196 -8q-83 0 -122.5 82.5t-39.5 257.5q0 172 39.5 253t122.5 81t122.5 -81t39.5 -253q0 -175 -39.5 -257.5t-122.5 -82.5zM196 63q45 0 66.5 64t21.5 205q0 138 -21.5 200.5t-66.5 62.5t-66.5 -62.5t-21.5 -200.5q0 -141 21.5 -205t66.5 -64z" />
    <glyph glyph-name="one" unicode="1" horiz-adv-x="392" 
d="M28 0v72h143v358h-106v58l65 1q17 0 25 3t15.5 11t9.5 29.5t3.5 50.5t1.5 82h61v-593h118v-72h-336z" />
    <glyph glyph-name="two" unicode="2" horiz-adv-x="392" 
d="M44 0q0 104 19 149t91 104q77 67 97 103t20 112q0 128 -76 128q-43 0 -62.5 -39t-19.5 -122q0 -46 4 -76h-67q-5 38 -5 78q0 118 36.5 173.5t116.5 55.5q76 0 112 -48.5t36 -151.5q0 -80 -28 -131.5t-108 -120.5q-61 -53 -75 -75.5t-14 -66.5h230v-72h-307z" />
    <glyph glyph-name="three" unicode="3" horiz-adv-x="392" 
d="M192 -8q-156 0 -156 186q0 24 2 50h68q-1 -19 -1 -37q0 -128 86 -128q91 0 91 142q0 99 -79 99h-50v58h42q72 0 72 111q0 122 -73 122q-81 0 -81 -127q0 -24 2 -46h-68q-3 27 -3 58q0 186 151 186q145 0 145 -179q0 -127 -74 -143v-2q91 -18 91 -144q0 -101 -42 -153.5
t-123 -52.5z" />
    <glyph glyph-name="four" unicode="4" 
d="M101 197q-6 0 -9 -1v-98q2 -1 9 -1q18 0 24.5 12t6.5 38t-6.5 38t-24.5 12zM253 161v-24h-40v-38h47v-24h-76v145h76v-25h-47v-34h40zM99 73q-23 0 -36 2v143q26 4 37 4q33 0 47 -18t14 -57t-14.5 -56.5t-47.5 -17.5zM286 220h39l19 -80l19 80h40q1 -21 3.5 -78.5
t2.5 -66.5h-29q0 53 -3 104l-20 -82h-27l-20 82h-1q-2 -68 -2 -104h-28q2 84 7 145zM482 73q-29 0 -41 17.5t-12 56.5t12 57t41 18t41.5 -18t12.5 -57t-12.5 -56.5t-41.5 -17.5zM482 197q-14 0 -19 -11.5t-5 -38.5q0 -50 24 -50q15 0 20 12t5 38q0 27 -5 38.5t-20 11.5z
M472 496q34 0 48 -20t14 -43q0 -21 -16.5 -35t-35.5 -17q-104 -12 -166 -72q3 8 8.5 20.5t22.5 44.5t34.5 57t42.5 45t48 20zM139 444q26 0 52 -19.5t44 -47t32 -54.5t21 -47l7 -19q-57 72 -156 72q-24 0 -43 15t-19 37q0 26 16.5 44.5t45.5 18.5zM314 593q19 -18 24 -50
t-1.5 -64t-15.5 -62t-17 -49l-9 -18q10 93 -61 161q-17 17 -20.5 40t11.5 41q18 18 41.5 19.5t47.5 -18.5z" />
    <glyph glyph-name="five" unicode="5" horiz-adv-x="392" 
d="M196 -8q-74 0 -114 44t-40 123q0 19 2 37h68q-2 -16 -2 -32q0 -46 22.5 -73.5t62.5 -27.5q41 0 63 41t22 118q0 147 -81 147q-62 0 -85 -95l-67 6l19 378h263v-71h-200l-16 -237h2q21 78 107 78q133 0 133 -206q0 -113 -41 -171.5t-118 -58.5z" />
    <glyph glyph-name="six" unicode="6" horiz-adv-x="392" 
d="M203 -8q-85 0 -126.5 78t-41.5 254q0 179 42.5 260.5t128.5 81.5q139 0 139 -192q0 -23 -2 -45h-68q1 15 1 44q0 122 -71 122q-48 0 -71.5 -59t-23.5 -193q0 -10 -0.5 -29.5t-0.5 -21.5h2q15 86 115 86q65 0 98.5 -45.5t33.5 -129.5q0 -211 -155 -211zM206 59
q80 0 80 143q0 54 -20.5 84t-58.5 30q-92 0 -92 -120q9 -137 91 -137z" />
    <glyph glyph-name="seven" unicode="7" horiz-adv-x="392" 
d="M87 0q53 334 208 585v1h-272v72h350v-68q-84 -133 -128.5 -267t-73.5 -323h-84z" />
    <glyph glyph-name="eight" unicode="8" horiz-adv-x="392" 
d="M196 -8q-80 0 -121.5 49.5t-41.5 144.5q0 61 22 103.5t63 52.5v1q-34 9 -52 48.5t-18 94.5q0 180 148 180q147 0 147 -180q0 -54 -18 -93.5t-51 -49.5v-1q41 -10 63 -52.5t22 -103.5q0 -95 -41.5 -144.5t-121.5 -49.5zM196 367q37 0 57 31.5t20 82.5q0 118 -77 118
t-77 -118q0 -51 20 -82.5t57 -31.5zM196 59q88 0 88 129q0 54 -23 87.5t-65 33.5t-65 -33.5t-23 -87.5q0 -129 88 -129z" />
    <glyph glyph-name="nine" unicode="9" horiz-adv-x="392" 
d="M195 -8q-74 0 -112.5 46t-38.5 132q0 25 1 41h69q-1 -16 -1 -36q0 -54 20.5 -84t59.5 -30q46 0 68 58.5t22 193.5v46h-2q-14 -96 -110 -96q-136 0 -136 185q0 218 158 218q85 0 125 -73.5t40 -256.5q0 -182 -40.5 -263t-122.5 -81zM184 325q93 0 93 144q-8 129 -86 129
q-84 0 -84 -151q0 -122 77 -122z" />
    <glyph glyph-name="colon" unicode=":" horiz-adv-x="207" 
d="M65 350v109h76v-109h-76zM65 0v110h76v-110h-76z" />
    <glyph glyph-name="semicolon" unicode=";" horiz-adv-x="207" 
d="M65 350v109h76v-109h-76zM50 -115v42q24 4 35 20t12 51v2h-32v110h76v-79q0 -73 -21.5 -105.5t-69.5 -40.5z" />
    <glyph glyph-name="less" unicode="&#x3c;" 
d="M101 197q-6 0 -9 -1v-98q2 -1 9 -1q18 0 24.5 12t6.5 38t-6.5 38t-24.5 12zM253 161v-24h-40v-38h47v-24h-76v145h76v-25h-47v-34h40zM99 73q-23 0 -36 2v143q26 4 37 4q33 0 47 -18t14 -57t-14.5 -56.5t-47.5 -17.5zM286 220h39l19 -80l19 80h40q1 -21 3.5 -78.5
t2.5 -66.5h-29q0 53 -3 104l-20 -82h-27l-20 82h-1q-2 -68 -2 -104h-28q2 84 7 145zM482 73q-29 0 -41 17.5t-12 56.5t12 57t41 18t41.5 -18t12.5 -57t-12.5 -56.5t-41.5 -17.5zM482 197q-14 0 -19 -11.5t-5 -38.5q0 -50 24 -50q15 0 20 12t5 38q0 27 -5 38.5t-20 11.5z
M472 496q34 0 48 -20t14 -43q0 -21 -16.5 -35t-35.5 -17q-104 -12 -166 -72q3 8 8.5 20.5t22.5 44.5t34.5 57t42.5 45t48 20zM139 444q26 0 52 -19.5t44 -47t32 -54.5t21 -47l7 -19q-57 72 -156 72q-24 0 -43 15t-19 37q0 26 16.5 44.5t45.5 18.5zM314 593q19 -18 24 -50
t-1.5 -64t-15.5 -62t-17 -49l-9 -18q10 93 -61 161q-17 17 -20.5 40t11.5 41q18 18 41.5 19.5t47.5 -18.5z" />
    <glyph glyph-name="equal" unicode="=" 
d="M101 197q-6 0 -9 -1v-98q2 -1 9 -1q18 0 24.5 12t6.5 38t-6.5 38t-24.5 12zM253 161v-24h-40v-38h47v-24h-76v145h76v-25h-47v-34h40zM99 73q-23 0 -36 2v143q26 4 37 4q33 0 47 -18t14 -57t-14.5 -56.5t-47.5 -17.5zM286 220h39l19 -80l19 80h40q1 -21 3.5 -78.5
t2.5 -66.5h-29q0 53 -3 104l-20 -82h-27l-20 82h-1q-2 -68 -2 -104h-28q2 84 7 145zM482 73q-29 0 -41 17.5t-12 56.5t12 57t41 18t41.5 -18t12.5 -57t-12.5 -56.5t-41.5 -17.5zM482 197q-14 0 -19 -11.5t-5 -38.5q0 -50 24 -50q15 0 20 12t5 38q0 27 -5 38.5t-20 11.5z
M472 496q34 0 48 -20t14 -43q0 -21 -16.5 -35t-35.5 -17q-104 -12 -166 -72q3 8 8.5 20.5t22.5 44.5t34.5 57t42.5 45t48 20zM139 444q26 0 52 -19.5t44 -47t32 -54.5t21 -47l7 -19q-57 72 -156 72q-24 0 -43 15t-19 37q0 26 16.5 44.5t45.5 18.5zM314 593q19 -18 24 -50
t-1.5 -64t-15.5 -62t-17 -49l-9 -18q10 93 -61 161q-17 17 -20.5 40t11.5 41q18 18 41.5 19.5t47.5 -18.5z" />
    <glyph glyph-name="greater" unicode="&#x3e;" 
d="M101 197q-6 0 -9 -1v-98q2 -1 9 -1q18 0 24.5 12t6.5 38t-6.5 38t-24.5 12zM253 161v-24h-40v-38h47v-24h-76v145h76v-25h-47v-34h40zM99 73q-23 0 -36 2v143q26 4 37 4q33 0 47 -18t14 -57t-14.5 -56.5t-47.5 -17.5zM286 220h39l19 -80l19 80h40q1 -21 3.5 -78.5
t2.5 -66.5h-29q0 53 -3 104l-20 -82h-27l-20 82h-1q-2 -68 -2 -104h-28q2 84 7 145zM482 73q-29 0 -41 17.5t-12 56.5t12 57t41 18t41.5 -18t12.5 -57t-12.5 -56.5t-41.5 -17.5zM482 197q-14 0 -19 -11.5t-5 -38.5q0 -50 24 -50q15 0 20 12t5 38q0 27 -5 38.5t-20 11.5z
M472 496q34 0 48 -20t14 -43q0 -21 -16.5 -35t-35.5 -17q-104 -12 -166 -72q3 8 8.5 20.5t22.5 44.5t34.5 57t42.5 45t48 20zM139 444q26 0 52 -19.5t44 -47t32 -54.5t21 -47l7 -19q-57 72 -156 72q-24 0 -43 15t-19 37q0 26 16.5 44.5t45.5 18.5zM314 593q19 -18 24 -50
t-1.5 -64t-15.5 -62t-17 -49l-9 -18q10 93 -61 161q-17 17 -20.5 40t11.5 41q18 18 41.5 19.5t47.5 -18.5z" />
    <glyph glyph-name="question" unicode="?" horiz-adv-x="337" 
d="M71 172v173h53q16 -73 55 -73q31 0 45.5 36.5t14.5 124.5q0 99 -15 138.5t-48 39.5q-31 0 -46 -30t-15 -106q0 -24 1 -38h-65q-2 24 -2 46q0 103 32 145.5t95 42.5q66 0 97 -53.5t31 -182.5q0 -222 -107 -222q-56 0 -74 55h-1l1 -96h-52zM60 0v110h77v-110h-77z" />
    <glyph glyph-name="at" unicode="@" 
d="M101 197q-6 0 -9 -1v-98q2 -1 9 -1q18 0 24.5 12t6.5 38t-6.5 38t-24.5 12zM253 161v-24h-40v-38h47v-24h-76v145h76v-25h-47v-34h40zM99 73q-23 0 -36 2v143q26 4 37 4q33 0 47 -18t14 -57t-14.5 -56.5t-47.5 -17.5zM286 220h39l19 -80l19 80h40q1 -21 3.5 -78.5
t2.5 -66.5h-29q0 53 -3 104l-20 -82h-27l-20 82h-1q-2 -68 -2 -104h-28q2 84 7 145zM482 73q-29 0 -41 17.5t-12 56.5t12 57t41 18t41.5 -18t12.5 -57t-12.5 -56.5t-41.5 -17.5zM482 197q-14 0 -19 -11.5t-5 -38.5q0 -50 24 -50q15 0 20 12t5 38q0 27 -5 38.5t-20 11.5z
M472 496q34 0 48 -20t14 -43q0 -21 -16.5 -35t-35.5 -17q-104 -12 -166 -72q3 8 8.5 20.5t22.5 44.5t34.5 57t42.5 45t48 20zM139 444q26 0 52 -19.5t44 -47t32 -54.5t21 -47l7 -19q-57 72 -156 72q-24 0 -43 15t-19 37q0 26 16.5 44.5t45.5 18.5zM314 593q19 -18 24 -50
t-1.5 -64t-15.5 -62t-17 -49l-9 -18q10 93 -61 161q-17 17 -20.5 40t11.5 41q18 18 41.5 19.5t47.5 -18.5z" />
    <glyph glyph-name="A" unicode="A" horiz-adv-x="439" 
d="M329 0l-30 158h-167l-31 -158h-82l148 658h104l149 -658h-91zM143 216h145l-71 370h-2z" />
    <glyph glyph-name="B" unicode="B" horiz-adv-x="404" 
d="M42 0v658h149q85 0 125 -41t40 -128q0 -126 -87 -144v-1q103 -17 103 -156q0 -97 -41 -142.5t-128 -45.5h-161zM120 366h73q48 0 69.5 25t21.5 84q0 60 -23 88t-71 28h-70v-225zM120 67h81q49 0 72 32t23 99q0 57 -24 84.5t-76 27.5h-76v-243z" />
    <glyph glyph-name="C" unicode="C" horiz-adv-x="410" 
d="M217 -8q-95 0 -139.5 81.5t-44.5 255.5q0 173 44.5 255t138.5 82q160 0 160 -228q0 -35 -2 -69h-71q1 24 1 65q0 160 -87 160q-55 0 -80.5 -64t-25.5 -201t25.5 -201t80.5 -64q89 0 89 154q0 23 -1 43h71q2 -22 2 -45q0 -224 -161 -224z" />
    <glyph glyph-name="D" unicode="D" horiz-adv-x="412" 
d="M42 0v658h136q108 0 155 -76t47 -251q0 -177 -44.5 -254t-147.5 -77h-146zM120 72h70q59 0 85 60t26 199q0 137 -28 196t-92 59h-61v-514z" />
    <glyph glyph-name="E" unicode="E" horiz-adv-x="331" 
d="M42 0v658h267v-72h-189v-226h154v-58h-154v-230h196v-72h-274z" />
    <glyph glyph-name="F" unicode="F" horiz-adv-x="318" 
d="M42 0v658h263v-72h-185v-242h157v-60h-157v-284h-78z" />
    <glyph glyph-name="G" unicode="G" horiz-adv-x="415" 
d="M203 -8q-88 0 -129 80t-41 250q0 177 44.5 260.5t139.5 83.5q83 0 121.5 -53.5t38.5 -167.5q0 -41 -2 -69h-70q0 1 0.5 11t0.5 25v29q0 79 -21.5 116t-67.5 37q-55 0 -80.5 -66.5t-25.5 -206.5q0 -132 25.5 -194.5t78.5 -62.5q91 0 91 160v33h-100v58h174v-315h-68
q3 31 5 97h-1q-19 -105 -113 -105z" />
    <glyph glyph-name="H" unicode="H" horiz-adv-x="440" 
d="M42 0v658h78v-284h200v284h78v-658h-78v310h-200v-310h-78z" />
    <glyph glyph-name="I" unicode="I" horiz-adv-x="170" 
d="M46 0v658h78v-658h-78z" />
    <glyph glyph-name="J" unicode="J" horiz-adv-x="377" 
d="M187 -8q-154 0 -154 228q0 27 3 108h71q-2 -58 -2 -110q0 -82 19.5 -118t61.5 -36q25 0 40 14t24 56t9 116v408h78v-397q0 -146 -38 -207.5t-112 -61.5z" />
    <glyph glyph-name="K" unicode="K" horiz-adv-x="439" 
d="M42 0v658h78v-371h1l209 371h86l-171 -299l181 -359h-89l-143 293l-74 -121v-172h-78z" />
    <glyph glyph-name="L" unicode="L" horiz-adv-x="300" 
d="M42 0v658h78v-586h166v-72h-244z" />
    <glyph glyph-name="M" unicode="M" horiz-adv-x="547" 
d="M42 0v658h125l106 -505h2l108 505h122v-658h-78l6 592h-3l-131 -592h-59l-131 592h-2l7 -592h-72z" />
    <glyph glyph-name="N" unicode="N" horiz-adv-x="459" 
d="M42 0v658h119l190 -532h2l-10 532h74v-658h-94l-213 587h-2l8 -587h-74z" />
    <glyph glyph-name="O" unicode="O" horiz-adv-x="433" 
d="M217 -8q-95 0 -139.5 82.5t-44.5 257.5q0 172 44.5 253t139.5 81t139.5 -81t44.5 -253q0 -175 -44.5 -257.5t-139.5 -82.5zM217 64q54 0 79.5 65t25.5 203q0 135 -25.5 198.5t-79.5 63.5q-55 0 -80.5 -63.5t-25.5 -198.5q0 -138 25.5 -203t80.5 -65z" />
    <glyph glyph-name="P" unicode="P" horiz-adv-x="386" 
d="M42 0v658h135q95 0 136.5 -51.5t41.5 -175.5q0 -119 -43 -171.5t-131 -52.5h-60v-207h-79zM121 269h57q53 0 78 34.5t25 120.5q0 93 -22.5 127.5t-78.5 34.5h-59v-317z" />
    <glyph glyph-name="Q" unicode="Q" horiz-adv-x="439" 
d="M216 -8q-94 0 -138.5 82.5t-44.5 257.5q0 172 44.5 253t139.5 81t139.5 -79t44.5 -245q0 -246 -86 -285v-1q49 2 91 6v-70h-190zM217 64q54 0 79.5 65t25.5 203q0 135 -25.5 198.5t-79.5 63.5q-55 0 -80.5 -63.5t-25.5 -198.5q0 -138 25.5 -203t80.5 -65z" />
    <glyph glyph-name="R" unicode="R" horiz-adv-x="409" 
d="M42 0v658h147q92 0 135 -45t43 -140q0 -72 -21.5 -111.5t-70.5 -49.5v-1q90 -15 90 -121v-190h-79v189q0 44 -22 65.5t-72 21.5h-72v-276h-78zM120 334h63q58 0 82 28.5t24 97.5q0 64 -24 95t-76 31h-69v-252z" />
    <glyph glyph-name="S" unicode="S" horiz-adv-x="401" 
d="M198 -8q-91 0 -128.5 59t-37.5 177h72q0 -92 21.5 -130t72.5 -38q94 0 94 105q0 55 -34 83q-21 16 -84 46q-64 30 -92 56q-51 45 -51 138q0 85 44.5 131.5t121.5 46.5q91 0 125 -54.5t34 -192.5h-72q0 104 -19.5 141.5t-64.5 37.5q-42 0 -66.5 -26.5t-24.5 -77.5
q0 -65 32 -95q21 -19 87 -49q68 -32 92 -55q50 -46 50 -125q0 -83 -44.5 -130.5t-127.5 -47.5z" />
    <glyph glyph-name="T" unicode="T" horiz-adv-x="359" 
d="M140 0v586h-127v72h333v-72h-127v-586h-79z" />
    <glyph glyph-name="U" unicode="U" horiz-adv-x="429" 
d="M215 -8q-80 0 -127.5 50.5t-47.5 150.5v465h78v-470q0 -62 27.5 -92.5t74.5 -30.5q45 0 71.5 30.5t26.5 92.5v470h71v-465q0 -101 -46.5 -151t-127.5 -50z" />
    <glyph glyph-name="V" unicode="V" horiz-adv-x="440" 
d="M168 0l-150 658h88l117 -574h4l113 574h82l-151 -658h-103z" />
    <glyph glyph-name="W" unicode="W" horiz-adv-x="636" 
d="M139 0l-121 658h86l82 -542h4l87 539h87l88 -539h4l83 542h79l-122 -658h-93l-83 525h-4l-86 -525h-91z" />
    <glyph glyph-name="X" unicode="X" horiz-adv-x="418" 
d="M18 0l142 335l-137 323h95l98 -258l97 258h83l-138 -321l142 -337h-94l-101 267l-103 -267h-84z" />
    <glyph glyph-name="Y" unicode="Y" horiz-adv-x="418" 
d="M169 0v246l-151 412h92l104 -325h2l103 325h81l-153 -412v-246h-78z" />
    <glyph glyph-name="Z" unicode="Z" horiz-adv-x="350" 
d="M23 0v53l217 532v1h-209v72h297v-55l-216 -530v-1h214v-72h-303z" />
    <glyph glyph-name="bracketleft" unicode="[" 
d="M101 197q-6 0 -9 -1v-98q2 -1 9 -1q18 0 24.5 12t6.5 38t-6.5 38t-24.5 12zM253 161v-24h-40v-38h47v-24h-76v145h76v-25h-47v-34h40zM99 73q-23 0 -36 2v143q26 4 37 4q33 0 47 -18t14 -57t-14.5 -56.5t-47.5 -17.5zM286 220h39l19 -80l19 80h40q1 -21 3.5 -78.5
t2.5 -66.5h-29q0 53 -3 104l-20 -82h-27l-20 82h-1q-2 -68 -2 -104h-28q2 84 7 145zM482 73q-29 0 -41 17.5t-12 56.5t12 57t41 18t41.5 -18t12.5 -57t-12.5 -56.5t-41.5 -17.5zM482 197q-14 0 -19 -11.5t-5 -38.5q0 -50 24 -50q15 0 20 12t5 38q0 27 -5 38.5t-20 11.5z
M472 496q34 0 48 -20t14 -43q0 -21 -16.5 -35t-35.5 -17q-104 -12 -166 -72q3 8 8.5 20.5t22.5 44.5t34.5 57t42.5 45t48 20zM139 444q26 0 52 -19.5t44 -47t32 -54.5t21 -47l7 -19q-57 72 -156 72q-24 0 -43 15t-19 37q0 26 16.5 44.5t45.5 18.5zM314 593q19 -18 24 -50
t-1.5 -64t-15.5 -62t-17 -49l-9 -18q10 93 -61 161q-17 17 -20.5 40t11.5 41q18 18 41.5 19.5t47.5 -18.5z" />
    <glyph glyph-name="backslash" unicode="\" 
d="M101 197q-6 0 -9 -1v-98q2 -1 9 -1q18 0 24.5 12t6.5 38t-6.5 38t-24.5 12zM253 161v-24h-40v-38h47v-24h-76v145h76v-25h-47v-34h40zM99 73q-23 0 -36 2v143q26 4 37 4q33 0 47 -18t14 -57t-14.5 -56.5t-47.5 -17.5zM286 220h39l19 -80l19 80h40q1 -21 3.5 -78.5
t2.5 -66.5h-29q0 53 -3 104l-20 -82h-27l-20 82h-1q-2 -68 -2 -104h-28q2 84 7 145zM482 73q-29 0 -41 17.5t-12 56.5t12 57t41 18t41.5 -18t12.5 -57t-12.5 -56.5t-41.5 -17.5zM482 197q-14 0 -19 -11.5t-5 -38.5q0 -50 24 -50q15 0 20 12t5 38q0 27 -5 38.5t-20 11.5z
M472 496q34 0 48 -20t14 -43q0 -21 -16.5 -35t-35.5 -17q-104 -12 -166 -72q3 8 8.5 20.5t22.5 44.5t34.5 57t42.5 45t48 20zM139 444q26 0 52 -19.5t44 -47t32 -54.5t21 -47l7 -19q-57 72 -156 72q-24 0 -43 15t-19 37q0 26 16.5 44.5t45.5 18.5zM314 593q19 -18 24 -50
t-1.5 -64t-15.5 -62t-17 -49l-9 -18q10 93 -61 161q-17 17 -20.5 40t11.5 41q18 18 41.5 19.5t47.5 -18.5z" />
    <glyph glyph-name="bracketright" unicode="]" 
d="M101 197q-6 0 -9 -1v-98q2 -1 9 -1q18 0 24.5 12t6.5 38t-6.5 38t-24.5 12zM253 161v-24h-40v-38h47v-24h-76v145h76v-25h-47v-34h40zM99 73q-23 0 -36 2v143q26 4 37 4q33 0 47 -18t14 -57t-14.5 -56.5t-47.5 -17.5zM286 220h39l19 -80l19 80h40q1 -21 3.5 -78.5
t2.5 -66.5h-29q0 53 -3 104l-20 -82h-27l-20 82h-1q-2 -68 -2 -104h-28q2 84 7 145zM482 73q-29 0 -41 17.5t-12 56.5t12 57t41 18t41.5 -18t12.5 -57t-12.5 -56.5t-41.5 -17.5zM482 197q-14 0 -19 -11.5t-5 -38.5q0 -50 24 -50q15 0 20 12t5 38q0 27 -5 38.5t-20 11.5z
M472 496q34 0 48 -20t14 -43q0 -21 -16.5 -35t-35.5 -17q-104 -12 -166 -72q3 8 8.5 20.5t22.5 44.5t34.5 57t42.5 45t48 20zM139 444q26 0 52 -19.5t44 -47t32 -54.5t21 -47l7 -19q-57 72 -156 72q-24 0 -43 15t-19 37q0 26 16.5 44.5t45.5 18.5zM314 593q19 -18 24 -50
t-1.5 -64t-15.5 -62t-17 -49l-9 -18q10 93 -61 161q-17 17 -20.5 40t11.5 41q18 18 41.5 19.5t47.5 -18.5z" />
    <glyph glyph-name="asciicircum" unicode="^" 
d="M101 197q-6 0 -9 -1v-98q2 -1 9 -1q18 0 24.5 12t6.5 38t-6.5 38t-24.5 12zM253 161v-24h-40v-38h47v-24h-76v145h76v-25h-47v-34h40zM99 73q-23 0 -36 2v143q26 4 37 4q33 0 47 -18t14 -57t-14.5 -56.5t-47.5 -17.5zM286 220h39l19 -80l19 80h40q1 -21 3.5 -78.5
t2.5 -66.5h-29q0 53 -3 104l-20 -82h-27l-20 82h-1q-2 -68 -2 -104h-28q2 84 7 145zM482 73q-29 0 -41 17.5t-12 56.5t12 57t41 18t41.5 -18t12.5 -57t-12.5 -56.5t-41.5 -17.5zM482 197q-14 0 -19 -11.5t-5 -38.5q0 -50 24 -50q15 0 20 12t5 38q0 27 -5 38.5t-20 11.5z
M472 496q34 0 48 -20t14 -43q0 -21 -16.5 -35t-35.5 -17q-104 -12 -166 -72q3 8 8.5 20.5t22.5 44.5t34.5 57t42.5 45t48 20zM139 444q26 0 52 -19.5t44 -47t32 -54.5t21 -47l7 -19q-57 72 -156 72q-24 0 -43 15t-19 37q0 26 16.5 44.5t45.5 18.5zM314 593q19 -18 24 -50
t-1.5 -64t-15.5 -62t-17 -49l-9 -18q10 93 -61 161q-17 17 -20.5 40t11.5 41q18 18 41.5 19.5t47.5 -18.5z" />
    <glyph glyph-name="underscore" unicode="_" 
d="M101 197q-6 0 -9 -1v-98q2 -1 9 -1q18 0 24.5 12t6.5 38t-6.5 38t-24.5 12zM253 161v-24h-40v-38h47v-24h-76v145h76v-25h-47v-34h40zM99 73q-23 0 -36 2v143q26 4 37 4q33 0 47 -18t14 -57t-14.5 -56.5t-47.5 -17.5zM286 220h39l19 -80l19 80h40q1 -21 3.5 -78.5
t2.5 -66.5h-29q0 53 -3 104l-20 -82h-27l-20 82h-1q-2 -68 -2 -104h-28q2 84 7 145zM482 73q-29 0 -41 17.5t-12 56.5t12 57t41 18t41.5 -18t12.5 -57t-12.5 -56.5t-41.5 -17.5zM482 197q-14 0 -19 -11.5t-5 -38.5q0 -50 24 -50q15 0 20 12t5 38q0 27 -5 38.5t-20 11.5z
M472 496q34 0 48 -20t14 -43q0 -21 -16.5 -35t-35.5 -17q-104 -12 -166 -72q3 8 8.5 20.5t22.5 44.5t34.5 57t42.5 45t48 20zM139 444q26 0 52 -19.5t44 -47t32 -54.5t21 -47l7 -19q-57 72 -156 72q-24 0 -43 15t-19 37q0 26 16.5 44.5t45.5 18.5zM314 593q19 -18 24 -50
t-1.5 -64t-15.5 -62t-17 -49l-9 -18q10 93 -61 161q-17 17 -20.5 40t11.5 41q18 18 41.5 19.5t47.5 -18.5z" />
    <glyph glyph-name="grave" unicode="`" 
d="M101 197q-6 0 -9 -1v-98q2 -1 9 -1q18 0 24.5 12t6.5 38t-6.5 38t-24.5 12zM253 161v-24h-40v-38h47v-24h-76v145h76v-25h-47v-34h40zM99 73q-23 0 -36 2v143q26 4 37 4q33 0 47 -18t14 -57t-14.5 -56.5t-47.5 -17.5zM286 220h39l19 -80l19 80h40q1 -21 3.5 -78.5
t2.5 -66.5h-29q0 53 -3 104l-20 -82h-27l-20 82h-1q-2 -68 -2 -104h-28q2 84 7 145zM482 73q-29 0 -41 17.5t-12 56.5t12 57t41 18t41.5 -18t12.5 -57t-12.5 -56.5t-41.5 -17.5zM482 197q-14 0 -19 -11.5t-5 -38.5q0 -50 24 -50q15 0 20 12t5 38q0 27 -5 38.5t-20 11.5z
M472 496q34 0 48 -20t14 -43q0 -21 -16.5 -35t-35.5 -17q-104 -12 -166 -72q3 8 8.5 20.5t22.5 44.5t34.5 57t42.5 45t48 20zM139 444q26 0 52 -19.5t44 -47t32 -54.5t21 -47l7 -19q-57 72 -156 72q-24 0 -43 15t-19 37q0 26 16.5 44.5t45.5 18.5zM314 593q19 -18 24 -50
t-1.5 -64t-15.5 -62t-17 -49l-9 -18q10 93 -61 161q-17 17 -20.5 40t11.5 41q18 18 41.5 19.5t47.5 -18.5z" />
    <glyph glyph-name="a" unicode="a" horiz-adv-x="371" 
d="M154 -6q-58 0 -90 37t-32 102q0 63 35.5 98.5t99.5 35.5h96v63q0 56 -17.5 82t-58.5 26q-74 0 -74 -90q0 -21 2 -39h-68q-3 21 -3 43q0 72 38 110t108 38q73 0 110 -43t37 -125v-332h-74q2 39 4 97h-1q-17 -103 -112 -103zM167 55q45 0 70.5 36.5t25.5 109.5v14h-91
q-34 0 -53 -20.5t-19 -57.5q0 -39 17.5 -60.5t49.5 -21.5z" />
    <glyph glyph-name="b" unicode="b" horiz-adv-x="409" 
d="M237 -6q-103 0 -123 107h-1q0 -53 4 -101h-74v686h74v-202q0 -2 -3 -92h1q18 108 124 108q140 0 140 -243q0 -263 -142 -263zM216 60q89 0 89 194q0 180 -86 180q-49 0 -75.5 -45t-26.5 -131v-42q0 -74 29 -115t70 -41z" />
    <glyph glyph-name="c" unicode="c" horiz-adv-x="362" 
d="M185 -6q-155 0 -155 253q0 130 38.5 191.5t120.5 61.5q74 0 108.5 -50.5t34.5 -156.5h-69q0 141 -73 141q-86 0 -86 -187t83 -187q77 0 77 140h68q0 -206 -147 -206z" />
    <glyph glyph-name="d" unicode="d" horiz-adv-x="409" 
d="M177 -6q-69 0 -108 65.5t-39 193.5q0 125 41 186t111 61q92 0 109 -86h1v272h74v-686h-74q4 74 5 115h-1q-20 -121 -119 -121zM194 60q42 0 70 50.5t28 126.5v32q0 78 -26 121.5t-71 43.5q-91 0 -91 -181q0 -193 90 -193z" />
    <glyph glyph-name="e" unicode="e" horiz-adv-x="365" 
d="M335 275v-37h-231q2 -183 88 -183q71 0 75 118h68q-3 -179 -146 -179q-80 0 -119.5 65t-39.5 184q0 257 161 257q73 0 108.5 -53.5t35.5 -171.5zM267 290v7q0 75 -18.5 108.5t-56.5 33.5q-39 0 -60.5 -34t-26.5 -115h162z" />
    <glyph glyph-name="f" unicode="f" horiz-adv-x="279" 
d="M64 0v428h-60v66h60v64q0 139 140 139q36 0 61 -10v-65q-23 9 -55 9q-72 0 -72 -74v-63h133v-66h-133v-428h-74z" />
    <glyph glyph-name="g" unicode="g" horiz-adv-x="382" 
d="M224 64q65 0 101 -33t36 -88q0 -67 -43 -108t-123 -41q-83 0 -126.5 38.5t-43.5 92.5q0 38 17.5 64t47.5 30q-30 26 -30 72q0 50 29 74v2q-51 43 -51 151q0 182 144 182q50 0 82 -22l1 1q-19 26 -19 53t18.5 42.5t53.5 15.5q20 0 32 -4v-61q-10 4 -23 4q-35 0 -35 -33
q0 -22 13 -66q21 -44 21 -112q0 -182 -144 -182q-27 0 -53 8q-8 -13 -8 -35q0 -45 37 -45h66zM182 439q-73 0 -73 -121t73 -121t73 121t-73 121zM194 -145q93 0 93 79q0 30 -17.5 47t-49.5 17h-57q-66 0 -66 -69q0 -29 25 -51.5t72 -22.5z" />
    <glyph glyph-name="h" unicode="h" horiz-adv-x="408" 
d="M43 0v686h74v-204q0 -8 -2 -53t-2 -48h1q28 119 134 119q62 0 94 -41.5t32 -113.5v-345h-74v336q0 97 -80 97q-45 0 -74 -43.5t-29 -112.5v-277h-74z" />
    <glyph glyph-name="i" unicode="i" horiz-adv-x="161" 
d="M42 543v96h78v-96h-78zM44 0v494h74v-494h-74z" />
    <glyph glyph-name="j" unicode="j" horiz-adv-x="161" 
d="M42 543v96h77v-96h-77zM-1 -199q-31 0 -63 8v65q20 -6 45 -6q63 0 63 78v548h74v-550q0 -143 -119 -143z" />
    <glyph glyph-name="k" unicode="k" horiz-adv-x="396" 
d="M43 0v686h74v-452h1l171 260h88l-140 -202l148 -292h-85l-112 231l-71 -101v-130h-74z" />
    <glyph glyph-name="l" unicode="l" horiz-adv-x="160" 
d="M43 0v686h74v-686h-74z" />
    <glyph glyph-name="m" unicode="m" horiz-adv-x="595" 
d="M39 0v494h74l-4 -106h2q20 112 112 112q47 0 76.5 -25t34.5 -70h1q8 45 37.5 70t75.5 25q55 0 84 -39t29 -112v-349h-74v339q0 94 -64 94q-39 0 -62.5 -38t-23.5 -105v-290h-74v340q0 93 -65 93q-38 0 -61.5 -41t-23.5 -110v-282h-74z" />
    <glyph glyph-name="n" unicode="n" horiz-adv-x="404" 
d="M39 0v494h74l-4 -112h1q27 118 134 118q62 0 94 -42t32 -113v-345h-74v336q0 97 -80 97q-45 0 -74 -42.5t-29 -110.5v-280h-74z" />
    <glyph glyph-name="o" unicode="o" horiz-adv-x="391" 
d="M196 -6q-82 0 -124 64t-42 189t42 189t124 64q81 0 123 -64.5t42 -188.5t-42 -188.5t-123 -64.5zM196 60q91 0 91 187t-91 187q-92 0 -92 -187t92 -187z" />
    <glyph glyph-name="p" unicode="p" horiz-adv-x="409" 
d="M43 -188v682h74l-3 -107h1q17 113 122 113q142 0 142 -243q0 -263 -144 -263q-99 0 -120 105h-1q3 -108 3 -111v-176h-74zM216 60q89 0 89 194q0 180 -90 180q-45 0 -71.5 -44t-26.5 -133v-39q0 -72 26.5 -115t72.5 -43z" />
    <glyph glyph-name="q" unicode="q" horiz-adv-x="409" 
d="M292 -188v297h-1q-18 -115 -115 -115q-70 0 -108 65.5t-38 193.5q0 124 41 185.5t111 61.5q94 0 110 -91h1v85h73v-682h-74zM194 60q42 0 70 49t28 128v33q0 80 -26.5 122t-69.5 42q-92 0 -92 -181q0 -193 90 -193z" />
    <glyph glyph-name="r" unicode="r" horiz-adv-x="354" 
d="M39 0v494h74l-4 -122h1q25 128 116 128q104 0 104 -155q0 -60 -6 -108h-65q5 52 5 95q0 55 -15 78t-45 23q-44 0 -67.5 -53.5t-23.5 -141.5v-238h-74z" />
    <glyph glyph-name="s" unicode="s" horiz-adv-x="355" 
d="M177 -6q-80 0 -113.5 44.5t-33.5 127.5h68q0 -58 18 -84t61 -26q37 0 55.5 20t18.5 56q0 37 -21 55q-12 10 -75 34q-72 27 -94 51q-31 33 -31 90q0 59 39 98.5t102 39.5q77 0 109.5 -41t32.5 -134h-69q0 63 -16 88t-57 25q-31 0 -49 -19.5t-18 -55.5q0 -33 19 -52
q17 -16 82 -40q64 -23 87 -45q33 -30 33 -87q0 -65 -39 -105t-109 -40z" />
    <glyph glyph-name="t" unicode="t" horiz-adv-x="280" 
d="M195 -3q-132 0 -132 166v265h-59v66h45q11 0 16.5 7.5t6.5 27.5l2 77h63v-112h129v-66h-129v-262q0 -51 16 -78t57 -27q31 0 51 5v-62q-23 -7 -66 -7z" />
    <glyph glyph-name="u" unicode="u" horiz-adv-x="404" 
d="M170 -6q-65 0 -100 42.5t-35 120.5v337h74v-328q0 -105 79 -105q49 0 76 48t27 123v262h74v-494h-74q3 43 5 119h-1q-23 -125 -125 -125z" />
    <glyph glyph-name="v" unicode="v" horiz-adv-x="390" 
d="M147 0l-128 494h85l93 -416h3l95 416h76l-129 -494h-95z" />
    <glyph glyph-name="w" unicode="w" horiz-adv-x="544" 
d="M106 0l-87 494h79l59 -408h3l78 408h80l72 -408h3l65 408h67l-88 -494h-95l-68 389h-3l-74 -389h-91z" />
    <glyph glyph-name="x" unicode="x" horiz-adv-x="377" 
d="M19 0l116 252l-110 242h87l82 -194l79 194h79l-110 -243l116 -251h-87l-87 201l-84 -201h-81z" />
    <glyph glyph-name="y" unicode="y" horiz-adv-x="383" 
d="M116 -199q-27 0 -55 10v64q19 -7 42 -7q27 0 42 25.5t34 106.5h-23l-137 494h85l99 -406h2l87 406h72l-115 -502q-25 -115 -51.5 -153t-81.5 -38z" />
    <glyph glyph-name="z" unicode="z" horiz-adv-x="317" 
d="M25 0v51l179 375v2h-172v66h260v-51l-180 -376v-1h180v-66h-267z" />
    <glyph glyph-name="braceleft" unicode="{" 
d="M101 197q-6 0 -9 -1v-98q2 -1 9 -1q18 0 24.5 12t6.5 38t-6.5 38t-24.5 12zM253 161v-24h-40v-38h47v-24h-76v145h76v-25h-47v-34h40zM99 73q-23 0 -36 2v143q26 4 37 4q33 0 47 -18t14 -57t-14.5 -56.5t-47.5 -17.5zM286 220h39l19 -80l19 80h40q1 -21 3.5 -78.5
t2.5 -66.5h-29q0 53 -3 104l-20 -82h-27l-20 82h-1q-2 -68 -2 -104h-28q2 84 7 145zM482 73q-29 0 -41 17.5t-12 56.5t12 57t41 18t41.5 -18t12.5 -57t-12.5 -56.5t-41.5 -17.5zM482 197q-14 0 -19 -11.5t-5 -38.5q0 -50 24 -50q15 0 20 12t5 38q0 27 -5 38.5t-20 11.5z
M472 496q34 0 48 -20t14 -43q0 -21 -16.5 -35t-35.5 -17q-104 -12 -166 -72q3 8 8.5 20.5t22.5 44.5t34.5 57t42.5 45t48 20zM139 444q26 0 52 -19.5t44 -47t32 -54.5t21 -47l7 -19q-57 72 -156 72q-24 0 -43 15t-19 37q0 26 16.5 44.5t45.5 18.5zM314 593q19 -18 24 -50
t-1.5 -64t-15.5 -62t-17 -49l-9 -18q10 93 -61 161q-17 17 -20.5 40t11.5 41q18 18 41.5 19.5t47.5 -18.5z" />
    <glyph glyph-name="bar" unicode="|" 
d="M101 197q-6 0 -9 -1v-98q2 -1 9 -1q18 0 24.5 12t6.5 38t-6.5 38t-24.5 12zM253 161v-24h-40v-38h47v-24h-76v145h76v-25h-47v-34h40zM99 73q-23 0 -36 2v143q26 4 37 4q33 0 47 -18t14 -57t-14.5 -56.5t-47.5 -17.5zM286 220h39l19 -80l19 80h40q1 -21 3.5 -78.5
t2.5 -66.5h-29q0 53 -3 104l-20 -82h-27l-20 82h-1q-2 -68 -2 -104h-28q2 84 7 145zM482 73q-29 0 -41 17.5t-12 56.5t12 57t41 18t41.5 -18t12.5 -57t-12.5 -56.5t-41.5 -17.5zM482 197q-14 0 -19 -11.5t-5 -38.5q0 -50 24 -50q15 0 20 12t5 38q0 27 -5 38.5t-20 11.5z
M472 496q34 0 48 -20t14 -43q0 -21 -16.5 -35t-35.5 -17q-104 -12 -166 -72q3 8 8.5 20.5t22.5 44.5t34.5 57t42.5 45t48 20zM139 444q26 0 52 -19.5t44 -47t32 -54.5t21 -47l7 -19q-57 72 -156 72q-24 0 -43 15t-19 37q0 26 16.5 44.5t45.5 18.5zM314 593q19 -18 24 -50
t-1.5 -64t-15.5 -62t-17 -49l-9 -18q10 93 -61 161q-17 17 -20.5 40t11.5 41q18 18 41.5 19.5t47.5 -18.5z" />
    <glyph glyph-name="braceright" unicode="}" 
d="M101 197q-6 0 -9 -1v-98q2 -1 9 -1q18 0 24.5 12t6.5 38t-6.5 38t-24.5 12zM253 161v-24h-40v-38h47v-24h-76v145h76v-25h-47v-34h40zM99 73q-23 0 -36 2v143q26 4 37 4q33 0 47 -18t14 -57t-14.5 -56.5t-47.5 -17.5zM286 220h39l19 -80l19 80h40q1 -21 3.5 -78.5
t2.5 -66.5h-29q0 53 -3 104l-20 -82h-27l-20 82h-1q-2 -68 -2 -104h-28q2 84 7 145zM482 73q-29 0 -41 17.5t-12 56.5t12 57t41 18t41.5 -18t12.5 -57t-12.5 -56.5t-41.5 -17.5zM482 197q-14 0 -19 -11.5t-5 -38.5q0 -50 24 -50q15 0 20 12t5 38q0 27 -5 38.5t-20 11.5z
M472 496q34 0 48 -20t14 -43q0 -21 -16.5 -35t-35.5 -17q-104 -12 -166 -72q3 8 8.5 20.5t22.5 44.5t34.5 57t42.5 45t48 20zM139 444q26 0 52 -19.5t44 -47t32 -54.5t21 -47l7 -19q-57 72 -156 72q-24 0 -43 15t-19 37q0 26 16.5 44.5t45.5 18.5zM314 593q19 -18 24 -50
t-1.5 -64t-15.5 -62t-17 -49l-9 -18q10 93 -61 161q-17 17 -20.5 40t11.5 41q18 18 41.5 19.5t47.5 -18.5z" />
    <glyph glyph-name="asciitilde" unicode="~" 
d="M101 197q-6 0 -9 -1v-98q2 -1 9 -1q18 0 24.5 12t6.5 38t-6.5 38t-24.5 12zM253 161v-24h-40v-38h47v-24h-76v145h76v-25h-47v-34h40zM99 73q-23 0 -36 2v143q26 4 37 4q33 0 47 -18t14 -57t-14.5 -56.5t-47.5 -17.5zM286 220h39l19 -80l19 80h40q1 -21 3.5 -78.5
t2.5 -66.5h-29q0 53 -3 104l-20 -82h-27l-20 82h-1q-2 -68 -2 -104h-28q2 84 7 145zM482 73q-29 0 -41 17.5t-12 56.5t12 57t41 18t41.5 -18t12.5 -57t-12.5 -56.5t-41.5 -17.5zM482 197q-14 0 -19 -11.5t-5 -38.5q0 -50 24 -50q15 0 20 12t5 38q0 27 -5 38.5t-20 11.5z
M472 496q34 0 48 -20t14 -43q0 -21 -16.5 -35t-35.5 -17q-104 -12 -166 -72q3 8 8.5 20.5t22.5 44.5t34.5 57t42.5 45t48 20zM139 444q26 0 52 -19.5t44 -47t32 -54.5t21 -47l7 -19q-57 72 -156 72q-24 0 -43 15t-19 37q0 26 16.5 44.5t45.5 18.5zM314 593q19 -18 24 -50
t-1.5 -64t-15.5 -62t-17 -49l-9 -18q10 93 -61 161q-17 17 -20.5 40t11.5 41q18 18 41.5 19.5t47.5 -18.5z" />
    </font>
</defs>
</svg>
